<svg width="18" height="18" viewBox="0 0 18 18" fill="none" xmlns="http://www.w3.org/2000/svg">
<g id="svgexport-17 (20) 1" clip-path="url(#clip0_122_30048)">
<g id="Group">
<path id="Vector" d="M16.5 9.56262C16.3508 9.56262 16.2077 9.50336 16.1023 9.39787C15.9968 9.29238 15.9375 9.14931 15.9375 9.00012C15.9376 7.62796 15.5307 6.28659 14.7684 5.14565C14.0061 4.00471 12.9226 3.11545 11.6549 2.59034C10.3872 2.06522 8.99225 1.92783 7.64645 2.19555C6.30066 2.46327 5.06448 3.12407 4.09425 4.09437C3.86168 4.32727 3.64565 4.57613 3.44775 4.83912C3.35824 4.95847 3.22498 5.03737 3.0773 5.05847C2.92961 5.07957 2.7796 5.04113 2.66025 4.95162C2.5409 4.86211 2.462 4.72886 2.4409 4.58117C2.41981 4.43349 2.45824 4.28347 2.54775 4.16412C2.77794 3.85998 3.02852 3.57182 3.29775 3.30162C4.42509 2.1738 5.86156 1.40561 7.4255 1.0942C8.98944 0.78279 10.6106 0.942142 12.084 1.55211C13.5574 2.16207 14.8168 3.19525 15.7029 4.52099C16.5891 5.84673 17.0622 7.40548 17.0625 9.00012C17.0625 9.14931 17.0032 9.29238 16.8977 9.39787C16.7923 9.50336 16.6492 9.56262 16.5 9.56262ZM9 17.0626C7.94116 17.0628 6.89266 16.8544 5.91438 16.4493C4.93611 16.0442 4.04722 15.4503 3.29851 14.7016C2.5498 13.9529 1.95593 13.064 1.55082 12.0857C1.14571 11.1075 0.937303 10.059 0.9375 9.00012C0.9375 8.85094 0.996763 8.70786 1.10225 8.60238C1.20774 8.49689 1.35082 8.43762 1.5 8.43762C1.64918 8.43762 1.79226 8.49689 1.89775 8.60238C2.00324 8.70786 2.0625 8.85094 2.0625 9.00012C2.06242 10.3723 2.46926 11.7137 3.23155 12.8546C3.99385 13.9955 5.07737 14.8848 6.34508 15.4099C7.61279 15.935 9.00775 16.0724 10.3535 15.8047C11.6993 15.537 12.9355 14.8762 13.9058 13.9059C14.1382 13.6734 14.354 13.4247 14.5515 13.1619C14.644 13.051 14.7754 12.9799 14.9188 12.9632C15.0622 12.9464 15.2065 12.9854 15.322 13.072C15.4375 13.1586 15.5153 13.2863 15.5394 13.4286C15.5635 13.5709 15.532 13.7171 15.4515 13.8369C15.2216 14.1415 14.971 14.4299 14.7015 14.7001C13.9545 15.4512 13.066 16.0468 12.0873 16.4523C11.1087 16.8578 10.0593 17.0653 9 17.0626Z" fill="black"/>
<path id="Vector_2" d="M15.3637 15.9262C15.2145 15.9262 15.0715 15.867 14.966 15.7615C14.8605 15.656 14.8012 15.5129 14.8012 15.3637V13.8052H13.242C13.0928 13.8052 12.9497 13.746 12.8442 13.6405C12.7387 13.535 12.6795 13.3919 12.6795 13.2427C12.6795 13.0935 12.7387 12.9505 12.8442 12.845C12.9497 12.7395 13.0928 12.6802 13.242 12.6802H15.3637C15.5129 12.6802 15.656 12.7395 15.7615 12.845C15.867 12.9505 15.9262 13.0935 15.9262 13.2427V15.3637C15.9262 15.5129 15.867 15.656 15.7615 15.7615C15.656 15.867 15.5129 15.9262 15.3637 15.9262ZM4.75723 5.31973H2.63623C2.48705 5.31973 2.34397 5.26047 2.23848 5.15498C2.13299 5.04949 2.07373 4.90641 2.07373 4.75723V2.63623C2.07373 2.48705 2.13299 2.34397 2.23848 2.23848C2.34397 2.13299 2.48705 2.07373 2.63623 2.07373C2.78541 2.07373 2.92849 2.13299 3.03398 2.23848C3.13947 2.34397 3.19873 2.48705 3.19873 2.63623V4.19473H4.75723C4.90641 4.19473 5.04949 4.25399 5.15498 4.35948C5.26047 4.46497 5.31973 4.60805 5.31973 4.75723C5.31973 4.90641 5.26047 5.04949 5.15498 5.15498C5.04949 5.26047 4.90641 5.31973 4.75723 5.31973ZM12.7095 8.64823L13.7655 6.88798L8.62498 3.80098L7.56448 5.56123C7.38146 5.94977 7.29089 6.37541 7.29986 6.8048C7.30884 7.2342 7.41713 7.65568 7.61623 8.03623C7.62302 8.05678 7.62528 8.07855 7.62286 8.10006C7.62044 8.12156 7.61339 8.14229 7.6022 8.16081C7.59102 8.17934 7.57596 8.19522 7.55805 8.20738C7.54015 8.21953 7.51983 8.22767 7.49848 8.23123C7.06895 8.23463 6.64606 8.3375 6.26297 8.53178C5.87987 8.72606 5.54701 9.00646 5.29048 9.35098L4.23448 11.112L9.37873 14.199L10.4355 12.4387C10.6184 12.0502 10.7091 11.6246 10.7002 11.1952C10.6914 10.7659 10.5833 10.3444 10.3845 9.96373C10.3777 9.94323 10.3754 9.92152 10.3778 9.90006C10.3802 9.8786 10.3871 9.8579 10.3982 9.83939C10.4094 9.82088 10.4243 9.80498 10.4421 9.79279C10.46 9.78059 10.4802 9.77238 10.5015 9.76873C10.931 9.76513 11.3539 9.66209 11.737 9.46769C12.1201 9.27329 12.4529 8.99281 12.7095 8.64823Z" fill="black"/>
<path id="Vector_3" d="M14.2783 6.03689L9.13259 2.95115C8.77736 2.73812 8.31669 2.85341 8.10366 3.20864C7.89064 3.56388 8.00592 4.02455 8.36116 4.23757L13.5069 7.32331C13.8621 7.53634 14.3228 7.42105 14.5358 7.06582C14.7488 6.71058 14.6335 6.24991 14.2783 6.03689Z" fill="black"/>
<path id="Vector_4" d="M9.65097 13.7576L4.50527 10.6719C4.15004 10.4588 3.68937 10.5741 3.47634 10.9293C3.26332 11.2846 3.3786 11.7452 3.73384 11.9583L8.87954 15.044C9.23477 15.257 9.69544 15.1418 9.90847 14.7865C10.1215 14.4313 10.0062 13.9706 9.65097 13.7576Z" fill="black"/>
</g>
</g>
<defs>
<clipPath id="clip0_122_30048">
<rect width="18" height="18" fill="white"/>
</clipPath>
</defs>
</svg>
