<svg width="18" height="18" viewBox="0 0 18 18" fill="none" xmlns="http://www.w3.org/2000/svg">
<g id="svgexport-17 (21) 1" clip-path="url(#clip0_122_30072)">
<g id="Group">
<path id="Vector" d="M5.8064 15.984C5.8064 16.4403 5.43313 16.8135 4.97691 16.8135H1.54831C1.09209 16.8135 0.718815 16.4403 0.718815 15.984V12.2237C0.718815 11.7674 1.09209 11.3942 1.54831 11.3942H4.97691C5.43313 11.3942 5.8064 11.7674 5.8064 12.2237V15.984ZM11.9032 15.984C11.9032 16.4403 11.5299 16.8135 11.0737 16.8135H7.64512C7.1889 16.8135 6.81563 16.4403 6.81563 15.984V10.2329C6.81563 9.77664 7.1889 9.40337 7.64512 9.40337H11.0737C11.5299 9.40337 11.9032 9.77664 11.9032 10.2329V15.984ZM18 15.984C18 16.4403 17.6268 16.8135 17.1705 16.8135H13.7419C13.2857 16.8135 12.9124 16.4403 12.9124 15.984V8.02087C12.9124 7.56464 13.2857 7.19137 13.7419 7.19137H17.1705C17.6268 7.19137 18 7.56464 18 8.02087V15.984ZM17.2825 1.20151L13.5566 2.10798C13.261 2.17954 13.1951 2.41407 13.4102 2.62913L14.2052 3.4056C14.272 3.48169 14.1928 3.58289 14.13 3.62574C13.6293 3.9675 12.8349 4.46896 11.7367 5.04192C5.75791 8.16122 0.829415 7.96988 0.755313 7.96651C0.359698 7.94643 0.0214285 8.25119 0.000967591 8.64747C-0.0194381 9.04397 0.285375 9.38202 0.681875 9.40243C0.711018 9.40392 0.829526 9.40928 1.02877 9.40928C2.30659 9.40928 6.8967 9.1888 12.4017 6.31669C13.7043 5.63711 14.6072 5.05099 15.1343 4.67993C15.2089 4.62745 15.3388 4.53698 15.4587 4.65902L16.3283 5.52856C16.5433 5.74362 16.7767 5.67743 16.847 5.38152L17.6923 1.60946C17.7625 1.31349 17.578 1.12995 17.2825 1.20151Z" fill="black"/>
</g>
</g>
<defs>
<clipPath id="clip0_122_30072">
<rect width="18" height="18" fill="white"/>
</clipPath>
</defs>
</svg>
