<svg width="18" height="18" viewBox="0 0 18 18" fill="none" xmlns="http://www.w3.org/2000/svg">
<g id="svgexport-17 (18) 1">
<g id="Group">
<path id="Vector" d="M8.25 13.5002C7.33866 13.4979 6.45934 13.1638 5.77639 12.5604C5.09345 11.9569 4.65362 11.1255 4.53912 10.2213C4.42463 9.3172 4.64329 8.40232 5.15426 7.64769C5.66522 6.89306 6.4335 6.35033 7.3155 6.12093C7.41178 6.09413 7.51244 6.08685 7.61157 6.0995C7.7107 6.11215 7.8063 6.14448 7.89276 6.1946C7.97922 6.24472 8.05479 6.31161 8.11503 6.39135C8.17528 6.47108 8.21898 6.56205 8.24357 6.65891C8.26816 6.75578 8.27314 6.85658 8.25823 6.95539C8.24331 7.05421 8.2088 7.14905 8.15672 7.23434C8.10464 7.31963 8.03603 7.39365 7.95494 7.45205C7.87385 7.51046 7.7819 7.55206 7.6845 7.57443C7.30031 7.67349 6.94913 7.87238 6.6666 8.15094C6.38406 8.42949 6.18021 8.77781 6.0757 9.16056C5.9712 9.54331 5.96977 9.94689 6.07155 10.3304C6.17334 10.7139 6.37471 11.0636 6.65527 11.3442C6.93582 11.6247 7.28557 11.8261 7.66906 11.9279C8.05254 12.0297 8.45612 12.0282 8.83887 11.9237C9.22163 11.8192 9.56994 11.6154 9.8485 11.3328C10.1271 11.0503 10.3259 10.6991 10.425 10.3149C10.4489 10.219 10.4915 10.1288 10.5504 10.0494C10.6093 9.97002 10.6833 9.90306 10.7681 9.85236C10.8529 9.80167 10.947 9.76825 11.0448 9.75402C11.1426 9.73979 11.2422 9.74503 11.338 9.76944C11.4338 9.79385 11.5238 9.83696 11.6029 9.89627C11.6819 9.95559 11.7485 10.0299 11.7987 10.1151C11.8489 10.2002 11.8818 10.2944 11.8955 10.3923C11.9092 10.4902 11.9034 10.5898 11.8785 10.6854C11.6729 11.4914 11.2045 12.2058 10.5473 12.7156C9.89015 13.2254 9.08174 13.5015 8.25 13.5002ZM15 9.75018C15.0001 9.58654 14.9908 9.42302 14.9723 9.26043C14.9625 9.16197 14.9331 9.06646 14.8858 8.97956C14.8385 8.89265 14.7742 8.81613 14.6968 8.75452C14.6194 8.6929 14.5304 8.64745 14.4351 8.62086C14.3398 8.59426 14.2401 8.58706 14.142 8.59968C13.9445 8.62245 13.7642 8.72269 13.6405 8.87837C13.5169 9.03404 13.4602 9.23243 13.4828 9.42993C13.4941 9.53631 13.4999 9.6432 13.5 9.75018C13.5 10.7885 13.1921 11.8036 12.6152 12.6669C12.0383 13.5303 11.2184 14.2032 10.2591 14.6006C9.29978 14.9979 8.24418 15.1019 7.22578 14.8993C6.20738 14.6967 5.27192 14.1967 4.53769 13.4625C3.80347 12.7283 3.30345 11.7928 3.10088 10.7744C2.89831 9.75601 3.00228 8.70041 3.39964 7.74109C3.797 6.78178 4.4699 5.96184 5.33326 5.38497C6.19662 4.80809 7.21165 4.50018 8.25 4.50018C8.35773 4.50034 8.46537 4.5061 8.5725 4.51743C8.67187 4.53139 8.77302 4.52527 8.86998 4.49943C8.96693 4.47359 9.05772 4.42856 9.13696 4.367C9.2162 4.30544 9.28228 4.22861 9.33129 4.14105C9.3803 4.05349 9.41124 3.95699 9.42228 3.85726C9.43332 3.75753 9.42424 3.6566 9.39557 3.56044C9.3669 3.46428 9.31923 3.37485 9.25538 3.29745C9.19152 3.22005 9.11279 3.15625 9.02384 3.10983C8.93488 3.0634 8.83751 3.0353 8.7375 3.02718C8.57563 3.00918 8.41288 3.00016 8.25 3.00018C6.91498 3.00018 5.60994 3.39606 4.4999 4.13776C3.38987 4.87946 2.52471 5.93367 2.01382 7.16707C1.50292 8.40047 1.36925 9.75767 1.6297 11.067C1.89015 12.3764 2.53303 13.5791 3.47703 14.5232C4.42104 15.4672 5.62377 16.11 6.93314 16.3705C8.24252 16.6309 9.59972 16.4973 10.8331 15.9864C12.0665 15.4755 13.1207 14.6103 13.8624 13.5003C14.6041 12.3903 15 11.0852 15 9.75018ZM16.0965 5.10693C16.0682 5.03836 16.0201 4.97973 15.9584 4.93848C15.8967 4.89722 15.8242 4.8752 15.75 4.87518H13.125V2.25018C13.1251 2.17592 13.1032 2.10328 13.062 2.04149C13.0208 1.9797 12.9622 1.93153 12.8936 1.90309C12.825 1.87466 12.7495 1.86723 12.6767 1.88175C12.6038 1.89628 12.537 1.9321 12.4845 1.98468L10.5645 3.90543C10.2842 4.18737 10.1263 4.56839 10.125 4.96593V6.81468L7.71975 9.21993C7.64812 9.28912 7.59098 9.37188 7.55168 9.46338C7.51237 9.55488 7.49168 9.6533 7.49082 9.75288C7.48995 9.85247 7.50893 9.95123 7.54664 10.0434C7.58435 10.1356 7.64004 10.2193 7.71046 10.2897C7.78088 10.3601 7.86461 10.4158 7.95679 10.4535C8.04896 10.4913 8.14772 10.5102 8.2473 10.5094C8.34689 10.5085 8.4453 10.4878 8.53681 10.4485C8.62831 10.4092 8.71107 10.3521 8.78025 10.2804L11.1855 7.87518H13.0343C13.4319 7.8742 13.813 7.71624 14.0948 7.43568L16.0155 5.51568C16.0679 5.4632 16.1036 5.39635 16.118 5.32359C16.1324 5.25084 16.1249 5.17544 16.0965 5.10693Z" fill="black"/>
</g>
</g>
</svg>
