<svg width="49" height="42" viewBox="0 0 49 42" fill="none" xmlns="http://www.w3.org/2000/svg">
<g opacity="0.24">
<path d="M6.23011 26.9603C6.86639 27.6679 7.2672 28.4005 7.70809 28.8889C6.93653 30.2344 6.11988 30.6181 5.19802 30.4437C4.22106 30.2543 3.43447 29.3374 3.39439 28.0566C3.37435 27.4736 3.47455 26.8905 3.57976 26.2427C3.68497 25.5949 3.49459 25.0018 3.06372 24.5533C1.45548 22.874 0.0877215 20.8407 0.00254981 18.1448C-0.0325209 17.0235 0.293136 15.982 1.04465 15.09C8.7552 24.4437 17.4127 28.4154 28.7154 32.1978C27.5481 31.5101 22.9037 29.0882 21.7414 28.3855C17.4978 25.8291 17.8135 26.0085 13.8755 22.9936C10.6139 20.4969 7.35738 17.761 5.14792 14.2577C3.2992 11.3226 1.58073 6.89734 3.99059 3.82759C6.0798 1.16649 9.99269 -0.0245341 13.2743 0.000382669C12.7332 0.000382669 11.9617 0.394067 11.4607 0.548551C11.2202 0.623301 10.9747 0.693068 10.7442 0.792735C9.53677 1.311 8.19407 2.22794 7.74817 3.58839C7.36239 4.7545 7.75318 5.9804 8.35439 7.00199C10.0027 9.79266 12.4727 11.786 14.9928 13.7046C18.9457 16.7145 23.2645 18.9271 27.6333 21.2843C32.0021 23.6414 30.8898 23.0085 35.1885 25.7593C37.6735 27.349 40.0934 29.0334 42.4331 30.8324C43.9211 31.9785 45.339 33.2543 46.6015 34.6396C48.0995 36.2792 47.6687 37.7343 45.4742 38.2875C44.1315 38.6263 42.9792 38.5416 41.5663 38.5416C40.7848 38.5416 40.0032 38.3572 39.2166 38.2526L39.1765 38.3722C39.7627 38.716 40.3539 39.0549 40.9351 39.3938C40.2537 40.7542 38.9811 41.4768 37.8388 41.2077C36.8569 40.9735 36.456 40.3107 36.3659 38.5715C36.3408 38.0831 36.0051 37.6695 35.5292 37.5499C33.44 37.0267 31.5061 36.6131 29.1363 35.9951C29.9028 36.6031 30.484 37.0616 31.0602 37.515C30.3588 38.8207 29.1012 39.4635 27.979 39.1147C26.9118 38.7908 26.4759 37.8439 26.6162 36.0649C26.6563 35.5765 26.3657 35.118 25.8998 34.9486C25.8998 34.9486 13.5599 31.3257 6.23512 26.9454L6.23011 26.9603Z" fill="#C7A27D"/>
<path d="M24.4168 10.1219H23.9759L23.9358 3.31958H24.3717L24.4168 10.1219Z" fill="#C7A27D"/>
<path d="M36.8168 18.0707L36.5813 17.687L43.2798 13.8398L43.5153 14.2236L36.8168 18.0707Z" fill="#C7A27D"/>
<path d="M32.0321 13.9542L31.6514 13.7549L34.9079 7.7998L35.2887 7.99914L32.0321 13.9542Z" fill="#C7A27D"/>
<path d="M11.636 3.71831C11.636 3.71831 12.2172 1.38112 16.8315 1.52066C22.9037 1.70006 28.976 3.77811 34.3217 6.48906C37.4581 8.07874 40.5593 9.80797 43.2898 12.0156C45.6045 13.8843 48.1897 16.3611 48.8761 19.3262C49.8631 23.577 44.7177 24.0803 41.6766 23.8162C32.1774 22.9939 19.1862 13.9491 19.1862 13.9491C19.1862 13.9491 15.4136 11.7066 17.1571 9.60863C18.9057 7.51563 28.3597 10.3512 33.8257 14.7664C39.2968 19.1816 37.5583 20.7763 35.6344 21.4042C35.6344 21.4042 40.399 23.1683 44.1966 21.8776C45.1185 21.5637 46.0604 21.0006 46.3861 20.0587C46.7618 18.9773 46.1857 18.0205 45.6045 17.1086C43.9511 14.5172 41.3459 12.3943 38.8459 10.6003C36.0502 8.59203 32.974 6.96247 29.7826 5.62694C27.6884 4.74987 25.534 3.99738 23.3496 3.35453C21.2554 2.73659 19.061 2.43261 16.8766 2.45753C15.9297 2.46749 11.9366 2.43759 11.616 3.72828L11.636 3.71831Z" fill="#C7A27D"/>
<path d="M13.8305 9.18502C13.1541 8.10861 13.074 6.58869 14.3465 5.90597C17.6332 4.14187 26.466 7.18669 29.7426 8.78635C32.6835 10.2066 35.4791 11.871 38.0844 13.8245C39.0563 14.577 40.0133 15.3395 40.8349 16.2664C42.1576 17.7962 43.4602 20.6019 40.4892 21.0902C43.2247 20.3627 41.7919 17.9756 40.4792 16.5753C39.6475 15.7381 38.6806 15.0155 37.7136 14.3229C33.7657 11.6019 29.5071 9.25977 24.9579 7.68005C22.4178 6.78803 11.4657 3.27477 13.8405 9.18502H13.8305Z" fill="#C7A27D"/>
</g>
</svg>
