<svg width="44" height="43" viewBox="0 0 44 43" fill="none" xmlns="http://www.w3.org/2000/svg">
<path d="M22 0.00147336C10.0999 0.00147336 0.4375 9.66384 0.4375 21.564C0.4375 33.4641 10.0999 43.1265 22 43.1265C33.9001 43.1265 43.5625 33.4641 43.5625 21.564C43.5625 18.2565 42.8141 15.1222 41.4807 12.3198L39.3398 14.4607C38.9356 14.8672 38.3844 15.0964 37.8111 15.0965H37.2159C38.0631 17.0839 38.5327 19.2693 38.5327 21.564C38.5327 30.6854 31.1214 38.0966 22 38.0966C12.8786 38.0966 5.46735 30.6854 5.46735 21.564C5.46735 12.4425 12.8786 5.03123 22 5.03123C24.2951 5.03123 26.481 5.50046 28.4688 6.34804V5.75281C28.4689 5.17951 28.6981 4.62834 29.1047 4.22409L31.2441 2.08331C28.4417 0.749872 25.3075 0.00147336 22 0.00147336ZM35.6366 0.00147336C35.4526 0.00695868 35.2778 0.0827225 35.1481 0.213288L30.1182 5.24312C30.0511 5.30991 29.9978 5.38937 29.9614 5.47682C29.925 5.56428 29.9063 5.658 29.9063 5.75272V10.4878L20.4151 19.979C19.5451 20.849 19.5451 22.2829 20.4151 23.153C21.2852 24.023 22.7149 24.0188 23.5849 23.1475L33.0746 13.6578H37.8111C37.9058 13.6578 37.9996 13.6391 38.087 13.6027C38.1745 13.5664 38.2539 13.5131 38.3207 13.446L43.3505 8.41603C43.4506 8.31535 43.5186 8.18732 43.546 8.04803C43.5734 7.90874 43.5589 7.76443 43.5044 7.63336C43.4499 7.50228 43.3578 7.39026 43.2397 7.31145C43.1217 7.23264 42.9829 7.19055 42.8409 7.19049H39.542L40.1147 6.61781C40.9848 5.74775 40.989 4.31801 40.1191 3.44796C39.6841 3.01294 39.1074 2.79519 38.5314 2.79519C37.9554 2.79519 37.3801 3.01304 36.9451 3.44796L36.3737 4.01932V0.716172C36.3734 0.620469 36.3539 0.525787 36.3165 0.437704C36.279 0.349621 36.2244 0.269942 36.1558 0.203257C36.0871 0.136572 36.0058 0.0842491 35.9167 0.0493908C35.8276 0.0145324 35.7323 -0.000947364 35.6366 0.00147336ZM22 10.0611C15.6572 10.0611 10.4972 15.2212 10.4972 21.564C10.4972 27.9067 15.6572 33.0612 22 33.0612C28.3428 33.0612 33.4972 27.9067 33.4972 21.564C33.4972 19.734 33.0584 18.0084 32.2955 16.4709L28.3578 20.4086C28.4261 20.7841 28.4674 21.1692 28.4674 21.564C28.4674 25.128 25.5641 28.0312 22 28.0312C18.4359 28.0312 15.5327 25.128 15.5327 21.564C15.5327 17.9999 18.4359 15.0965 22 15.0965C22.3948 15.0965 22.7798 15.1379 23.1553 15.206L27.0944 11.267C25.5568 10.5026 23.8311 10.0611 22 10.0611Z" fill="url(#paint0_linear_127_4729)"/>
<defs>
<linearGradient id="paint0_linear_127_4729" x1="0.4375" y1="21.5632" x2="43.5625" y2="21.5632" gradientUnits="userSpaceOnUse">
<stop stop-color="#C08450"/>
<stop offset="1" stop-color="#9E6439"/>
</linearGradient>
</defs>
</svg>
