<svg width="34" height="46" viewBox="0 0 34 46" fill="none" xmlns="http://www.w3.org/2000/svg">
<path d="M31.1284 3.94286H32.4427C33.1688 3.94286 33.757 3.35471 33.757 2.62857V1.31429C33.757 0.588143 33.1688 0 32.4427 0H1.55696C0.830819 0 0.242676 0.588143 0.242676 1.31429V2.62857C0.242676 3.35471 0.830819 3.94286 1.55696 3.94286H2.87125C2.87125 15.64 12.1954 16.096 12.7284 23C12.1954 29.9039 2.87125 30.36 2.87125 42.0571H1.55696C0.830819 42.0571 0.242676 42.6453 0.242676 43.3714V44.6857C0.242676 45.4119 0.830819 46 1.55696 46H32.4427C33.1688 46 33.757 45.4119 33.757 44.6857V43.3714C33.757 42.6453 33.1688 42.0571 32.4427 42.0571H31.1284C31.1284 30.36 21.8043 29.9039 21.2712 23C21.8042 16.096 31.1284 15.64 31.1284 3.94286ZM27.1442 40.9663C27.4471 41.4 27.1323 41.996 26.6026 41.996H16.9998H7.2944C6.78579 41.996 6.46447 41.4387 6.72665 41.0031C9.29675 36.7356 12.4267 33.5326 16.5589 30.4001C16.8119 30.2082 17.1752 30.2279 17.4105 30.4415C21.6064 34.2575 24.5865 37.3034 27.1442 40.9663ZM16.9479 19.7918L9.94008 12.8077C9.94008 12.8077 13.4624 14.2403 16.3275 14.2403C19.1926 14.2403 21.6406 12.2104 23.79 12.2104C25.9396 12.2104 16.9479 19.7918 16.9479 19.7918Z" fill="url(#paint0_linear_127_4720)"/>
<defs>
<linearGradient id="paint0_linear_127_4720" x1="0.242676" y1="23" x2="33.757" y2="23" gradientUnits="userSpaceOnUse">
<stop stop-color="#C08450"/>
<stop offset="1" stop-color="#9E6439"/>
</linearGradient>
</defs>
</svg>
