<?xml version="1.0" encoding="utf-8"?>
<!-- Generator: Adobe Illustrator 27.1.0, SVG Export Plug-In . SVG Version: 6.00 Build 0)  -->
<svg version="1.1" id="Layer_1" xmlns="http://www.w3.org/2000/svg" xmlns:xlink="http://www.w3.org/1999/xlink" x="0px" y="0px"
	 viewBox="0 0 91 64.6" style="enable-background:new 0 0 91 64.6;" xml:space="preserve">
<style type="text/css">
	.st0{clip-path:url(#SVGID_00000014632525269437519450000012279939832646737561_);}
	.st1{fill:#C7A27D;}
</style>
<g>
	<defs>
		<rect id="SVGID_1_" y="-13.2" width="91" height="91"/>
	</defs>
	<clipPath id="SVGID_00000170249958378116926660000005646700556715051455_">
		<use xlink:href="#SVGID_1_"  style="overflow:visible;"/>
	</clipPath>
	<g style="clip-path:url(#SVGID_00000170249958378116926660000005646700556715051455_);">
		<path class="st1" d="M18,30.8c-5.8,0-10.6-4.7-10.6-10.5c0-5.8,4.7-10.5,10.6-10.5c5.8,0,10.6,4.7,10.6,10.5
			C28.6,26.2,23.8,30.8,18,30.8z M18,12.9c-4.2,0-7.6,3.4-7.6,7.5c0,4.1,3.4,7.5,7.6,7.5c4.2,0,7.6-3.4,7.6-7.5
			C25.6,16.2,22.2,12.9,18,12.9z"/>
		<path class="st1" d="M22.2,59.8H3.8C1.7,59.8,0,58.1,0,56v-4.8c0-9.8,8.1-17.8,18-17.8c3.9,0,7.6,1.2,10.7,3.5
			c0.7,0.5,0.8,1.4,0.3,2.1c-0.5,0.7-1.4,0.8-2.1,0.3c-2.6-1.9-5.7-2.9-9-2.9C9.7,36.3,2.9,43,2.9,51.2V56c0,0.5,0.4,0.9,0.9,0.9
			h18.4c0.8,0,1.5,0.7,1.5,1.5C23.7,59.1,23.1,59.8,22.2,59.8z"/>
		<path class="st1" d="M87.2,58.7H68.8c-0.8,0-1.5-0.7-1.5-1.5c0-0.8,0.7-1.5,1.5-1.5h18.4c0.5,0,0.9-0.4,0.9-0.9v-4.8
			c0-8.2-6.8-14.9-15.1-14.9c-3.5,0-6.9,1.2-9.5,3.4c-0.6,0.5-1.6,0.4-2.1-0.2c-0.5-0.6-0.4-1.6,0.2-2.1c3.2-2.6,7.2-4,11.4-4
			c9.9,0,18,8,18,17.8v4.8C91,57,89.3,58.7,87.2,58.7z"/>
		<path class="st1" d="M73,30.1c-5.8,0-10.6-4.7-10.6-10.5c0-5.8,4.7-10.5,10.6-10.5c5.8,0,10.6,4.7,10.6,10.5
			C83.6,25.4,78.8,30.1,73,30.1z M73,12.1c-4.2,0-7.6,3.4-7.6,7.5c0,4.1,3.4,7.5,7.6,7.5c4.2,0,7.6-3.4,7.6-7.5
			C80.6,15.5,77.2,12.1,73,12.1z"/>
		<path class="st1" d="M65.4,64.6H25.6c-2.6,0-4.8-2.1-4.8-4.8v-6.8c0-13.5,11.1-24.5,24.7-24.5s24.7,11,24.7,24.5v6.8
			C70.2,62.4,68.1,64.6,65.4,64.6z M45.5,31.5c-12,0-21.8,9.7-21.8,21.5v6.8c0,1,0.8,1.8,1.9,1.8h39.8c1,0,1.9-0.8,1.9-1.8v-6.8
			C67.3,41.2,57.5,31.5,45.5,31.5z"/>
		<path class="st1" d="M45,26.9c-7.5,0-13.6-6-13.6-13.4C31.4,6,37.5,0,45,0c7.5,0,13.6,6,13.6,13.4C58.6,20.8,52.5,26.9,45,26.9z
			 M45,2.9c-5.9,0-10.6,4.7-10.6,10.5c0,5.8,4.8,10.5,10.6,10.5c5.9,0,10.6-4.7,10.6-10.5C55.6,7.6,50.9,2.9,45,2.9z"/>
	</g>
</g>
</svg>
