<svg width="47" height="45" viewBox="0 0 47 45" fill="none" xmlns="http://www.w3.org/2000/svg">
<g clip-path="url(#clip0_127_4733)">
<path d="M45.6224 42.3632H44.1537V16.3479C44.1537 15.6198 43.5372 15.0295 42.7768 15.0295H37.269C36.5086 15.0295 35.8921 15.6198 35.8921 16.3479V42.3632H33.1382V25.1368C33.1382 24.4088 32.5217 23.8185 31.7613 23.8185H26.2535C25.4931 23.8185 24.8766 24.4088 24.8766 25.1368V42.3632H22.1227V29.9707C22.1227 29.2427 21.5062 28.6524 20.7458 28.6524H15.2381C14.4776 28.6524 13.8611 29.2427 13.8611 29.9707V42.3632H11.1073V33.1348C11.1073 32.4067 10.4908 31.8164 9.73034 31.8164H4.2226C3.46216 31.8164 2.84566 32.4067 2.84566 33.1348V42.3632H1.37693C0.616499 42.3632 0 42.9534 0 43.6815C0 44.4096 0.616499 44.9998 1.37693 44.9998H45.6224C46.3829 44.9998 46.9994 44.4096 46.9994 43.6815C46.9994 42.9534 46.3829 42.3632 45.6224 42.3632Z" fill="url(#paint0_linear_127_4733)"/>
<path d="M1.37693 28.3279C9.97066 28.3279 19.2899 25.3729 27.6182 20.0071C34.1407 15.8047 39.5779 10.4361 42.9552 4.93892L44.2925 9.7172C44.4574 10.3062 45.2533 10.8151 45.9789 10.6494C46.7186 10.4804 47.1493 9.73803 46.9524 9.03474L44.6977 0.977916C44.5008 0.274713 43.7461 -0.142762 43.0113 0.0457611L34.5964 2.20459C33.8618 2.39302 33.426 3.11591 33.6228 3.81921C33.8197 4.5225 34.5744 4.93997 35.3092 4.75136L40.7302 3.3606C37.5793 8.60285 32.3719 13.7662 26.0807 17.8196C18.2021 22.8957 9.42879 25.6912 1.37693 25.6912C0.616499 25.6912 0 26.2815 0 27.0095C0 27.7376 0.616499 28.3279 1.37693 28.3279Z" fill="url(#paint1_linear_127_4733)"/>
</g>
<defs>
<linearGradient id="paint0_linear_127_4733" x1="0" y1="30.0147" x2="46.9994" y2="30.0147" gradientUnits="userSpaceOnUse">
<stop stop-color="#C08450"/>
<stop offset="1" stop-color="#9E6439"/>
</linearGradient>
<linearGradient id="paint1_linear_127_4733" x1="0" y1="14.1642" x2="47" y2="14.1642" gradientUnits="userSpaceOnUse">
<stop stop-color="#C08450"/>
<stop offset="1" stop-color="#9E6439"/>
</linearGradient>
<clipPath id="clip0_127_4733">
<rect width="47" height="45" fill="white"/>
</clipPath>
</defs>
</svg>
