<?xml version="1.0" encoding="utf-8"?>
<!-- Generator: Adobe Illustrator 27.1.0, SVG Export Plug-In . SVG Version: 6.00 Build 0)  -->
<svg version="1.1" id="Layer_1" xmlns="http://www.w3.org/2000/svg" xmlns:xlink="http://www.w3.org/1999/xlink" x="0px" y="0px"
	 viewBox="0 0 85 61.9" style="enable-background:new 0 0 85 61.9;" xml:space="preserve">
<style type="text/css">
	.st0{clip-path:url(#SVGID_00000132780522904809468130000006538349415100511666_);}
	.st1{fill:#C7A27D;}
</style>
<g>
	<defs>
		<rect id="SVGID_1_" y="-11.5" width="85" height="85"/>
	</defs>
	<clipPath id="SVGID_00000121964694109177087740000015509760853043211165_">
		<use xlink:href="#SVGID_1_"  style="overflow:visible;"/>
	</clipPath>
	<g style="clip-path:url(#SVGID_00000121964694109177087740000015509760853043211165_);">
		<path class="st1" d="M80.1,30H50.6c-0.5,0-1-0.3-1.2-0.8c-0.2-0.5-0.1-1,0.3-1.4l6.8-6.3v-8.5c0-2.7,2.2-4.9,4.9-4.9h18.7
			c2.7,0,4.9,2.2,4.9,4.9v12.1C85,27.8,82.8,30,80.1,30z M53.9,27.5h26.3c1.3,0,2.3-1,2.3-2.3V13.1c0-1.3-1-2.3-2.3-2.3H61.5
			c-1.3,0-2.3,1-2.3,2.3v9c0,0.4-0.1,0.7-0.4,0.9L53.9,27.5z"/>
		<path class="st1" d="M41.9,7.3H39c-0.7,0-1.3-0.6-1.3-1.3c0-0.7,0.6-1.3,1.3-1.3h2.9c0.7,0,1.3,0.6,1.3,1.3
			C43.2,6.7,42.6,7.3,41.9,7.3z"/>
		<path class="st1" d="M75.5,61.9H5.4c-3,0-5.4-2.4-5.4-5.4v-2.6c0-0.7,0.6-1.3,1.3-1.3h36.4c0.7,0,1.3,0.6,1.3,1.3
			c0,0.7-0.6,1.3-1.3,1.3H2.5v1.3c0,1.6,1.3,2.9,2.9,2.9h70.1c1.6,0,2.9-1.3,2.9-2.9v-1.3H43.3c-0.7,0-1.3-0.6-1.3-1.3
			c0-0.7,0.6-1.3,1.3-1.3h36.4c0.7,0,1.3,0.6,1.3,1.3v2.6C81,59.5,78.5,61.9,75.5,61.9z"/>
		<path class="st1" d="M37.6,55.2H5.5c-0.7,0-1.3-0.6-1.3-1.3V5.4c0-3,2.4-5.4,5.4-5.4h61.6c3,0,5.4,2.4,5.4,5.4v4
			c0,0.7-0.6,1.3-1.3,1.3c-0.7,0-1.3-0.6-1.3-1.3v-4c0-1.6-1.3-2.9-2.9-2.9H9.7c-1.6,0-2.9,1.3-2.9,2.9v47.2h30.9
			c0.7,0,1.3,0.6,1.3,1.3C38.9,54.6,38.3,55.2,37.6,55.2z"/>
		<path class="st1" d="M75.5,55.2H43.3c-0.7,0-1.3-0.6-1.3-1.3s0.6-1.3,1.3-1.3h30.9V28.8c0-0.7,0.6-1.3,1.3-1.3
			c0.7,0,1.3,0.6,1.3,1.3v25.1C76.7,54.6,76.1,55.2,75.5,55.2z"/>
		<path class="st1" d="M40.5,58c-2.3,0-4.1-1.8-4.1-4.1c0-0.7,0.6-1.3,1.3-1.3c0.7,0,1.3,0.6,1.3,1.3c0,0.9,0.7,1.6,1.6,1.6
			c0.9,0,1.6-0.7,1.6-1.6c0-0.7,0.6-1.3,1.3-1.3c0.7,0,1.3,0.6,1.3,1.3C44.6,56.2,42.7,58,40.5,58z"/>
		<path class="st1" d="M52.6,46c-0.7,0-1.3-0.6-1.3-1.3v-5.6c0-0.1,0-0.2,0-0.3c0,0,0-0.1,0-0.1c-0.3-1.7-1.9-5.5-8.8-5.5h-1.8
			c-0.1,0-0.2,0-0.3,0c-0.1,0-0.2,0-0.3,0h-1.8c-6.9,0-8.4,3.9-8.8,5.5c0,0,0,0.1,0,0.1c0,0.1,0,0.2,0,0.3v5.6
			c0,0.7-0.6,1.3-1.3,1.3c-0.7,0-1.3-0.6-1.3-1.3v-5.6c0-0.3,0-0.6,0.1-1c0.3-1.6,1.9-6.1,8.2-7.2c-0.9-1.1-1.4-2.4-1.4-3.9v-4.6
			c0-3.4,2.8-6.2,6.2-6.2h0.6c3.4,0,6.2,2.8,6.2,6.2v4.6c0,1.5-0.5,2.8-1.4,3.9c6.3,1.1,7.9,5.6,8.2,7.2c0.1,0.3,0.1,0.6,0.1,1v5.6
			C53.9,45.5,53.3,46,52.6,46z M40.2,18.8c-2,0-3.7,1.6-3.7,3.6v4.6c0,2,1.6,3.6,3.7,3.6c0.1,0,0.2,0,0.3,0c0.1,0,0.2,0,0.3,0
			c2,0,3.7-1.6,3.7-3.6v-4.6c0-2-1.6-3.6-3.7-3.6L40.2,18.8z"/>
	</g>
</g>
</svg>
