<svg width="69" height="74" viewBox="0 0 69 74" fill="none" xmlns="http://www.w3.org/2000/svg">
<path fill-rule="evenodd" clip-rule="evenodd" d="M54.2664 22.0313V1.23303C54.2664 0.552154 53.7142 0 53.0334 0H1.23303C0.552154 0 0 0.552154 0 1.23303V72.767C0 73.4478 0.552154 74 1.23303 74H28.8631C28.768 73.9038 28.6736 73.8066 28.5799 73.7083C27.9168 73.0133 27.3074 72.2866 26.7516 71.5334H19.733V66.6001H24.0032C23.6796 65.7912 23.4054 64.9674 23.1805 64.1335H18.5C17.8186 64.1335 17.2664 64.6856 17.2664 65.3665V71.5334H8.52226C7.99269 68.4344 5.56558 66.0073 2.46663 65.4777V38.2336H19.8443C20.4593 41.8911 23.663 44.4664 27.263 44.3988C27.8895 43.6136 28.5763 42.8616 29.3233 42.1489L36.0132 35.767H34.4221C33.7452 31.741 29.9332 29.0265 25.9072 29.7034C22.8009 30.2262 20.367 32.6601 19.8443 35.767H2.46663V8.52226C5.56558 7.99269 7.99269 5.56558 8.52226 2.46663H17.2664V8.63348C17.2664 9.31436 17.8186 9.86652 18.5 9.86652H35.7664C36.4478 9.86652 37 9.31436 37 8.63348V2.46663H45.7441C46.2737 5.56558 48.7014 7.99269 51.7998 8.52226V22.8651C52.6085 22.5377 53.4323 22.2598 54.2664 22.0313ZM44.1022 28.0503C43.2189 27.6487 42.4938 26.9023 42.145 25.9151C41.4635 23.9888 42.4736 21.8745 44.3999 21.1936V14.0771L42.805 15.672L41.0616 13.9281L44.7612 10.2278C45.2428 9.74626 46.0236 9.74626 46.5052 10.2278L50.2054 13.9281L48.4614 15.672L46.8665 14.0771V21.1936C47.9206 21.5662 48.7494 22.395 49.122 23.4485C49.1951 23.6553 49.2486 23.8642 49.2837 24.0732C47.6819 24.9707 46.1655 26.082 44.7756 27.4079L44.1022 28.0503ZM39.0311 32.888L37.1921 34.6423C34.1466 29.2744 28.4362 25.9089 22.2002 25.8999H19.0104L20.6053 27.4948L18.8613 29.2388L15.1611 25.5386C14.6801 25.057 14.6801 24.2762 15.1611 23.7946L18.8613 20.0949L20.6053 21.8389L19.0104 23.4333H22.2002C29.1465 23.4425 35.4898 27.0886 39.0311 32.888ZM23.5847 51.138L22.2002 52.523L20.6053 50.9281L18.8613 52.672L20.4562 54.267L18.8613 55.8613L20.6053 57.6053L22.2002 56.0104L22.498 56.3083C22.6543 54.5558 23.0169 52.8192 23.5847 51.138ZM22.3752 35.7664C23.0437 33.1389 25.7164 31.5507 28.3445 32.2197C30.0873 32.6629 31.448 34.0241 31.8917 35.7664H22.3752ZM31.8917 38.2336C31.2227 40.8611 28.55 42.4493 25.9225 41.7803C24.1796 41.3371 22.819 39.9759 22.3752 38.2336H31.8917ZM51.7998 5.99127C50.0739 5.54018 48.7262 4.19253 48.2751 2.46663H51.7998V5.99127ZM34.5334 2.46663V7.39989H19.733V2.46663H34.5334ZM5.99127 2.46663C5.54018 4.19253 4.19253 5.54018 2.46663 5.99184V2.46663H5.99127ZM2.46663 68.0087C4.19253 68.4598 5.54018 69.8075 5.99127 71.5334H2.46663V68.0087ZM8.63348 20.9666C6.58972 20.9666 4.93326 22.6231 4.93326 24.6669C4.93326 26.7101 6.58972 28.3665 8.63348 28.3665C10.6767 28.3665 12.3331 26.7101 12.3331 24.6669C12.3331 22.6231 10.6767 20.9666 8.63348 20.9666ZM8.63348 25.8999C7.95204 25.8999 7.39989 25.3477 7.39989 24.6669C7.39989 23.9854 7.95204 23.4333 8.63348 23.4333C9.31436 23.4333 9.86651 23.9854 9.86651 24.6669C9.86651 25.3477 9.31436 25.8999 8.63348 25.8999ZM7.39989 12.8441L5.80553 14.4384L4.06155 12.6945L7.76121 8.99481C8.2428 8.51323 9.0236 8.51323 9.50519 8.99481L13.2054 12.6945L11.4614 14.4384L9.86651 12.8441V18.5H7.39989V12.8441ZM45.6335 25.8999C44.952 25.8999 44.3999 25.3477 44.3999 24.6669C44.3999 23.9854 44.952 23.4333 45.6335 23.4333C46.3144 23.4333 46.8665 23.9854 46.8665 24.6669C46.8665 25.3477 46.3144 25.8999 45.6335 25.8999ZM39.1047 18.8608L37.3602 20.6053L39.8268 23.0714L41.5708 21.3274L39.1047 18.8608ZM33.2998 16.5437L34.8947 18.1387L36.6387 16.3947L35.0437 14.7998H37V12.3331H32.0667C31.3853 12.3331 30.8331 12.8853 30.8331 13.5667V18.5H33.2998V16.5437Z" fill="#C7A27D"/>
<g clip-path="url(#clip0_592_230)">
<path d="M50.2086 35.8099C49.9038 36.1145 49.9038 36.6089 50.2086 36.9144C50.5141 37.2192 51.0085 37.2192 51.3131 36.9144C51.6185 36.6089 51.6185 36.1145 51.3131 35.8099C51.0085 35.5044 50.5141 35.5044 50.2086 35.8099Z" fill="#C7A27D"/>
<path d="M34.138 51.881C33.8326 52.1865 33.8326 52.6809 34.138 52.9857C34.4426 53.2912 34.937 53.2912 35.2425 52.9857C35.5473 52.6809 35.5473 52.1865 35.2425 51.881C34.937 51.5764 34.4426 51.5764 34.138 51.881Z" fill="#C7A27D"/>
<path d="M67.333 40.7816L65.1235 38.5718L66.781 36.9147C67.6947 36.0007 67.6947 34.5136 66.781 33.5996L64.5715 31.3904C63.6575 30.4764 62.1707 30.4764 61.2567 31.3904L59.5993 33.0475L57.3901 30.8387C56.1712 29.6173 54.1915 29.6155 52.9711 30.8377C52.572 31.2366 52.2946 31.7246 52.1566 32.2565C50.6252 30.976 48.341 31.0489 46.8948 32.4949C45.3677 34.021 45.3671 36.4924 46.8945 38.0191L50.761 41.8863L40.2139 52.4338L36.3473 48.5673C34.8205 47.0402 32.3504 47.0402 30.823 48.5673C29.3847 50.0059 29.3059 52.2962 30.5852 53.8291C30.0533 53.967 29.5653 54.2444 29.1665 54.6433C27.9449 55.8637 27.9443 57.8412 29.1662 59.0623L31.3757 61.2723L29.7185 62.9291C28.8048 63.8431 28.8048 65.3303 29.7185 66.244L31.928 68.4534C32.8417 69.3674 34.3288 69.3674 35.2428 68.4534L36.8999 66.7963L39.1097 69.0055C40.3307 70.2268 42.3068 70.2277 43.5284 69.0058C43.9275 68.6072 44.2049 68.1193 44.3432 67.587C45.8743 68.8679 48.1588 68.7949 49.6047 67.349C51.1318 65.8228 51.1328 63.3512 49.605 61.8244L45.7385 57.9578L56.285 47.4103L60.1519 51.2766C61.679 52.8037 64.1488 52.8037 65.6762 51.2766C67.1145 49.838 67.1936 47.548 65.9143 46.0151C66.4468 45.8768 66.9345 45.5994 67.3327 45.2006C68.5543 43.9798 68.5549 42.0023 67.333 40.7816ZM62.3614 32.4952C62.6663 32.1903 63.1619 32.1903 63.4667 32.4952L65.6759 34.7046C65.9808 35.0092 65.9808 35.5051 65.6759 35.8097L64.0191 37.4665L60.7046 34.152L62.3614 32.4952ZM34.1378 67.3487C33.8332 67.6536 33.3373 67.6533 33.0328 67.3487L30.8233 65.1392C30.5187 64.8347 30.5187 64.3388 30.8233 64.0339L32.4801 62.3771L35.7949 65.6916L34.1378 67.3487ZM42.4236 67.9008C41.8127 68.5117 40.8254 68.512 40.2145 67.9008C23.7984 51.4869 42.1819 69.8682 30.2709 57.9572C29.6603 57.3472 29.66 56.359 30.2709 55.7484C30.8819 55.1374 31.8691 55.1374 32.4801 55.7484L42.4236 65.6919H42.4239C43.0343 66.3019 43.0349 67.2901 42.4236 67.9008ZM48.5 66.244C47.5839 67.1601 46.1028 67.1604 45.1861 66.2437C32.6626 53.7214 33.6379 54.6964 33.5851 54.6436L31.928 52.9859C31.0143 52.0722 31.0143 50.5857 31.928 49.672C32.8442 48.7559 34.3261 48.7555 35.2425 49.672L48.5 62.9298C49.4164 63.845 49.4167 65.3275 48.5 66.244ZM44.6337 56.8528L41.3192 53.538L51.8655 42.9911L55.18 46.3056L44.6337 56.8528ZM64.5712 50.1719C63.655 51.088 62.1734 51.0883 61.2567 50.1719C41.2972 30.214 62.9049 51.8201 47.9992 36.9144C47.0831 35.9986 47.0825 34.516 47.9992 33.5999C48.9156 32.6835 50.3967 32.6835 51.3131 33.5999L64.5712 46.858C65.4849 47.7717 65.4849 49.2582 64.5712 50.1719ZM66.2277 44.0958C65.6185 44.7062 64.6289 44.7065 64.0197 44.0958C64.0194 44.0958 64.0194 44.0958 64.0191 44.0955L54.0756 34.1517C53.4692 33.5462 53.4606 32.5577 54.0762 31.9425C54.6841 31.3337 55.6735 31.3303 56.285 31.9428L66.2286 41.8866C66.8362 42.4936 66.8423 43.4818 66.2277 44.0958Z" fill="#C7A27D"/>
<path d="M45.1861 64.0338C45.4913 64.339 45.986 64.339 46.2908 64.0338C46.596 63.729 46.596 63.2343 46.2908 62.9291L37.452 54.0912C37.1472 53.786 36.6525 53.786 36.3473 54.0912C36.0421 54.3964 36.0421 54.8907 36.3473 55.1959L45.1861 64.0338Z" fill="#C7A27D"/>
<path d="M53.5236 38.0192C53.2184 37.714 52.724 37.714 52.4188 38.0192C52.1136 38.324 52.1136 38.8187 52.4188 39.1239L61.2567 47.9627C61.5616 48.2679 62.0563 48.2679 62.3615 47.9627C62.6666 47.6575 62.6666 47.1629 62.3615 46.858L53.5236 38.0192Z" fill="#C7A27D"/>
</g>
<defs>
<clipPath id="clip0_592_230">
<rect width="40" height="40" fill="white" transform="translate(28.1719 30)"/>
</clipPath>
</defs>
</svg>
