<svg width="40" height="40" viewBox="0 0 40 40" fill="none" xmlns="http://www.w3.org/2000/svg">
<g clip-path="url(#clip0_127_3980)">
<path d="M26.3682 38.9586C26.1599 39.029 25.9503 39.0972 25.7393 39.16C25.951 39.0965 26.1599 39.0283 26.3682 38.9586Z" fill="#C08450"/>
<path d="M27.413 38.5752C27.1882 38.6649 26.9633 38.7531 26.7344 38.8345C26.9633 38.7524 27.1889 38.6649 27.413 38.5752Z" fill="#C08450"/>
<path d="M20 40C31.0457 40 40 31.0457 40 20C40 8.95431 31.0457 0 20 0C8.95431 0 0 8.95431 0 20C0 31.0457 8.95431 40 20 40Z" fill="#E1CCB0"/>
<path d="M18.551 39.9421C18.3069 39.9248 18.0634 39.9062 17.8228 39.88C18.0641 39.9062 18.3076 39.9248 18.551 39.9421Z" fill="#C08450"/>
<path d="M15.2808 39.4344C15.0739 39.384 14.8684 39.3302 14.6636 39.2737C14.8684 39.3309 15.0739 39.3847 15.2808 39.4344Z" fill="#C08450"/>
<path d="M17.409 39.8275C17.1903 39.7992 16.9724 39.7695 16.7559 39.7344C16.9717 39.7695 17.1903 39.7985 17.409 39.8275Z" fill="#C08450"/>
<path d="M12.2939 38.4592C11.9829 38.3289 11.6753 38.1923 11.3726 38.0475C11.676 38.1923 11.9836 38.3296 12.2939 38.4592Z" fill="#C08450"/>
<path d="M24.2974 39.5323C24.0898 39.5779 23.8815 39.6192 23.6719 39.6579C23.8808 39.6192 24.0898 39.5779 24.2974 39.5323Z" fill="#C08450"/>
<path d="M23.2449 39.7338C23.0284 39.7689 22.8104 39.7986 22.5918 39.8269C22.8097 39.7986 23.0284 39.7696 23.2449 39.7338Z" fill="#C08450"/>
<path d="M28.6233 38.049C28.3219 38.1931 28.0157 38.3296 27.7061 38.4593C28.0157 38.3296 28.3219 38.1938 28.6233 38.049Z" fill="#C08450"/>
<path d="M27.706 38.4592C27.6094 38.4999 27.5108 38.5358 27.4136 38.5744C27.5101 38.5358 27.6087 38.4999 27.706 38.4592Z" fill="#C08450"/>
<path d="M28.6511 38.0365C28.6422 38.0406 28.6325 38.0448 28.6235 38.0489C28.6325 38.0448 28.6422 38.0413 28.6511 38.0365Z" fill="#C08450"/>
<path d="M16.755 39.7337C16.6123 39.7102 16.4702 39.684 16.3281 39.6578C16.4709 39.684 16.6123 39.7109 16.755 39.7337Z" fill="#C08450"/>
<path d="M18.9032 39.9689C18.7853 39.9627 18.668 39.9503 18.5508 39.942C18.6687 39.9503 18.7853 39.9627 18.9032 39.9689Z" fill="#C08450"/>
<path d="M12.5868 38.5751C12.4896 38.5365 12.391 38.5 12.2944 38.46C12.391 38.5 12.4896 38.5358 12.5868 38.5751Z" fill="#C08450"/>
<path d="M13.6318 38.9586C13.5098 38.9172 13.3863 38.8779 13.2656 38.8345C13.3863 38.8779 13.5091 38.9172 13.6318 38.9586Z" fill="#C08450"/>
<path d="M22.591 39.8275C22.4531 39.8454 22.3159 39.8654 22.1772 39.8799C22.3159 39.8648 22.4531 39.8454 22.591 39.8275Z" fill="#C08450"/>
<path d="M24.7194 39.4344C24.5794 39.4682 24.4387 39.5007 24.2974 39.5317C24.4387 39.5013 24.5794 39.4689 24.7194 39.4344Z" fill="#C08450"/>
<path d="M14.6642 39.2744C14.5297 39.2372 14.3945 39.1999 14.2607 39.1599C14.3945 39.1999 14.529 39.2372 14.6642 39.2744Z" fill="#C08450"/>
<path d="M24.5779 21.3752C26.8062 19.8917 28.2759 17.36 28.2759 14.4828C28.2759 9.91243 24.5704 6.20691 20 6.20691C15.4297 6.20691 11.7242 9.91243 11.7242 14.4828C11.7242 17.36 13.1938 19.8917 15.4221 21.3752C15.4221 21.3752 15.4228 21.3759 15.4235 21.3759C15.4228 21.3759 15.4228 21.3752 15.4228 21.3752C10.089 22.9828 5.93587 27.3117 4.59863 32.7579L4.59932 32.7586C4.81725 33.0214 5.04346 33.2779 5.27449 33.5297C5.33036 33.591 5.38898 33.6497 5.44622 33.7097C5.62415 33.8986 5.80415 34.0848 5.98898 34.2669C6.06553 34.3421 6.14346 34.4145 6.22139 34.4883C6.39243 34.651 6.56553 34.8117 6.74208 34.9683C6.82967 35.0455 6.91863 35.1221 7.00691 35.1979C7.18001 35.3462 7.35518 35.4917 7.5338 35.6338C7.6276 35.709 7.72208 35.7828 7.81656 35.8566C7.99725 35.9959 8.1807 36.131 8.36622 36.2635C8.46208 36.3317 8.55656 36.4014 8.65381 36.4683C8.84967 36.6035 9.04898 36.7331 9.24967 36.8614C9.34001 36.9186 9.42829 36.9779 9.51932 37.0345C9.75105 37.1773 9.98691 37.3138 10.2248 37.4476C10.2876 37.4828 10.349 37.5207 10.4124 37.5552C10.72 37.7235 11.0324 37.8848 11.3497 38.0373C11.3573 38.0407 11.3655 38.0441 11.3731 38.0476C11.6759 38.1924 11.9835 38.3297 12.2945 38.4593C12.391 38.5 12.4897 38.5359 12.5869 38.5745C12.8117 38.6641 13.0366 38.7524 13.2655 38.8338C13.3869 38.8773 13.5097 38.9166 13.6317 38.9579C13.84 39.0283 14.0497 39.0966 14.2607 39.1593C14.3945 39.1993 14.529 39.2366 14.6642 39.2738C14.8683 39.3304 15.0738 39.3841 15.2814 39.4345C15.4214 39.4683 15.5621 39.5007 15.7035 39.5317C15.911 39.5773 16.1193 39.6186 16.329 39.6572C16.471 39.6835 16.6124 39.7104 16.7559 39.7331C16.9724 39.7683 17.1904 39.7979 17.409 39.8262C17.5469 39.8442 17.6841 39.8642 17.8228 39.8786C18.0641 39.9048 18.3076 39.9235 18.551 39.9407C18.669 39.949 18.7855 39.9614 18.9035 39.9676C19.2669 39.9883 19.6317 40 20 40C20.3683 40 20.7331 39.9883 21.0966 39.969C21.2145 39.9628 21.3317 39.9504 21.449 39.9421C21.6931 39.9248 21.9366 39.9062 22.1773 39.88C22.3159 39.8648 22.4531 39.8455 22.591 39.8276C22.8097 39.7993 23.0276 39.7697 23.2442 39.7345C23.3869 39.711 23.529 39.6848 23.671 39.6586C23.8807 39.62 24.0897 39.5786 24.2966 39.5331C24.4379 39.5021 24.5786 39.4697 24.7186 39.4359C24.9255 39.3855 25.131 39.3317 25.3359 39.2752C25.4704 39.2379 25.6055 39.2007 25.7393 39.1607C25.951 39.0973 26.16 39.029 26.3683 38.9593C26.4904 38.9179 26.6138 38.8786 26.7345 38.8352C26.9628 38.7531 27.1883 38.6655 27.4131 38.5759C27.5104 38.5373 27.609 38.5007 27.7055 38.4607C28.0152 38.331 28.3214 38.1952 28.6228 38.0504C28.6317 38.0462 28.6414 38.0421 28.6504 38.0379C28.9676 37.8855 29.28 37.7241 29.5876 37.5559C29.651 37.5214 29.7124 37.4835 29.7752 37.4483C30.0131 37.3145 30.249 37.1779 30.4807 37.0352C30.5717 36.9793 30.6607 36.92 30.7504 36.8621C30.951 36.7338 31.1504 36.6035 31.3462 36.469C31.4428 36.4021 31.5379 36.3331 31.6338 36.2641C31.8193 36.131 32.0028 35.9959 32.1835 35.8573C32.2786 35.7841 32.3724 35.7097 32.4662 35.6345C32.6442 35.4924 32.82 35.3469 32.9931 35.1986C33.0821 35.1228 33.171 35.0462 33.2579 34.969C33.4345 34.8124 33.6076 34.6517 33.7786 34.489C33.8559 34.4152 33.9345 34.3421 34.011 34.2676C34.1959 34.0855 34.3766 33.8993 34.5538 33.7104C34.6104 33.6497 34.669 33.591 34.7255 33.5304C34.9566 33.2786 35.1828 33.0221 35.4007 32.7593L35.4014 32.7586C34.0648 27.3117 29.9117 22.9828 24.5779 21.3752Z" fill="#C8A78A"/>
</g>
<defs>
<clipPath id="clip0_127_3980">
<rect width="40" height="40" fill="white"/>
</clipPath>
</defs>
</svg>
