<svg width="37" height="36" viewBox="0 0 37 36" fill="none" xmlns="http://www.w3.org/2000/svg">
<path d="M18.9422 0C9.02755 0 0.961426 8.06612 0.961426 17.9808C0.961426 27.8954 9.02755 35.9615 18.9422 35.9615C28.8568 35.9615 36.923 27.8954 36.923 17.9808C36.923 8.06612 28.8568 0 18.9422 0Z" fill="#C08450"/>
<path d="M28.3562 19.0446L23.4523 24.7657C23.1291 25.1425 22.6709 25.3364 22.2104 25.3364C21.8341 25.3364 21.4557 25.2071 21.1473 24.9429C20.4621 24.3555 20.3826 23.3235 20.9701 22.6379L23.5609 19.6153H10.7689C9.86618 19.6153 9.13428 18.8833 9.13428 17.9806C9.13428 17.0779 9.86618 16.346 10.7689 16.346H23.5609L20.9701 13.3234C20.3826 12.6378 20.4621 11.6058 21.1473 11.0184C21.8329 10.4309 22.8649 10.5107 23.4523 11.1955L28.3562 16.9167C28.881 17.5289 28.881 18.4324 28.3562 19.0446Z" fill="white"/>
</svg>
