<svg width="35" height="43" viewBox="0 0 35 43" fill="none" xmlns="http://www.w3.org/2000/svg">
<path d="M33.6037 1.98932C24.1517 -4.8239 14.7013 8.42656 5.24941 3.81828V2.83799C5.24941 1.62052 4.26168 0.632784 3.0443 0.632784C1.82691 0.632784 0.839355 1.62052 0.839355 2.83799V40.795C0.839355 42.0123 1.82691 43 3.0443 43C4.26168 43 5.24941 42.0123 5.24941 40.795V24.7148C14.2333 29.0933 23.2173 17.3401 32.2027 22.0174C32.6175 22.2342 33.1158 22.2198 33.5161 21.9756C33.9168 21.7331 34.1609 21.2996 34.1609 20.83C34.1609 14.9127 34.1609 8.99508 34.1609 3.07612C34.1608 2.64702 33.9524 2.2405 33.6037 1.98932Z" fill="url(#paint0_linear_127_4725)"/>
<defs>
<linearGradient id="paint0_linear_127_4725" x1="0.839355" y1="21.5" x2="34.1609" y2="21.5" gradientUnits="userSpaceOnUse">
<stop stop-color="#C08450"/>
<stop offset="1" stop-color="#9E6439"/>
</linearGradient>
</defs>
</svg>
