<?xml version="1.0" encoding="utf-8"?>
<!-- Generator: Adobe Illustrator 27.1.0, SVG Export Plug-In . SVG Version: 6.00 Build 0)  -->
<svg version="1.1" id="Layer_1" xmlns="http://www.w3.org/2000/svg" xmlns:xlink="http://www.w3.org/1999/xlink" x="0px" y="0px"
	 viewBox="0 0 52.8 71.4" style="enable-background:new 0 0 52.8 71.4;" xml:space="preserve">
<style type="text/css">
	.st0{fill:#C7A27D;}
	.st1{clip-path:url(#SVGID_00000136406205064644080970000002560782980411684537_);}
</style>
<g>
	<path class="st0" d="M51.9,69.2v-67c0-0.6-0.5-1.2-1.2-1.2H2.2C1.5,1,1,1.5,1,2.2v67c0,0.6,0.5,1.2,1.2,1.2h48.5
		C51.3,70.4,51.9,69.8,51.9,69.2z M43.9,68h-8.2v-5.8c0-0.6-0.5-1.2-1.2-1.2H18.3c-0.6,0-1.2,0.5-1.2,1.2V68H9
		c-0.5-2.9-2.8-5.2-5.7-5.7V36.8h16.3c0.6,3.8,4.2,6.3,8,5.7c2.9-0.5,5.2-2.8,5.7-5.7h4c0.4,1.2,0.6,2.4,0.6,3.7
		c-1.8,0.7-2.7,2.7-2.1,4.5c0.7,1.8,2.7,2.7,4.5,2.1c1.8-0.7,2.7-2.7,2.1-4.5c-0.4-1-1.1-1.7-2.1-2.1c-0.1-1.2-0.3-2.5-0.6-3.7h9.9
		v25.5C46.6,62.9,44.4,65.1,43.9,68z M9,3.3h8.2v5.8c0,0.6,0.5,1.2,1.2,1.2h16.2c0.6,0,1.2-0.5,1.2-1.2V3.3h8.2
		c0.5,2.9,2.8,5.2,5.7,5.7v25.5H38.9c-2.8-7-9.6-11.5-17.1-11.6h-3l1.5-1.5l-1.6-1.6l-3.5,3.5c-0.5,0.5-0.5,1.2,0,1.6l3.5,3.5
		l1.6-1.6l-1.5-1.5h3c6.2,0,11.9,3.6,14.6,9.2h-3.1c-0.6-3.8-4.2-6.3-8-5.7c-2.9,0.5-5.2,2.8-5.7,5.7H3.3V9C6.2,8.5,8.5,6.2,9,3.3z
		 M22,34.5c0.6-2.5,3.1-4,5.6-3.3c1.6,0.4,2.9,1.7,3.3,3.3H22z M30.9,36.8c-0.6,2.5-3.1,4-5.6,3.3c-1.6-0.4-2.9-1.7-3.3-3.3H30.9z
		 M40.3,43.8c0,0.6-0.5,1.2-1.2,1.2c-0.6,0-1.2-0.5-1.2-1.2c0-0.6,0.5-1.2,1.2-1.2C39.8,42.6,40.3,43.1,40.3,43.8z M49.5,6.6
		c-1.6-0.4-2.9-1.7-3.3-3.3h3.3V6.6z M33.4,3.3v4.6H19.5V3.3H33.4z M6.6,3.3C6.2,4.9,4.9,6.2,3.3,6.6V3.3H6.6z M3.3,64.7
		c1.6,0.4,2.9,1.7,3.3,3.3H3.3V64.7z M19.5,68v-4.6h13.9V68H19.5z M46.2,68c0.4-1.6,1.7-2.9,3.3-3.3V68H46.2z"/>
	<path class="st0" d="M9.1,20.6c-1.9,0-3.5,1.6-3.5,3.5c0,1.9,1.6,3.5,3.5,3.5c1.9,0,3.5-1.6,3.5-3.5C12.6,22.2,11,20.6,9.1,20.6z
		 M9.1,25.3c-0.6,0-1.2-0.5-1.2-1.2c0-0.6,0.5-1.2,1.2-1.2c0.6,0,1.2,0.5,1.2,1.2C10.2,24.8,9.7,25.3,9.1,25.3z"/>
	<path class="st0" d="M6.4,14.5L7.9,13v5.3h2.3V13l1.5,1.5l1.6-1.6L9.9,9.4C9.5,9,8.7,9,8.3,9.4l-3.5,3.5L6.4,14.5z"/>
	<path class="st0" d="M42.6,14.2v6.7c-1.8,0.6-2.8,2.6-2.1,4.4c0.6,1.8,2.6,2.8,4.4,2.1c1.8-0.6,2.8-2.6,2.1-4.4
		c-0.3-1-1.1-1.8-2.1-2.1v-6.7l1.5,1.5l1.6-1.6l-3.5-3.5c-0.5-0.5-1.2-0.5-1.6,0l-3.5,3.5l1.6,1.6L42.6,14.2z M43.8,25.3
		c-0.6,0-1.2-0.5-1.2-1.2c0-0.6,0.5-1.2,1.2-1.2c0.6,0,1.2,0.5,1.2,1.2C44.9,24.8,44.4,25.3,43.8,25.3z"/>
	<path class="st0" d="M36,20.3l1.6-1.6L40,21l-1.6,1.6L36,20.3z"/>
	<path class="st0" d="M32.2,16.5l1.5,1.5l1.6-1.6l-1.5-1.5h1.8v-2.3h-4.6c-0.6,0-1.2,0.5-1.2,1.2v4.6h2.3V16.5z"/>
	<path class="st0" d="M23.3,48.7l-1.5,1.5l-1.5-1.5l-1.6,1.6l1.5,1.5l-1.5,1.5l1.6,1.6l1.5-1.5l1.5,1.5l1.6-1.6l-1.5-1.5l1.5-1.5
		L23.3,48.7z"/>
	<path class="st0" d="M27.1,49.7l2.3-1.2l1,2.1l-2.3,1.2L27.1,49.7z"/>
	<path class="st0" d="M31.7,47.4l2.3-1.2l1,2.1l-2.3,1.2L31.7,47.4z"/>
</g>
<g>
	<g>
		<defs>
			<rect id="SVGID_1_" x="-104.2" y="-22.2" width="85" height="85"/>
		</defs>
		<clipPath id="SVGID_00000024697520448221987440000002418731667541163922_">
			<use xlink:href="#SVGID_1_"  style="overflow:visible;"/>
		</clipPath>
		<g style="clip-path:url(#SVGID_00000024697520448221987440000002418731667541163922_);">
			<path class="st0" d="M-24.1,19.3h-29.5c-0.5,0-1-0.3-1.2-0.8s-0.1-1,0.3-1.4l6.8-6.3V2.3c0-2.7,2.2-4.9,4.9-4.9h18.7
				c2.7,0,4.9,2.2,4.9,4.9v12.1C-19.2,17.1-21.4,19.3-24.1,19.3z M-50.3,16.8H-24c1.3,0,2.3-1,2.3-2.3V2.4c0-1.3-1-2.3-2.3-2.3
				h-18.7c-1.3,0-2.3,1-2.3,2.3v9c0,0.4-0.1,0.7-0.4,0.9L-50.3,16.8z"/>
			<path class="st0" d="M-62.3-3.4h-2.9c-0.7,0-1.3-0.6-1.3-1.3S-65.9-6-65.2-6h2.9c0.7,0,1.3,0.6,1.3,1.3S-61.6-3.4-62.3-3.4z"/>
			<path class="st0" d="M-28.7,51.2h-70.1c-3,0-5.4-2.4-5.4-5.4v-2.6c0-0.7,0.6-1.3,1.3-1.3h36.4c0.7,0,1.3,0.6,1.3,1.3
				s-0.6,1.3-1.3,1.3h-35.2v1.3c0,1.6,1.3,2.9,2.9,2.9h70.1c1.6,0,2.9-1.3,2.9-2.9v-1.3h-35.1c-0.7,0-1.3-0.6-1.3-1.3
				s0.6-1.3,1.3-1.3h36.4c0.7,0,1.3,0.6,1.3,1.3v2.6C-23.2,48.8-25.7,51.2-28.7,51.2z"/>
			<path class="st0" d="M-66.6,44.5h-32.1c-0.7,0-1.3-0.6-1.3-1.3V-5.3c0-3,2.4-5.4,5.4-5.4H-33c3,0,5.4,2.4,5.4,5.4v4
				c0,0.7-0.6,1.3-1.3,1.3c-0.7,0-1.3-0.6-1.3-1.3v-4c0-1.6-1.3-2.9-2.9-2.9h-61.4c-1.6,0-2.9,1.3-2.9,2.9v47.2h30.9
				c0.7,0,1.3,0.6,1.3,1.3C-65.3,43.9-65.9,44.5-66.6,44.5z"/>
			<path class="st0" d="M-28.7,44.5h-32.2c-0.7,0-1.3-0.6-1.3-1.3s0.6-1.3,1.3-1.3H-30V18.1c0-0.7,0.6-1.3,1.3-1.3
				c0.7,0,1.3,0.6,1.3,1.3v25.1C-27.5,43.9-28.1,44.5-28.7,44.5z"/>
			<path class="st0" d="M-63.7,47.3c-2.3,0-4.1-1.8-4.1-4.1c0-0.7,0.6-1.3,1.3-1.3c0.7,0,1.3,0.6,1.3,1.3c0,0.9,0.7,1.6,1.6,1.6
				c0.9,0,1.6-0.7,1.6-1.6c0-0.7,0.6-1.3,1.3-1.3s1.3,0.6,1.3,1.3C-59.6,45.5-61.5,47.3-63.7,47.3z"/>
			<path class="st0" d="M-51.6,35.3c-0.7,0-1.3-0.6-1.3-1.3v-5.6c0-0.1,0-0.2,0-0.3V28c-0.3-1.7-1.9-5.5-8.8-5.5h-1.8
				c-0.1,0-0.2,0-0.3,0s-0.2,0-0.3,0h-1.8c-6.9,0-8.4,3.9-8.8,5.5v0.1c0,0.1,0,0.2,0,0.3V34c0,0.7-0.6,1.3-1.3,1.3
				c-0.7,0-1.3-0.6-1.3-1.3v-5.6c0-0.3,0-0.6,0.1-1c0.3-1.6,1.9-6.1,8.2-7.2c-0.9-1.1-1.4-2.4-1.4-3.9v-4.6c0-3.4,2.8-6.2,6.2-6.2
				h0.6c3.4,0,6.2,2.8,6.2,6.2v4.6c0,1.5-0.5,2.8-1.4,3.9c6.3,1.1,7.9,5.6,8.2,7.2c0.1,0.3,0.1,0.6,0.1,1V34
				C-50.3,34.8-50.9,35.3-51.6,35.3z M-64,8.1c-2,0-3.7,1.6-3.7,3.6v4.6c0,2,1.6,3.6,3.7,3.6c0.1,0,0.2,0,0.3,0s0.2,0,0.3,0
				c2,0,3.7-1.6,3.7-3.6v-4.6c0-2-1.6-3.6-3.7-3.6H-64z"/>
		</g>
	</g>
</g>
</svg>
