<svg width="218" height="60" viewBox="0 0 218 60" fill="none" xmlns="http://www.w3.org/2000/svg">
<path d="M80.7448 15.705L79.8535 14.8473V12.332H99.7652V14.8762L98.903 15.705H80.7448ZM87.7588 18.2203H91.86V32.9735H87.7588V18.2203Z" fill="black"/>
<path d="M105.888 24.2167V32.9663H101.729V12.332H105.888V21.0816H118.344V12.332H122.503V24.2167H105.888ZM122.503 26.732V32.9663H118.344V26.732H122.503Z" fill="black"/>
<path d="M124.959 32.9951V12.3032H143.357V14.8762L142.552 15.705H128.973V21.1465H140.473V24.2528H128.973V29.6005H143.357V32.1735L142.552 33.0023H124.959V32.9951Z" fill="black"/>
<path d="M153.755 15.705L152.863 14.8473V12.332H172.775V14.8762L171.913 15.705H153.755ZM160.769 18.2203H164.87V32.9735H160.769V18.2203Z" fill="black"/>
<path d="M194.94 15.705V21.4131H190.955V16.3897L190.303 15.741H179.6L178.948 16.3897V21.4131H174.934V15.705L178.289 12.368H191.607L194.933 15.705H194.94ZM194.94 23.8347V29.6581L191.585 32.9951H178.303L174.949 29.6581V23.8347H178.963V28.9518L179.615 29.6005H190.317L190.969 28.9518V23.8347H194.954H194.94Z" fill="black"/>
<path d="M197.969 32.9951V12.3032H214.671L217.996 15.6113V23.9789L214.671 27.287H201.983V32.9951H197.969ZM201.983 23.8924H213.366L213.989 23.2726V16.3248L213.366 15.705H201.983V23.8924Z" fill="black"/>
<path d="M80.5999 60.0005V39.3086H97.3016L100.628 42.6167V50.9843L97.3016 54.2924H84.6141V60.0005H80.5999ZM84.6141 50.8978H95.9974L96.6205 50.278V43.3302L95.9974 42.7104H84.6141V50.8978Z" fill="#C7A27D"/>
<path d="M103.598 60.0005V39.3086H107.613V56.5987H121.104V59.1717L120.3 60.0005H103.598Z" fill="#C7A27D"/>
<path d="M145.023 60.0005H141.103L139.763 54.9194H128.379L127.01 60.0005H123.09L125.38 51.3086H138.9L136.495 42.6456H127.669L128.589 39.2438H139.524L145.023 59.9933V60.0005Z" fill="#C7A27D"/>
<path d="M155.153 60.0005V51.2798L146.03 39.3086H150.284L157.182 47.9717L164.044 39.3086H168.297L159.174 51.2798V60.0005H155.16H155.153Z" fill="#C7A27D"/>
<path d="M170.065 60.0005V39.3086H188.462V41.8816L187.658 42.7104H174.079V48.1518H185.578V51.2581H174.079V56.6059H188.462V59.1789L187.658 60.0077H170.065V60.0005Z" fill="#C7A27D"/>
<path d="M207.389 53.6149H195.382V60.0005H191.368V39.3086H208.099L211.454 42.6455V50.3933L208.215 53.6149H207.381H207.389ZM195.382 50.4798H206.91L207.447 49.9753V43.3518L206.794 42.7032H195.382V50.4798ZM212.084 60.0005H207.773L204.86 56.0077H209.142L212.084 60.0005Z" fill="#C7A27D"/>
<path d="M9.01034 38.9915C9.93057 40.015 10.5102 41.0744 11.1479 41.7807C10.032 43.7267 8.85093 44.2816 7.51768 44.0294C6.10473 43.7555 4.96713 42.4294 4.90916 40.5771C4.88018 39.7339 5.02509 38.8906 5.17726 37.9537C5.32942 37.0168 5.05408 36.1591 4.43093 35.5105C2.105 33.0816 0.126868 30.1411 0.00368768 26.242C-0.0470336 24.6204 0.42395 23.1141 1.51083 21.824C12.6623 35.3519 25.1832 41.0961 41.5299 46.5663C39.8416 45.5717 33.1247 42.069 31.4436 41.0528C25.3064 37.3555 25.7628 37.615 20.0676 33.2546C15.3505 29.6438 10.6407 25.687 7.44522 20.6204C4.77149 16.3753 2.28614 9.97533 5.77142 5.53569C8.79296 1.68704 14.452 -0.0354826 19.1981 0.000553438C18.4155 0.000553438 17.2996 0.569923 16.5751 0.793346C16.2272 0.901454 15.8722 1.00236 15.5389 1.1465C13.7926 1.89605 11.8507 3.22217 11.2058 5.18974C10.6479 6.87623 11.2131 8.6492 12.0826 10.1267C14.4665 14.1627 18.0387 17.0456 21.6834 19.8204C27.4004 24.1735 33.6464 27.3735 39.9648 30.7825C46.2832 34.1915 44.6746 33.2762 50.8916 37.2546C54.4856 39.5537 57.9853 41.9897 61.3692 44.5915C63.5212 46.2492 65.5718 48.0942 67.3978 50.0979C69.5643 52.469 68.9411 54.5735 65.7674 55.3735C63.8255 55.8636 62.159 55.7411 60.1156 55.7411C58.9853 55.7411 57.8549 55.4744 56.7173 55.3231L56.6593 55.4961C57.5071 55.9933 58.3621 56.4834 59.2027 56.9735C58.2172 58.9411 56.3768 59.9861 54.7247 59.597C53.3045 59.2582 52.7248 58.2997 52.5944 55.7843C52.5582 55.078 52.0727 54.4798 51.3843 54.3069C48.3628 53.5501 45.5659 52.9519 42.1386 52.0582C43.2472 52.9375 44.0877 53.6006 44.921 54.2564C43.9066 56.1447 42.0879 57.0744 40.4648 56.5699C38.9214 56.1015 38.291 54.7321 38.4939 52.1591C38.5519 51.4528 38.1316 50.7897 37.4577 50.5447C37.4577 50.5447 19.6111 45.3051 9.01758 38.9699L9.01034 38.9915Z" fill="#C7A27D"/>
<path d="M35.313 14.6384H34.6754L34.6174 4.80054H35.2478L35.313 14.6384Z" fill="#C7A27D"/>
<path d="M53.2466 26.1339L52.906 25.579L62.5938 20.015L62.9343 20.57L53.2466 26.1339Z" fill="#C7A27D"/>
<path d="M46.3268 20.1807L45.7761 19.8924L50.486 11.2798L51.0366 11.5681L46.3268 20.1807Z" fill="#C7A27D"/>
<path d="M16.8288 5.37713C16.8288 5.37713 17.6693 1.99695 24.3428 2.19875C33.1248 2.45821 41.9068 5.46362 49.6382 9.38434C54.1741 11.6834 58.6593 14.1843 62.6084 17.3771C65.956 20.0798 69.6948 23.6618 70.6875 27.9501C72.115 34.0978 64.6734 34.8258 60.2752 34.4438C46.537 33.2546 27.7484 20.1735 27.7484 20.1735C27.7484 20.1735 22.2922 16.9303 24.8138 13.8961C27.3426 10.869 41.0156 14.9699 48.9209 21.3555C56.8334 27.7411 54.3191 30.0474 51.5366 30.9555C51.5366 30.9555 58.4275 33.5069 63.9199 31.6402C65.2531 31.1861 66.6153 30.3717 67.0863 29.0096C67.6298 27.4456 66.7965 26.0618 65.956 24.7429C63.5648 20.9952 59.7969 17.9249 56.1812 15.3303C52.138 12.4258 47.6891 10.069 43.0734 8.13749C40.0446 6.86902 36.9289 5.78073 33.7697 4.85101C30.7409 3.95731 27.5672 3.51767 24.408 3.55371C23.0385 3.56812 17.2635 3.52488 16.7998 5.39155L16.8288 5.37713Z" fill="#C7A27D"/>
<path d="M20.0024 13.2835C19.0242 11.7267 18.9083 9.52851 20.7487 8.54112C25.5021 5.98977 38.2766 10.3934 43.0154 12.7069C47.2687 14.7609 51.3119 17.1681 55.0798 19.9934C56.4855 21.0817 57.8695 22.1844 59.0578 23.5249C60.9707 25.7375 62.8546 29.7952 58.5578 30.5015C62.5141 29.4492 60.4418 25.997 58.5433 23.9718C57.3405 22.7609 55.9421 21.7159 54.5436 20.7141C48.8338 16.779 42.6748 13.3916 36.0956 11.1069C32.4219 9.8168 16.5824 4.73572 20.0169 13.2835H20.0024Z" fill="#C7A27D"/>
</svg>
