<svg width="217" height="60" viewBox="0 0 217 60" fill="none" xmlns="http://www.w3.org/2000/svg">
<path d="M79.3588 15.705L78.4651 14.8473V12.332H98.4328V14.8762L97.5681 15.705H79.3588ZM86.3926 18.2203H90.5053V32.9735H86.3926V18.2203Z" fill="white"/>
<path d="M104.573 24.2167V32.9663H100.402V12.332H104.573V21.0816H117.063V12.332H121.234V24.2167H104.573ZM121.234 26.732V32.9663H117.063V26.732H121.234Z" fill="white"/>
<path d="M123.698 32.9951V12.3032H142.147V14.8762L141.34 15.705H127.723V21.1465H139.255V24.2528H127.723V29.6005H142.147V32.1735L141.34 33.0023H123.698V32.9951Z" fill="white"/>
<path d="M152.574 15.705L151.68 14.8473V12.332H171.648V14.8762L170.783 15.705H152.574ZM159.608 18.2203H163.72V32.9735H159.608V18.2203Z" fill="white"/>
<path d="M193.875 15.7051V21.4132H189.879V16.3898L189.225 15.7411H178.493L177.839 16.3898V21.4132H173.813V15.7051L177.178 12.3682H190.533L193.868 15.7051H193.875ZM193.875 23.8348V29.6583L190.511 32.9952H177.192L173.828 29.6583V23.8348H177.853V28.9519L178.507 29.6006H189.24L189.893 28.9519V23.8348H193.89H193.875Z" fill="white"/>
<path d="M196.913 32.9951V12.3032H213.661L216.997 15.6113V23.9789L213.661 27.287H200.938V32.9951H196.913ZM200.938 23.8924H212.353L212.978 23.2726V16.3248L212.353 15.705H200.938V23.8924Z" fill="white"/>
<path d="M79.2136 60.0005V39.3086H95.9624L99.2976 42.6167V50.9843L95.9624 54.2924H83.2391V60.0005H79.2136ZM83.2391 50.8978H94.6544L95.2793 50.278V43.3302L94.6544 42.7104H83.2391V50.8978Z" fill="#C7A27D"/>
<path d="M102.277 60.0005V39.3086H106.302V56.5987H119.832V59.1717L119.025 60.0005H102.277Z" fill="#C7A27D"/>
<path d="M143.818 60.0004H139.887L138.543 54.9193H127.127L125.754 60.0004H121.823L124.119 51.3085H137.678L135.266 42.6455H126.415L127.338 39.2437H138.303L143.818 59.9932V60.0004Z" fill="#C7A27D"/>
<path d="M153.976 60.0005V51.2798L144.828 39.3086H149.093L156.011 47.9717L162.892 39.3086H167.157L158.009 51.2798V60.0005H153.983H153.976Z" fill="#C7A27D"/>
<path d="M168.938 60.0005V39.3086H187.387V41.8816L186.58 42.7104H172.963V48.1518H184.495V51.2581H172.963V56.6059H187.387V59.1789L186.58 60.0077H168.938V60.0005Z" fill="#C7A27D"/>
<path d="M206.366 53.6149H194.326V60.0005H190.3V39.3086H207.078L210.442 42.6455V50.3933L207.194 53.6149H206.359H206.366ZM194.326 50.4798H205.886L206.424 49.9753V43.3518L205.77 42.7032H194.326V50.4798ZM211.075 60.0005H206.751L203.83 56.0077H208.124L211.075 60.0005Z" fill="#C7A27D"/>
<path d="M9.03568 38.9915C9.95849 40.015 10.5398 41.0744 11.1792 41.7807C10.0602 43.7267 8.87582 44.2816 7.53882 44.0294C6.1219 43.7555 4.9811 42.4294 4.92297 40.5771C4.8939 39.7339 5.03923 38.8906 5.19182 37.9537C5.34441 37.0168 5.06829 36.1591 4.44339 35.5105C2.11092 33.0816 0.127225 30.1411 0.00369805 26.242C-0.0471659 24.6204 0.425142 23.1141 1.51508 21.824C12.6979 35.3519 25.254 41.0961 41.6467 46.5663C39.9537 45.5717 33.2178 42.069 31.5321 41.0528C25.3775 37.3555 25.8353 37.615 20.124 33.2546C15.3937 29.6438 10.6706 25.687 7.46616 20.6204C4.78491 16.3753 2.29257 9.97533 5.78765 5.53569C8.81769 1.68704 14.4926 -0.0354826 19.2521 0.000553438C18.4673 0.000553438 17.3483 0.569923 16.6217 0.793346C16.2729 0.901454 15.9168 1.00236 15.5826 1.1465C13.8314 1.89605 11.8841 3.22217 11.2374 5.18974C10.6779 6.87623 11.2446 8.6492 12.1166 10.1267C14.5072 14.1627 18.0895 17.0456 21.7444 19.8204C27.4775 24.1735 33.741 27.3735 40.0772 30.7825C46.4134 34.1915 44.8003 33.2762 51.0347 37.2546C54.6388 39.5537 58.1484 41.9897 61.5418 44.5915C63.6999 46.2492 65.7562 48.0942 67.5873 50.0979C69.7599 52.469 69.135 54.5735 65.9524 55.3735C64.005 55.8636 62.3338 55.7411 60.2847 55.7411C59.1512 55.7411 58.0176 55.4744 56.8768 55.3231L56.8187 55.4961C57.6688 55.9933 58.5263 56.4834 59.3691 56.9735C58.3809 58.9411 56.5353 59.9861 54.8786 59.597C53.4544 59.2582 52.8731 58.2997 52.7423 55.7843C52.706 55.078 52.2191 54.4798 51.5288 54.3069C48.4988 53.5501 45.694 52.9519 42.2571 52.0582C43.3688 52.9375 44.2117 53.6006 45.0473 54.2564C44.03 56.1447 42.2062 57.0744 40.5786 56.5699C39.0309 56.1015 38.3987 54.7321 38.6021 52.1591C38.6603 51.4528 38.2388 50.7897 37.5631 50.5447C37.5631 50.5447 19.6662 45.3051 9.04294 38.9699L9.03568 38.9915Z" fill="#C7A27D"/>
<path d="M35.4122 14.6386H34.7727L34.7146 4.80078H35.3468L35.4122 14.6386Z" fill="#C7A27D"/>
<path d="M53.3962 26.1336L53.0547 25.5786L62.7697 20.0146L63.1112 20.5696L53.3962 26.1336Z" fill="#C7A27D"/>
<path d="M46.457 20.1807L45.9048 19.8924L50.6279 11.2798L51.1801 11.5681L46.457 20.1807Z" fill="#C7A27D"/>
<path d="M16.876 5.37701C16.876 5.37701 17.7189 1.99683 24.4111 2.19863C33.2178 2.45809 42.0246 5.4635 49.7777 9.38422C54.3264 11.6833 58.8242 14.1842 62.7843 17.377C66.1413 20.0797 69.8907 23.6617 70.8862 27.95C72.3177 34.0977 64.8552 34.8257 60.4446 34.4437C46.6677 33.2545 27.8263 20.1734 27.8263 20.1734C27.8263 20.1734 22.3548 16.9302 24.8834 13.8959C27.4194 10.8689 41.1308 14.9698 49.0583 21.3554C56.9931 27.741 54.4717 30.0473 51.6814 30.9554C51.6814 30.9554 58.5917 33.5067 64.0995 31.6401C65.4365 31.186 66.8026 30.3716 67.2749 29.0094C67.8198 27.4455 66.9842 26.0617 66.1413 24.7428C63.7435 20.995 59.965 17.9248 56.3391 15.3302C52.2845 12.4257 47.823 10.0689 43.1944 8.13737C40.1571 6.8689 37.0326 5.78061 33.8645 4.85088C30.8272 3.95719 27.6446 3.51755 24.4765 3.55359C23.1032 3.568 17.312 3.52476 16.8469 5.39142L16.876 5.37701Z" fill="#C7A27D"/>
<path d="M20.0586 13.2835C19.0776 11.7267 18.9614 9.52851 20.807 8.54112C25.5737 5.98977 38.3841 10.3934 43.1363 12.7069C47.4016 14.7609 51.4562 17.1681 55.2346 19.9934C56.6443 21.0817 58.0321 22.1844 59.2238 23.5249C61.1421 25.7375 63.0313 29.7952 58.7224 30.5015C62.6898 29.4492 60.6117 25.997 58.7079 23.9718C57.5017 22.7609 56.0993 21.7159 54.6969 20.7141C48.9711 16.779 42.7948 13.3916 36.197 11.1069C32.513 9.8168 16.6289 4.73572 20.0731 13.2835H20.0586Z" fill="#C7A27D"/>
</svg>
