<?xml version="1.0" encoding="utf-8"?>
<!-- Generator: Adobe Illustrator 27.1.0, SVG Export Plug-In . SVG Version: 6.00 Build 0)  -->
<svg version="1.1" id="Layer_1" xmlns="http://www.w3.org/2000/svg" xmlns:xlink="http://www.w3.org/1999/xlink" x="0px" y="0px"
	 viewBox="0 0 68.9 33.7" style="enable-background:new 0 0 68.9 33.7;" xml:space="preserve">
<style type="text/css">
	.st0{fill:#C7A27D;}
</style>
<g>
	<path class="st0" d="M10.1-7.4L0,1.5c0.4,5.7,2.2,11.2,5.2,16l13.4,1.3l5.5-7.6L19.9-4.2L10.1-7.4z"/>
	<path class="st0" d="M61.8,20.2l-11.3,1.1L46,31.7C52.3,29.5,57.8,25.5,61.8,20.2z"/>
	<path class="st0" d="M42.5,10.3l4.1-15l-12.1-8.2L22.4-4.7l4.1,15H42.5z"/>
	<path class="st0" d="M48.3,20.3l-5.5-7.5H26.1l-5.5,7.5L26,32.7c5.5,1.4,11.3,1.4,16.8,0L48.3,20.3z"/>
	<path class="st0" d="M22.9,31.7l-4.5-10.4L7.1,20.2C11.1,25.5,16.6,29.5,22.9,31.7z"/>
	<path class="st0" d="M68.9,1.5L58.8-7.4L49-4.2l-4.2,15.5l5.5,7.6l13.4-1.3C66.7,12.7,68.5,7.2,68.9,1.5z"/>
</g>
</svg>
