<svg width="36" height="36" viewBox="0 0 36 36" fill="none" xmlns="http://www.w3.org/2000/svg">
<g id="svgexport-17 (22) 1" clip-path="url(#clip0_122_28072)">
<g id="Group">
<path id="Vector" d="M11.9739 21.7557H11.3649C11.2208 21.7557 11.0826 21.6984 10.9807 21.5965C10.8788 21.4946 10.8215 21.3564 10.8215 21.2123C10.8215 21.0682 10.8788 20.93 10.9807 20.8281C11.0826 20.7262 11.2208 20.6689 11.3649 20.6689H11.9739C12.0904 20.6688 12.202 20.6225 12.2844 20.5401C12.3667 20.4578 12.4131 20.3461 12.4132 20.2297C12.4135 20.148 12.3909 20.068 12.348 19.9985C12.3051 19.9291 12.2436 19.8731 12.1705 19.8368L7.85526 17.677C5.86893 16.6829 4.20203 15.1586 3.03463 13.2689C1.86724 11.3791 1.25024 9.20621 1.25024 6.98504V6.13383C1.25024 5.15192 2.04906 4.35303 3.03105 4.35303H9.47013C9.61424 4.35303 9.75245 4.41028 9.85435 4.51218C9.95625 4.61408 10.0135 4.75229 10.0135 4.8964C10.0135 5.04051 9.95625 5.17872 9.85435 5.28063C9.75245 5.38253 9.61424 5.43978 9.47013 5.43978H3.03098C2.64827 5.43978 2.33692 5.75112 2.33692 6.13383V6.98504C2.33692 9.00434 2.89788 10.9798 3.95917 12.6977C5.01939 14.4147 6.53695 15.8024 8.34168 16.7052L12.6569 18.865C13.1769 19.1253 13.4999 19.6482 13.4999 20.2296C13.4999 21.0711 12.8154 21.7557 11.9739 21.7557ZM24.6348 21.7557H24.0258C23.1844 21.7557 22.4998 21.0711 22.4998 20.2297C22.4998 19.6482 22.8228 19.1253 23.3428 18.865L27.6581 16.7052C29.4628 15.8024 30.9804 14.4147 32.0406 12.6977C33.1014 10.9811 33.6632 9.00298 33.6628 6.98504V6.13383C33.6628 5.75112 33.3515 5.43978 32.9688 5.43978H26.5297C26.3856 5.43978 26.2474 5.38253 26.1455 5.28063C26.0436 5.17872 25.9863 5.04051 25.9863 4.8964C25.9863 4.75229 26.0436 4.61408 26.1455 4.51218C26.2474 4.41028 26.3856 4.35303 26.5297 4.35303H32.9688C33.9507 4.35303 34.7496 5.15185 34.7496 6.13383V6.98504C34.75 9.20472 34.1321 11.3807 32.9652 13.2689C31.799 15.1575 30.1297 16.6839 28.1446 17.677L23.8293 19.8368C23.7563 19.873 23.6948 19.9291 23.6519 19.9985C23.609 20.0679 23.5864 20.148 23.5867 20.2296C23.5868 20.3461 23.6332 20.4577 23.7155 20.5401C23.7979 20.6224 23.9095 20.6687 24.026 20.6688H24.635C24.7791 20.6689 24.9173 20.7261 25.0192 20.8281C25.1211 20.93 25.1783 21.0682 25.1783 21.2123C25.1783 21.3565 25.121 21.4947 25.0191 21.5966C24.9171 21.6985 24.7789 21.7557 24.6348 21.7557Z" fill="url(#paint0_linear_122_28072)"/>
<path id="Vector_2" d="M19.856 23.9139V21.5498H16.1436V23.9139C16.1436 24.4267 16.0011 24.9294 15.732 25.366C15.4629 25.8025 15.0777 26.1557 14.6196 26.3861L14.2464 26.5737C13.9004 26.7477 13.6095 27.0144 13.4063 27.344C13.2031 27.6737 13.0955 28.0534 13.0955 28.4406V31.2083H22.9043V28.4406C22.9043 28.0534 22.7966 27.6737 22.5934 27.344C22.3902 27.0144 22.0993 26.7477 21.7533 26.5737L21.3802 26.3861C20.922 26.1557 20.5368 25.8026 20.2677 25.366C19.9985 24.9295 19.856 24.4267 19.856 23.9139Z" fill="url(#paint1_linear_122_28072)"/>
<path id="Vector_3" d="M21.7534 26.5737L21.3802 26.3861C20.922 26.1557 20.5369 25.8026 20.2678 25.366C19.9986 24.9295 19.8561 24.4267 19.8561 23.9139V21.5498H17.9999V31.2083H22.9043V28.4406C22.9043 28.0534 22.7967 27.6737 22.5935 27.344C22.3902 27.0144 22.0994 26.7477 21.7534 26.5737Z" fill="url(#paint2_linear_122_28072)"/>
<path id="Vector_4" d="M17.9999 23.5531C13.4946 21.7498 10.4107 17.5369 10.0532 12.6973L9.2229 1.45801H26.7769L25.9467 12.6973C25.589 17.5369 22.5051 21.7498 17.9999 23.5531Z" fill="url(#paint3_linear_122_28072)"/>
<path id="Vector_5" d="M23.2885 1.45801L22.4582 12.6973C22.2029 16.1528 20.5575 20.6218 17.9973 23.5521L17.9998 23.5531C22.5051 21.7498 25.589 17.5369 25.9466 12.6973L26.7769 1.45801H23.2885Z" fill="url(#paint4_linear_122_28072)"/>
<path id="Vector_6" d="M27.5982 2.49504H8.4015C8.22211 2.49504 8.05006 2.42377 7.92321 2.29692C7.79636 2.17007 7.7251 1.99803 7.7251 1.81863V0.676406C7.7251 0.497012 7.79636 0.324966 7.92321 0.198115C8.05006 0.071264 8.22211 0 8.4015 0L27.5982 0C27.7776 0 27.9497 0.071264 28.0765 0.198115C28.2034 0.324966 28.2746 0.497012 28.2746 0.676406V1.81856C28.2747 2.19213 27.9718 2.49504 27.5982 2.49504Z" fill="url(#paint5_linear_122_28072)"/>
<path id="Vector_7" d="M27.5983 1.24293H8.40157C8.04657 1.24293 7.75604 0.969348 7.72791 0.621582C7.72643 0.639793 7.7251 0.658074 7.7251 0.676637V1.81879C7.7251 1.99819 7.79636 2.17023 7.92321 2.29708C8.05006 2.42393 8.22211 2.4952 8.4015 2.4952H27.5982C27.7776 2.4952 27.9497 2.42393 28.0765 2.29708C28.2034 2.17023 28.2746 1.99819 28.2746 1.81879V0.676637C28.2746 0.658074 28.2733 0.639793 28.2718 0.621582C28.2438 0.969348 27.9533 1.24293 27.5983 1.24293Z" fill="url(#paint6_linear_122_28072)"/>
<path id="Vector_8" d="M26.5661 34.0689H9.43372V30.9648C9.43372 29.9406 10.264 29.1104 11.2881 29.1104H24.7118C25.736 29.1104 26.5663 29.9406 26.5663 30.9648V34.0689H26.5661Z" fill="url(#paint7_linear_122_28072)"/>
<path id="Vector_9" d="M24.7118 29.1104H22.7706V31.3019C22.7706 32.0631 22.1535 32.6803 21.3921 32.6803H9.43372V34.0689H26.5661V30.9648C26.5661 29.9406 25.7359 29.1104 24.7118 29.1104Z" fill="url(#paint8_linear_122_28072)"/>
<path id="Vector_10" d="M28.0331 36.0001H7.96651C7.91041 36.0001 7.85662 35.9778 7.81695 35.9382C7.77729 35.8985 7.755 35.8447 7.755 35.7886V33.8873C7.755 33.8312 7.77729 33.7774 7.81695 33.7377C7.85662 33.6981 7.91041 33.6758 7.96651 33.6758H28.0331C28.0892 33.6758 28.143 33.6981 28.1827 33.7377C28.2223 33.7774 28.2446 33.8312 28.2446 33.8873V35.7886C28.2446 35.8447 28.2223 35.8985 28.1827 35.9382C28.143 35.9778 28.0892 36.0001 28.0331 36.0001Z" fill="url(#paint9_linear_122_28072)"/>
<path id="Vector_11" d="M20.2461 24.1989H15.7536C15.193 24.1989 14.7385 23.7444 14.7385 23.1838V22.8564C14.7385 22.2958 15.193 21.8413 15.7536 21.8413H20.2461C20.8067 21.8413 21.2612 22.2958 21.2612 22.8564V23.1838C21.2612 23.7445 20.8067 24.1989 20.2461 24.1989Z" fill="url(#paint10_linear_122_28072)"/>
<path id="Vector_12" d="M20.2461 23.0201H15.7536C15.3453 23.0201 14.9941 22.7784 14.833 22.4307C14.7709 22.564 14.7386 22.7093 14.7385 22.8563V23.1837C14.7385 23.7443 15.193 24.1988 15.7536 24.1988H20.2461C20.8067 24.1988 21.2612 23.7443 21.2612 23.1837V22.8563C21.2612 22.7041 21.2268 22.5602 21.1667 22.4307C21.0056 22.7784 20.6545 23.0201 20.2461 23.0201Z" fill="url(#paint11_linear_122_28072)"/>
<path id="Vector_13" d="M18.1668 5.20794L19.4246 8.6811L23.1165 8.80408C23.2825 8.80963 23.3508 9.01965 23.2198 9.12175L20.3053 11.3913L21.3292 14.9405C21.3753 15.1001 21.1965 15.2299 21.059 15.1368L17.9998 13.0663L14.9407 15.1368C14.8032 15.2299 14.6245 15.1001 14.6705 14.9405L15.6944 11.3913L12.78 9.12175C12.6489 9.01972 12.7172 8.80963 12.8832 8.80408L16.5751 8.6811L17.8329 5.20794C17.8894 5.05178 18.1103 5.05178 18.1668 5.20794Z" fill="#F2EBDA"/>
<path id="Vector_14" d="M28.0331 33.6758H24.4491V34.4272C24.4491 34.8713 24.0891 35.2313 23.645 35.2313H7.96651C7.91041 35.2313 7.85662 35.209 7.81695 35.1694C7.77729 35.1297 7.755 35.0759 7.755 35.0198V35.7886C7.755 35.8447 7.77729 35.8985 7.81695 35.9382C7.85662 35.9778 7.91041 36.0001 7.96651 36.0001H28.0331C28.0892 36.0001 28.143 35.9778 28.1827 35.9382C28.2223 35.8985 28.2446 35.8447 28.2446 35.7886V33.8873C28.2446 33.8312 28.2223 33.7774 28.1827 33.7377C28.143 33.6981 28.0892 33.6758 28.0331 33.6758Z" fill="url(#paint12_linear_122_28072)"/>
</g>
</g>
<defs>
<linearGradient id="paint0_linear_122_28072" x1="18.3646" y1="-4.04563" x2="15.3258" y2="21.4368" gradientUnits="userSpaceOnUse">
<stop stop-color="#DADADA"/>
<stop offset="1" stop-color="#B0A194"/>
</linearGradient>
<linearGradient id="paint1_linear_122_28072" x1="18.1066" y1="16.8885" x2="15.022" y2="30.5352" gradientUnits="userSpaceOnUse">
<stop stop-color="#DADADA"/>
<stop offset="1" stop-color="#B0A194"/>
</linearGradient>
<linearGradient id="paint2_linear_122_28072" x1="20.5055" y1="16.8885" x2="15.1214" y2="28.7984" gradientUnits="userSpaceOnUse">
<stop stop-color="#DADADA"/>
<stop offset="1" stop-color="#B0A194"/>
</linearGradient>
<linearGradient id="paint3_linear_122_28072" x1="18.191" y1="-9.2053" x2="9.44039" y2="21.08" gradientUnits="userSpaceOnUse">
<stop stop-color="#DADADA"/>
<stop offset="1" stop-color="#B0A194"/>
</linearGradient>
<linearGradient id="paint4_linear_122_28072" x1="22.4827" y1="-9.2053" x2="8.26951" y2="15.3973" gradientUnits="userSpaceOnUse">
<stop stop-color="#DADADA"/>
<stop offset="1" stop-color="#B0A194"/>
</linearGradient>
<linearGradient id="paint5_linear_122_28072" x1="18.2236" y1="-1.20413" x2="18.1204" y2="2.4984" gradientUnits="userSpaceOnUse">
<stop stop-color="#DADADA"/>
<stop offset="1" stop-color="#B0A194"/>
</linearGradient>
<linearGradient id="paint6_linear_122_28072" x1="18.2236" y1="-0.282642" x2="18.1654" y2="2.49866" gradientUnits="userSpaceOnUse">
<stop stop-color="#DADADA"/>
<stop offset="1" stop-color="#B0A194"/>
</linearGradient>
<linearGradient id="paint7_linear_122_28072" x1="18.1865" y1="26.7173" x2="17.6994" y2="34.0489" gradientUnits="userSpaceOnUse">
<stop stop-color="#DADADA"/>
<stop offset="1" stop-color="#B0A194"/>
</linearGradient>
<linearGradient id="paint8_linear_122_28072" x1="18.1864" y1="26.7173" x2="17.6993" y2="34.049" gradientUnits="userSpaceOnUse">
<stop stop-color="#DADADA"/>
<stop offset="1" stop-color="#B0A194"/>
</linearGradient>
<linearGradient id="paint9_linear_122_28072" x1="18.2229" y1="32.554" x2="18.1331" y2="36.0036" gradientUnits="userSpaceOnUse">
<stop stop-color="#DADADA"/>
<stop offset="1" stop-color="#B0A194"/>
</linearGradient>
<linearGradient id="paint10_linear_122_28072" x1="18.0709" y1="20.7035" x2="17.7824" y2="24.1808" gradientUnits="userSpaceOnUse">
<stop stop-color="#DADADA"/>
<stop offset="1" stop-color="#B0A194"/>
</linearGradient>
<linearGradient id="paint11_linear_122_28072" x1="18.0709" y1="21.5773" x2="17.9081" y2="24.1931" gradientUnits="userSpaceOnUse">
<stop stop-color="#DADADA"/>
<stop offset="1" stop-color="#B0A194"/>
</linearGradient>
<linearGradient id="paint12_linear_122_28072" x1="18.2229" y1="32.554" x2="18.1331" y2="36.0036" gradientUnits="userSpaceOnUse">
<stop stop-color="#DADADA"/>
<stop offset="1" stop-color="#B0A194"/>
</linearGradient>
<clipPath id="clip0_122_28072">
<rect width="36" height="36" fill="white"/>
</clipPath>
</defs>
</svg>
