<svg width="117" height="37" viewBox="0 0 117 37" fill="none" xmlns="http://www.w3.org/2000/svg">
<g id="Group 141">
<path id="Fill 122" fill-rule="evenodd" clip-rule="evenodd" d="M29.6905 24.458C28.9341 24.424 28.2443 24.4431 28.1577 24.5021C27.8165 24.7338 28.0682 24.9447 28.5757 24.8523C28.8711 24.7973 29.4445 24.7736 29.8509 24.7988C30.2568 24.8241 30.696 24.7716 30.8273 24.683C30.9742 24.5834 30.5357 24.4971 29.6905 24.458Z" fill="url(#paint0_linear_122_27610)"/>
<path id="Fill 123" fill-rule="evenodd" clip-rule="evenodd" d="M60.713 21.6312C60.7026 21.5384 60.3406 21.5021 59.9081 21.5502C59.4756 21.5983 59.1292 21.7134 59.1395 21.8063C59.1498 21.8986 59.513 21.9348 59.9455 21.8867C60.378 21.8386 60.7232 21.7236 60.713 21.6312Z" fill="url(#paint1_linear_122_27610)"/>
<path id="Fill 124" fill-rule="evenodd" clip-rule="evenodd" d="M40.8936 21.8531C41.0595 21.6759 40.8109 21.46 40.4828 21.4965C40.3261 21.5139 40.2118 21.6417 40.2273 21.7808C40.2555 22.0346 40.6804 22.0803 40.8936 21.8531Z" fill="url(#paint2_linear_122_27610)"/>
<path id="Fill 125" fill-rule="evenodd" clip-rule="evenodd" d="M20.0765 25.7181C18.9319 25.9574 18.414 26.2051 18.7714 26.3452C18.8668 26.3819 19.6371 26.3902 20.4829 26.3635C22.0918 26.313 22.3116 26.1883 21.6195 25.717C21.3232 25.5157 21.0434 25.517 20.0765 25.7181Z" fill="url(#paint3_linear_122_27610)"/>
<path id="Fill 126" fill-rule="evenodd" clip-rule="evenodd" d="M42.4973 21.6139C42.4199 21.529 42.2347 21.4725 42.0852 21.4891C41.9362 21.5057 41.7673 21.6016 41.7105 21.7014C41.6524 21.805 41.8296 21.8588 42.1226 21.8262C42.4163 21.7935 42.5768 21.7022 42.4973 21.6139Z" fill="url(#paint4_linear_122_27610)"/>
<path id="Fill 127" fill-rule="evenodd" clip-rule="evenodd" d="M55.9791 22.521C56.1505 22.4146 56.5369 22.368 56.8794 22.4126C57.3518 22.4747 57.5942 22.402 58.0179 22.0743C58.8443 21.4367 58.3908 21.3551 56.3372 21.7716C55.3271 21.978 54.2836 22.1706 54.0186 22.2026C53.6741 22.243 53.6034 22.3033 53.7697 22.4163C54.1311 22.6629 55.6382 22.7342 55.9791 22.521Z" fill="url(#paint5_linear_122_27610)"/>
<path id="Fill 128" fill-rule="evenodd" clip-rule="evenodd" d="M34.1688 24.5839C34.1585 24.491 33.9287 24.44 33.6582 24.4701C33.3882 24.5001 33.1754 24.6003 33.1857 24.6932C33.196 24.7856 33.4257 24.8366 33.6956 24.8066C33.9662 24.7765 34.1791 24.6763 34.1688 24.5839Z" fill="url(#paint6_linear_122_27610)"/>
<path id="Fill 129" fill-rule="evenodd" clip-rule="evenodd" d="M23.4615 24.3613C22.6807 24.3942 21.6945 24.3837 21.2689 24.3375C19.6582 24.1611 17.4529 24.0452 16.5454 24.0891C16.0266 24.1123 15.4846 24.0724 15.3407 23.9985C15.1968 23.9256 14.9189 23.8353 14.7231 23.798C14.5275 23.7622 14.3535 23.6073 14.3368 23.4566C14.3142 23.2541 14.2181 23.2267 13.9769 23.3533C13.3494 23.6846 12.426 23.6558 11.0628 23.2633C10.31 23.0459 9.68507 22.7953 9.67507 22.7054C9.66508 22.6156 9.52459 22.5567 9.36202 22.5748C9.20005 22.5928 9.07979 22.7213 9.09526 22.8604C9.13066 23.1786 8.9173 23.2044 8.39632 22.9433C8.16548 22.8281 8.0939 22.7246 8.23239 22.7061C8.36738 22.6885 8.46385 22.5514 8.44731 22.4027C8.42303 22.1844 8.55237 22.1377 9.10188 22.1639C10.1159 22.2135 10.1145 21.8935 9.09915 21.4104C8.13711 20.9532 7.35305 20.9782 7.50594 21.4617C7.63939 21.8893 6.96501 21.896 6.23526 21.4751C5.48819 21.0444 5.11232 21.0564 5.16274 21.5096C5.18335 21.6949 5.28852 21.8358 5.3965 21.8238C5.50507 21.8117 5.60195 21.878 5.61239 21.9719C5.63108 22.1399 5.57031 22.1282 4.35738 21.7482C4.10973 21.671 3.64168 21.5725 3.31692 21.531C2.82622 21.4664 2.71617 21.5084 2.66436 21.7824C2.61173 22.0652 2.53123 22.0922 2.09613 21.9766C1.69187 21.8685 1.55719 21.8943 1.43583 22.1046C1.21707 22.4814 1.30187 22.9575 1.59899 23.0206C1.73934 23.0512 1.90092 23.3482 1.95923 23.6834C2.1013 24.5016 2.54413 24.8054 3.07078 24.4426C3.38392 24.2284 3.51185 24.2121 3.73158 24.3624C3.95239 24.5115 3.95586 24.5805 3.75147 24.7194C3.45941 24.9178 3.68144 25.2508 4.07658 25.2068C4.22313 25.1905 4.36635 25.0903 4.39487 24.9849C4.4541 24.7614 6.46393 25.0265 6.98818 25.3279C7.16822 25.4292 7.50722 25.4475 7.74217 25.3674C8.0679 25.2556 8.14904 25.2831 8.08441 25.485C7.9822 25.8026 9.11751 25.9276 10.2676 25.7267C10.6746 25.6542 11.1229 25.6557 11.263 25.7275C11.4037 25.7992 11.972 25.9076 12.5258 25.9678C13.0803 26.0279 13.6254 26.1327 13.7367 26.1999C13.8482 26.2677 14.1977 26.2941 14.5139 26.2589C15.0022 26.2046 15.0479 26.1615 14.8158 25.97C14.6657 25.8464 14.3789 25.7632 14.1784 25.7855C13.9772 25.8078 13.6484 25.6538 13.4459 25.4425C13.0225 25.0004 12.2358 24.8886 10.1349 24.9707C9.32208 25.002 8.6028 24.9777 8.53585 24.9158C8.29626 24.6896 7.2554 24.512 6.60218 24.5847C6.23492 24.6255 5.8703 24.5875 5.79092 24.5002C5.71213 24.4129 5.50106 24.3783 5.32292 24.4238C5.10922 24.4789 4.96127 24.3746 4.88877 24.117C4.71301 23.4927 5.01665 23.366 6.00526 23.6516C6.54645 23.8083 7.43662 23.884 8.20466 23.8391C10.0169 23.7321 11.6253 23.86 12.1248 24.1497C12.3951 24.3067 13.0007 24.3724 13.7877 24.3306C14.6123 24.2871 15.1181 24.347 15.3007 24.5086C15.4625 24.6509 15.9847 24.7393 16.5672 24.7223C17.1137 24.7052 18.5469 24.7112 19.7546 24.7366C20.9615 24.7601 22.1917 24.7492 22.4885 24.7126C22.8528 24.6669 23.0377 24.7306 23.0575 24.9088C23.0807 25.1174 23.2216 25.1362 23.715 24.9985C24.4897 24.7813 25.0546 24.6275 25.3089 24.5643C25.8412 24.4306 24.7143 24.3062 23.4615 24.3613Z" fill="url(#paint7_linear_122_27610)"/>
<path id="Fill 130" fill-rule="evenodd" clip-rule="evenodd" d="M14.9271 24.7375C14.7867 24.7064 14.5654 24.731 14.4352 24.7923C14.3052 24.8545 14.4204 24.8802 14.6909 24.8501C14.9609 24.8201 15.067 24.7698 14.9271 24.7375Z" fill="url(#paint8_linear_122_27610)"/>
<path id="Fill 131" fill-rule="evenodd" clip-rule="evenodd" d="M36.7086 26.0904C35.4655 26.3792 35.4168 26.8271 36.643 26.6948C37.2686 26.6272 37.4099 26.6552 37.2033 26.8066C37.005 26.9515 37.2591 26.9633 38.1036 26.8498C38.8321 26.7513 39.401 26.5796 39.5959 26.3982C39.7702 26.2375 39.9056 26.0508 39.8981 25.9833C39.8756 25.7808 37.7333 25.8536 36.7086 26.0904Z" fill="url(#paint9_linear_122_27610)"/>
<path id="Fill 132" fill-rule="evenodd" clip-rule="evenodd" d="M34.186 26.2318C33.3627 26.0223 32.7838 26.0297 32.2825 26.2586C31.7538 26.4998 32.21 26.6752 33.1082 26.5753C33.5888 26.5218 33.9899 26.5532 34.0003 26.6466C34.0105 26.7385 34.2408 26.7894 34.5108 26.7594C35.2228 26.6802 35.0887 26.4634 34.186 26.2318Z" fill="url(#paint10_linear_122_27610)"/>
<path id="Fill 133" fill-rule="evenodd" clip-rule="evenodd" d="M40.9102 26.1328C41.0118 26.063 41.0906 25.973 41.0861 25.9324C41.0816 25.8913 40.9901 25.8681 40.8821 25.8801C40.7735 25.8922 40.694 25.9822 40.7049 26.0801C40.7158 26.1776 40.808 26.2023 40.9102 26.1328Z" fill="url(#paint11_linear_122_27610)"/>
<path id="Fill 134" fill-rule="evenodd" clip-rule="evenodd" d="M23.5902 25.9207C23.1768 26.1681 23.0657 26.6003 23.4711 26.3835C23.6004 26.3147 23.8619 26.1926 24.0511 26.1119C24.2714 26.0186 24.3217 25.9143 24.1898 25.8252C24.058 25.7361 23.8413 25.7699 23.5902 25.9207Z" fill="url(#paint12_linear_122_27610)"/>
<path id="Fill 135" fill-rule="evenodd" clip-rule="evenodd" d="M33.0087 14.1544C32.9985 14.0626 32.8132 14.0056 32.5966 14.0297C32.3806 14.0537 32.2118 14.1501 32.222 14.2419C32.2323 14.3343 32.4181 14.3907 32.6341 14.3667C32.8506 14.3426 33.019 14.2468 33.0087 14.1544Z" fill="url(#paint13_linear_122_27610)"/>
<path id="Fill 136" fill-rule="evenodd" clip-rule="evenodd" d="M39.1035 14.4398C39.2641 14.3665 39.3869 14.228 39.3763 14.1331C39.3524 13.9184 39.1486 13.938 38.7912 14.1863C38.4543 14.4191 38.7033 14.6221 39.1035 14.4398Z" fill="url(#paint14_linear_122_27610)"/>
<g id="Group 140">
<mask id="mask0_122_27610" style="mask-type:luminance" maskUnits="userSpaceOnUse" x="0" y="1" width="117" height="36">
<path id="Clip 138" fill-rule="evenodd" clip-rule="evenodd" d="M116.608 23.4268L2.80581 36.0856L0.342525 13.941L114.144 1.28211L116.608 23.4268Z" fill="white"/>
</mask>
<g mask="url(#mask0_122_27610)">
<path id="Fill 137" fill-rule="evenodd" clip-rule="evenodd" d="M59.1852 12.2647C59.6023 12.2183 59.8284 12.1238 59.7449 12.0319C59.6676 11.9469 59.3441 11.9058 59.0261 11.9412C58.7081 11.9766 58.4561 12.0817 58.4663 12.1741C58.4766 12.2664 58.8001 12.3075 59.1852 12.2647Z" fill="url(#paint15_linear_122_27610)"/>
<path id="Fill 139" fill-rule="evenodd" clip-rule="evenodd" d="M15.5347 16.6632C15.6717 16.5986 15.8421 16.5858 15.9135 16.6339C15.9851 16.6835 15.8731 16.7355 15.6653 16.7519C15.4347 16.7683 15.384 16.7339 15.5347 16.6632ZM17.5279 16.5571C17.6359 16.5451 17.7874 16.6053 17.8641 16.6903C17.9414 16.7752 17.9166 16.855 17.8087 16.8671C17.7001 16.8791 17.548 16.819 17.4707 16.734C17.394 16.6491 17.4193 16.5692 17.5279 16.5571ZM25.6707 16.6738C26.1613 16.6192 26.4512 16.8495 26.1502 17.0541C26.0362 17.1305 25.787 17.0878 25.596 16.958C25.2743 16.7389 25.2803 16.7172 25.6707 16.6738ZM28.5459 20.1122C29.0786 20.0412 29.2351 20.1039 28.9625 20.2776C28.8863 20.3267 28.6399 20.3258 28.4151 20.2753C28.0585 20.1958 28.0754 20.1749 28.5459 20.1122ZM30.2118 19.8766C31.0254 19.7229 32.2706 19.7673 31.7604 19.932C31.3192 20.0746 29.3103 20.2611 29.2993 20.1616C29.2919 20.1007 29.7029 19.9728 30.2118 19.8766ZM41.9705 13.8443C42.5854 13.7723 43.1513 13.7839 43.2286 13.8688C43.3059 13.9537 43.2976 14.0358 43.211 14.0511C43.1245 14.0669 42.7341 14.1432 42.3454 14.2229C41.9278 14.3079 41.4755 14.2863 41.2445 14.1701C40.8916 13.9941 40.9654 13.9607 41.9705 13.8443ZM49.5832 15.1911C49.7572 15.0052 51.2422 14.8185 55.7307 14.4173C56.219 14.3738 56.8038 14.4043 57.0319 14.4843C57.2596 14.5658 58.1998 14.5615 59.1213 14.4764C61.3347 14.2713 61.7403 14.257 62.0281 14.3766C62.161 14.4312 62.4053 14.4143 62.5712 14.3398C62.7695 14.2484 62.8827 14.2939 62.9026 14.4725C62.9191 14.6213 63.0655 14.7278 63.2275 14.7098C63.3894 14.6917 63.5324 14.7622 63.544 14.8662C63.5587 14.9982 63.2727 15.0516 62.6174 15.0407C61.7051 15.025 59.8735 15.2231 57.6816 15.5733C57.02 15.6788 56.3998 15.6702 55.9946 15.5482C55.6422 15.442 54.6382 15.4006 53.7645 15.4567C52.89 15.5118 52.0644 15.4978 51.9279 15.4261C51.6783 15.2936 51.0377 15.2692 49.9723 15.3518C49.5532 15.3851 49.4442 15.3396 49.5832 15.1911ZM67.7339 21.2575C68.1235 20.9484 69.0966 20.7863 69.2884 20.9987C69.3569 21.0743 70.0488 21.0739 70.8259 20.9973C71.6031 20.9216 72.2824 20.8892 72.3358 20.9259C72.4449 21.0001 71.4441 21.3714 71.1348 21.3714C71.0255 21.3717 70.137 21.4084 69.1599 21.4529C67.5779 21.524 67.4236 21.5032 67.7339 21.2575ZM81.9388 19.6332C82.7236 19.5505 83.373 19.5507 83.3824 19.6355C83.3917 19.7193 83.1959 19.8109 82.9473 19.8386C82.6987 19.8662 82.4169 19.9731 82.3213 20.0747C82.0657 20.3477 78.7476 20.9131 78.7225 20.6877C78.6874 20.3725 80.4648 19.79 81.9388 19.6332ZM84.0453 20.2291C84.2739 20.0706 84.273 19.9818 84.0403 19.7256C83.6907 19.3416 83.9055 19.2591 86.235 18.888C87.1233 18.747 87.8526 18.6613 87.8567 18.6983C87.8696 18.8146 86.6728 19.3788 85.7234 19.7044C85.2201 19.8775 84.7685 20.0896 84.7198 20.1752C84.6706 20.2623 84.4369 20.3531 84.1994 20.378C83.8509 20.4147 83.8218 20.3855 84.0453 20.2291ZM68.9022 25.3127C68.646 25.337 68.6511 25.302 68.9298 25.1236C69.1164 25.0031 69.3098 24.9328 69.3605 24.9672C69.5126 25.0711 69.2344 25.2803 68.9022 25.3127ZM68.0328 25.5846C67.8483 25.6052 67.7801 25.7695 67.8368 26.0581C67.9075 26.4182 67.8169 26.5382 67.3493 26.7079C66.5985 26.9779 66.2037 26.8898 66.2833 26.4668C66.3291 26.2248 66.232 26.1292 65.9354 26.1252C65.7086 26.1217 65.4812 26.0375 65.4299 25.9384C65.3067 25.7003 65.974 25.4781 67.2457 25.3341C67.8139 25.2688 68.2861 25.2918 68.2965 25.3847C68.3067 25.4771 68.1888 25.5673 68.0328 25.5846ZM62.0232 25.3585C61.5911 25.405 61.4329 25.3872 61.6729 25.3199C61.9129 25.2526 62.2673 25.2147 62.46 25.2359C62.6528 25.2571 62.4559 25.3119 62.0232 25.3585ZM59.5928 25.4284L58.2462 25.402L59.258 25.1348C60.005 24.9381 60.3539 24.9157 60.5913 25.0471C61.1764 25.3715 60.9552 25.4567 59.5928 25.4284ZM57.1289 25.5915C56.5916 25.659 55.9234 25.8828 55.5399 26.1233C54.8035 26.5824 54.2049 26.7086 53.9728 26.4523C53.8803 26.3501 53.5596 26.3559 53.1662 26.4644C52.5049 26.6474 52.3208 26.5318 52.674 26.1538C52.813 26.0053 52.8001 25.9209 52.6273 25.8528C52.4827 25.7949 52.3596 25.9031 52.3181 26.1236C52.2629 26.4159 52.0963 26.5064 51.4858 26.5743C50.6327 26.6692 50.4714 26.4615 51.1064 26.0847C51.3375 25.9485 51.5714 25.7616 51.6268 25.6712C51.682 25.5787 52.0734 25.4689 52.4957 25.426C52.918 25.3832 54.0829 25.2608 55.0832 25.1547C56.0841 25.049 56.9107 25.0279 56.9197 25.1091C56.9287 25.1904 57.1879 25.3064 57.4949 25.3663C58.0118 25.4666 57.9837 25.4841 57.1289 25.5915ZM50.2371 26.598C49.7536 26.8188 48.5623 26.9251 48.5427 26.749C48.5336 26.6668 48.826 26.5361 49.1926 26.4573L49.1914 26.4575C49.5569 26.3793 50.0173 26.3445 50.213 26.3808C50.5532 26.4421 50.5544 26.4528 50.2371 26.598ZM47.6715 25.6431C46.9867 25.9022 46.7434 25.9179 45.9526 25.7531C44.6105 25.4748 44.6074 25.2959 45.9411 25.1475C46.5843 25.076 47.4154 25.0909 47.7893 25.1793L48.4692 25.3416L47.6715 25.6431ZM0.548859 14.1521C0.708906 14.1816 1.05275 14.3622 1.31322 14.5547C1.57352 14.7457 1.90955 14.8938 2.05974 14.8833C2.21041 14.8716 2.75205 15 3.26324 15.1677C3.77507 15.3358 4.44808 15.5327 4.7589 15.6056C5.07092 15.6782 5.31138 15.8313 5.29468 15.9457C5.27791 16.0596 5.62827 16.369 6.07381 16.6324C7.01502 17.1885 6.91028 17.5753 5.91495 17.2184C5.43445 17.0457 5.18456 17.0401 4.95867 17.1963C4.49892 17.5126 4.7465 17.6865 5.61295 17.6569C6.04013 17.6417 6.52669 17.7068 6.69444 17.8002C7.13563 18.046 7.47122 18.0498 9.3283 17.8381C10.2446 17.7331 11.0917 17.6964 11.2101 17.7572C11.3292 17.818 12.0026 17.813 12.7069 17.7459C13.4387 17.6774 14.325 17.7129 14.7747 17.8299C15.4928 18.0167 15.5341 18.0583 15.2386 18.2916C14.7048 18.7143 15.1388 18.7657 16.2403 18.4083C17.7646 17.9156 19.2719 18.0911 19.3842 18.7769C19.3948 18.8451 18.5031 18.9824 17.4018 19.0822C16.0341 19.2056 15.3821 19.3275 15.3446 19.4652C15.3143 19.576 15.4034 19.6432 15.5422 19.6169C16.3657 19.4544 18.5956 19.5707 18.8269 19.7875C19.0522 19.9983 19.1311 19.9947 19.3912 19.7627C19.7496 19.4428 22.8389 18.98 23.4937 19.1476C23.8479 19.2377 23.8095 19.26 23.2767 19.2704C22.9219 19.2775 22.6383 19.3471 22.6467 19.4227C22.6552 19.4988 22.2857 19.7629 21.8267 20.0098C20.8139 20.5541 20.448 20.9529 20.879 21.0427C21.0408 21.0766 21.4069 20.9989 21.6916 20.8691C22.3996 20.5493 23.7021 20.4224 23.8272 20.6613C23.8943 20.7895 24.415 20.805 25.3404 20.7057C26.1168 20.6229 26.758 20.6035 26.7645 20.6624C26.7834 20.816 27.8663 20.8476 30.1634 20.7632C31.2623 20.7232 32.294 20.7641 32.4553 20.8536C32.6167 20.944 33.2452 21.0057 33.8504 20.9923C34.4555 20.9784 34.9143 21.0317 34.8691 21.1113C34.7151 21.3848 35.2783 21.4475 36.846 21.3338C37.7105 21.2705 38.4931 21.2487 38.5849 21.2858C38.6778 21.3217 39.9818 21.2619 41.4849 21.1517C44.8923 20.9022 45.8045 20.9225 45.8405 21.2463C45.8609 21.4291 45.6238 21.5227 44.9389 21.602C43.7323 21.7429 43.2144 22.2008 44.3555 22.1191C47.1418 21.9186 47.4263 21.8731 47.2968 21.6542C47.2005 21.4902 47.3554 21.419 47.9011 21.3732C48.6313 21.3121 50.0296 21.3985 49.6369 21.4807C49.5236 21.5041 49.2718 21.6549 49.077 21.8148C48.7567 22.0781 48.9016 22.0851 50.5894 21.8897C51.6163 21.7698 52.593 21.6889 52.7593 21.7094C54.0866 21.8706 54.5951 21.8305 54.7919 21.5481C54.9697 21.294 55.2408 21.2479 56.7842 21.2124C57.7672 21.1884 59.1108 21.1879 59.7703 21.2096C60.4293 21.2324 61.8996 21.1613 63.0372 21.0528C65.0656 20.8585 65.913 20.9446 66.6024 21.4131C67.013 21.6916 66.7213 21.8063 65.3041 21.9234C63.9875 22.0313 62.9001 22.4343 62.7619 22.8659C62.6508 23.2112 63.5439 23.097 63.8966 22.7202C64.1123 22.4886 64.4414 22.4232 65.5164 22.3951C66.2578 22.3758 67.3068 22.3018 67.8453 22.2295C68.7018 22.1163 68.7861 22.1336 68.5075 22.3619C68.3321 22.5073 68.1929 22.6652 68.1983 22.7139C68.2037 22.7621 68.9536 22.6787 69.8655 22.5284C71.4338 22.2697 71.5453 22.2732 71.9638 22.6121C72.3617 22.9326 72.4284 22.9386 72.623 22.6734C72.7918 22.4413 73.1594 22.3496 74.3172 22.2506C76.4665 22.0686 77.3444 22.142 77.2774 22.5004C77.2332 22.735 77.3606 22.7733 77.9305 22.697C78.3194 22.6455 78.7213 22.5489 78.8226 22.4822C78.9245 22.4153 79.281 22.2775 79.6152 22.1772C80.2871 21.9755 80.7259 22.2052 80.0872 22.4247C79.5486 22.61 79.8029 22.8443 80.5931 22.891C80.9849 22.9138 81.1701 22.9964 81.0677 23.1024C80.9742 23.2006 80.5343 23.2588 80.0615 23.2364C79.5308 23.2117 79.153 23.2712 79.0344 23.3979C78.9023 23.5385 78.6496 23.562 78.1858 23.4748C77.4314 23.3342 74.0525 23.6669 72.033 24.0812C70.7046 24.3533 69.8485 24.3195 69.4833 23.9794C69.3767 23.8797 69.261 23.9198 69.1598 24.0894C69.0223 24.3225 68.661 24.3576 66.2834 24.3769C63.5246 24.3981 63.1102 24.3497 63.543 24.0554C63.7182 23.9357 63.6552 23.8764 63.314 23.8384C63.0556 23.8101 62.8225 23.8637 62.7958 23.9587C62.7698 24.0541 62.6648 24.0981 62.5617 24.0572C62.1516 23.8962 58.1827 24.2812 57.928 24.5084C57.7275 24.6874 57.6676 24.6781 57.6436 24.4624C57.6269 24.3122 57.5367 24.1979 57.4424 24.2084C57.3486 24.2188 56.4796 24.1978 55.512 24.161C54.544 24.1253 53.0713 24.1849 52.2388 24.2929C51.4062 24.3999 50.6443 24.4574 50.5459 24.4205C50.4469 24.3833 48.8038 24.3533 46.8932 24.3541C44.2668 24.356 43.2913 24.4151 42.8891 24.5955C42.4968 24.7728 42.3515 24.7838 42.3355 24.6402C42.282 24.1759 37.8417 24.1725 37.4074 24.6365C37.2248 24.8315 37.6667 25.0459 38.1438 24.9929C38.4268 24.9614 38.9383 24.9759 39.2795 25.0248C41.2976 25.3157 41.8363 25.3421 43.0886 25.2059C44.3366 25.0701 44.4823 25.0889 44.5699 25.3967C44.722 25.9321 43.8533 26.314 43.0398 26.0689C42.4693 25.897 42.3644 25.9097 41.9555 26.2024C41.6729 26.4049 41.2904 26.5143 40.9337 26.4933C40.6211 26.4746 40.3226 26.5346 40.2703 26.6262C40.1342 26.8659 40.7602 27.0234 41.9061 27.0382C42.4546 27.045 42.9813 27.0815 43.0766 27.1182C43.434 27.2583 45.0839 27.0742 45.5215 26.8447C45.8967 26.6483 46.0168 26.6539 46.1973 26.8728C46.3527 27.06 46.5564 27.0929 46.8871 26.9826C47.1737 26.8865 47.3648 26.8981 47.3775 27.0123C47.3888 27.1143 47.6901 27.1661 48.0473 27.1264C48.4039 27.0867 48.79 27.1183 48.9049 27.1959C49.02 27.2741 50.1783 27.2603 51.4796 27.1659C52.7802 27.0706 54.3843 27.0088 55.043 27.0285C56.731 27.0787 57.78 26.9358 58.1924 26.5991C58.7277 26.1624 59.6332 26.1058 59.8032 26.5001C59.9429 26.8221 60.3904 26.8977 60.545 26.6246C60.5891 26.5462 60.8768 26.4644 61.1836 26.4421C61.4905 26.4198 62.0743 26.3764 62.4811 26.3461C62.9766 26.3079 63.2303 26.3691 63.2481 26.5295C63.2694 26.7203 63.5091 26.7265 64.3963 26.5595L65.5171 26.3485L65.0828 26.7267C64.6329 27.12 64.7429 27.542 65.2355 27.3166C65.3899 27.246 65.6609 27.2687 65.837 27.3668C66.0129 27.4634 66.2028 27.4967 66.257 27.4383C66.3117 27.3798 66.6408 27.4002 66.9881 27.4823C67.4132 27.5835 67.808 27.5643 68.1982 27.4212C68.5894 27.277 68.8296 27.2657 68.9371 27.3842C69.0459 27.5042 69.3288 27.4881 69.837 27.3314C70.2441 27.206 71.6169 26.9823 72.8865 26.8355C75.1623 26.5705 75.1968 26.5723 75.2388 26.9499C75.2885 27.3966 75.779 27.4114 76.0012 26.973C76.1932 26.593 76.6783 26.7698 76.5991 27.1912C76.5304 27.557 76.7979 27.6017 78.6878 27.5395C80.2708 27.4878 84.7404 27.0091 86.0649 26.7502C86.6003 26.6444 87.8292 26.4173 88.795 26.2441C89.845 26.0564 90.6698 25.8197 90.8445 25.6569C91.0388 25.476 91.8155 25.2822 93.1607 25.0797C94.2731 24.9128 95.2624 24.6918 95.3607 24.5868C95.4573 24.483 95.8732 24.3612 96.2837 24.3156C96.8171 24.2562 97.0232 24.1593 97.0031 23.9791C96.9749 23.7254 97.1685 23.6406 97.8095 23.6253C98.0006 23.621 98.1464 23.5226 98.1335 23.4064C98.1201 23.2856 98.2374 23.3146 98.4078 23.4745C98.692 23.7404 98.7776 23.7324 100.329 23.2963C101.222 23.0453 102.086 22.8397 102.25 22.8385C102.67 22.836 103.894 22.4661 105.219 21.9399C105.839 21.6947 106.58 21.4663 106.865 21.4347C107.15 21.403 107.479 21.2749 107.596 21.1493C107.714 21.0237 107.817 20.984 107.825 21.0601C107.834 21.1358 107.978 21.077 108.148 20.9302C108.356 20.7482 108.415 20.7345 108.331 20.8893C108.244 21.0465 108.359 21.0989 108.709 21.0599C109.01 21.0265 109.202 20.909 109.186 20.7685C109.144 20.3903 110.149 20.0432 110.624 20.271C111.237 20.5661 111.54 20.4543 111.484 19.9528L111.433 19.5006L111.875 19.8239C112.453 20.2463 112.82 20.1906 113.159 19.6261C113.312 19.3738 113.642 19.0992 113.893 19.0153C114.414 18.8412 114.446 18.5195 113.976 18.1998C113.799 18.0783 113.641 17.8656 113.626 17.727C113.61 17.5879 113.408 17.4445 113.177 17.4084C112.946 17.372 112.792 17.3053 112.836 17.2579C112.938 17.1488 113.99 17.4285 114.006 17.5691C114.017 17.6752 115.259 17.4765 115.717 17.2939C115.991 17.1859 115.99 16.739 115.715 16.6313C115.613 16.5907 115.446 16.356 115.342 16.1086C115.24 15.862 114.924 15.4506 114.641 15.1959C114.358 14.9411 114.076 14.5589 114.015 14.3463C113.906 13.9699 113.647 13.8174 112.93 13.7117C112.658 13.6704 112.555 13.4743 112.488 12.8652C112.376 11.8602 111.622 10.0152 111.182 9.67351C110.998 9.53008 110.59 9.44143 110.275 9.47641C109.601 9.55138 108.913 9.35614 108.882 9.08256C108.87 8.97648 109.026 8.70072 109.229 8.47109L109.597 8.05141L109.062 7.4157C108.767 7.06524 108.393 6.79077 108.23 6.80479C107.719 6.85032 107.137 6.45931 107.239 6.13966C107.366 5.74373 106.941 5.41997 106.378 5.4826C106.127 5.51052 105.863 5.46696 105.789 5.38628C105.645 5.22662 104.554 5.42606 103.638 5.7797C103.323 5.90114 102.562 6.09626 101.946 6.2151C100.812 6.43377 100.151 6.78366 99.3815 7.57326C99.1465 7.81419 98.8562 8.02325 98.7363 8.03658C98.6153 8.05055 98.2651 8.21231 97.957 8.39611C97.6135 8.60184 96.7538 8.82695 95.7328 8.97856C94.8169 9.11486 93.4136 9.37733 92.6129 9.56094C91.8122 9.74455 89.6766 10.1789 87.8676 10.5261C84.7924 11.1158 84.5526 11.1409 84.177 10.9124C83.8116 10.689 83.5234 10.7123 80.9255 11.1755C79.3584 11.4556 77.9816 11.7629 77.8674 11.8589C77.5004 12.1669 76.7283 12.3479 76.4466 12.1916C76.2885 12.1044 75.8662 12.12 75.4453 12.229C75.0448 12.3327 74.1164 12.5562 73.3831 12.7241C72.6504 12.8929 72.0093 13.0747 71.9589 13.1286C71.9084 13.1825 71.6748 13.059 71.44 12.8539C70.9625 12.4384 70.1108 12.4437 69.4628 12.8662C69.1493 13.0717 69.0479 13.083 68.9573 12.9225C68.8959 12.8127 68.7198 12.7362 68.5667 12.7532C68.4136 12.7702 68.321 12.8766 68.3611 12.9888C68.4149 13.1431 67.9873 13.2359 66.6607 13.3624C64.9347 13.5266 64.3849 13.541 61.8977 13.4925C58.5609 13.4258 57.7805 13.4623 57.3145 13.7063C56.9417 13.9029 56.8042 13.9085 56.6488 13.7372C56.4851 13.556 56.3781 13.5659 55.9964 13.7954C55.7378 13.9495 55.3477 14.0386 55.0964 13.9988C54.6888 13.9362 54.6788 13.9106 54.9647 13.684C55.2341 13.4706 55.1138 13.4265 54.097 13.3674C53.4488 13.3291 51.6193 13.2916 50.0308 13.2828C48.4418 13.2745 46.5597 13.2563 45.8462 13.2411C45.133 13.2274 43.2537 13.2397 41.6689 13.27C40.0849 13.3008 38.6542 13.3017 38.4912 13.272C38.327 13.2435 37.5182 13.2189 36.6936 13.2197C35.8688 13.2189 34.522 13.2172 33.7006 13.2145C32.8798 13.2113 31.4911 13.2172 30.6172 13.2281C29.1248 13.2466 27.8004 13.2193 25.4292 13.1187C24.8794 13.0946 23.7616 13.1115 22.9456 13.1571C20.8888 13.2687 21.8222 13.4197 25.0735 13.5005C26.5004 13.5365 28.9715 13.607 30.5652 13.6573C33.0879 13.7379 39.2557 13.8005 39.706 13.7504C39.7938 13.7407 39.9862 13.9094 40.1339 14.1252C40.3634 14.4604 40.3488 14.5504 40.0328 14.7387C39.8296 14.8615 39.3994 15.0059 39.0777 15.0618C38.694 15.1276 38.5333 15.2328 38.6119 15.3669C38.7666 15.6292 36.6532 15.762 35.9581 15.5336C35.6414 15.4291 34.4339 15.4925 32.3124 15.7249C30.5685 15.9168 28.9732 16.0193 28.7671 15.9543C28.5611 15.8894 27.9748 15.8513 27.4641 15.8711C26.2563 15.915 24.3361 15.8409 22.3286 15.6716C21.4439 15.5963 20.3033 15.5485 19.7933 15.5646C19.284 15.5807 18.7776 15.5589 18.6675 15.5141C18.5571 15.4714 17.5817 15.4186 16.4996 15.3987C14.223 15.3549 13.0521 15.2873 11.9193 15.1364C11.0199 15.0155 9.67815 14.9248 8.59428 14.9112C8.20273 14.9065 7.68575 14.7785 7.44621 14.6284C7.17153 14.4539 6.7278 14.3851 6.24567 14.4408C5.0861 14.5728 4.15363 14.5327 3.2591 14.3151C1.96803 13.9994 0.497695 13.8217 0.373092 13.9651C0.309773 14.0384 0.388699 14.1216 0.548859 14.1521Z" fill="url(#paint16_linear_122_27610)"/>
</g>
</g>
<path id="Fill 141" fill-rule="evenodd" clip-rule="evenodd" d="M19.3542 13.0871C19.5258 13.1554 20.0262 13.221 20.4653 13.2323C20.9907 13.2473 21.1562 13.2119 20.9514 13.1314C20.7799 13.0632 20.28 12.997 19.8402 12.9858C19.3149 12.9713 19.1488 13.0067 19.3542 13.0871Z" fill="url(#paint17_linear_122_27610)"/>
<path id="Fill 142" fill-rule="evenodd" clip-rule="evenodd" d="M5.80741 18.7828C6.51444 18.6106 6.61308 18.5416 6.37588 18.3856C6.2172 18.282 5.69027 18.2157 5.20334 18.239C4.51285 18.2737 4.31157 18.3434 4.28437 18.5632C4.23668 18.9498 4.79146 19.0289 5.80741 18.7828Z" fill="url(#paint18_linear_122_27610)"/>
<path id="Fill 143" fill-rule="evenodd" clip-rule="evenodd" d="M12.6284 12.3918C13.0545 12.383 13.2227 12.3612 13.0014 12.3426C12.7807 12.324 12.5074 12.2491 12.3954 12.1762C12.2828 12.1035 11.9661 12.0693 11.6906 12.1041C10.9404 12.1952 11.6487 12.4129 12.6284 12.3918Z" fill="url(#paint19_linear_122_27610)"/>
<path id="Fill 144" fill-rule="evenodd" clip-rule="evenodd" d="M2.7115 16.0596C2.63943 16.0111 2.47031 16.0243 2.33328 16.0883C2.18204 16.1596 2.23343 16.195 2.46324 16.1767C2.67115 16.1612 2.78303 16.1087 2.7115 16.0596Z" fill="url(#paint20_linear_122_27610)"/>
<path id="Fill 145" fill-rule="evenodd" clip-rule="evenodd" d="M8.66512 12.1436C9.42813 12.1399 9.48227 12.119 9.14057 11.9469C8.92948 11.8419 8.45052 11.7857 8.07705 11.8247C7.15723 11.9198 7.57842 12.1479 8.66512 12.1436Z" fill="url(#paint21_linear_122_27610)"/>
<path id="Fill 146" fill-rule="evenodd" clip-rule="evenodd" d="M6.47025 13.36C6.56518 13.3495 6.62613 13.1901 6.60552 13.0048C6.56956 12.6815 6.17036 12.5918 5.92658 12.8517C5.79177 12.9951 6.21275 13.3887 6.47025 13.36Z" fill="url(#paint22_linear_122_27610)"/>
<path id="Fill 147" fill-rule="evenodd" clip-rule="evenodd" d="M10.3858 13.7752C10.6498 13.7458 10.8575 13.6477 10.8475 13.5573C10.8268 13.3711 9.8563 13.2324 9.70485 13.3936C9.51057 13.6017 9.9147 13.8276 10.3858 13.7752Z" fill="url(#paint23_linear_122_27610)"/>
<path id="Fill 148" fill-rule="evenodd" clip-rule="evenodd" d="M15.83 12.8116C16.3311 12.8355 16.7347 12.7972 16.7268 12.7262C16.7067 12.5455 16.3013 12.4811 15.1824 12.4813C13.9498 12.4807 14.4706 12.7459 15.83 12.8116Z" fill="url(#paint24_linear_122_27610)"/>
<path id="Fill 149" fill-rule="evenodd" clip-rule="evenodd" d="M17.1369 12.839C17.3082 12.8991 17.653 12.9804 17.9032 13.0158C18.1536 13.0532 18.3507 13.0102 18.341 12.9229C18.3227 12.7585 17.6435 12.63 17.1208 12.6943C16.8594 12.7255 16.8613 12.7422 17.1369 12.839Z" fill="url(#paint25_linear_122_27610)"/>
<path id="Fill 150" fill-rule="evenodd" clip-rule="evenodd" d="M1.46043 16.9001C1.69268 16.7417 1.44712 16.3538 1.0634 16.2737C0.719492 16.2004 0.409041 16.3578 0.434843 16.5897C0.458669 16.8039 1.25104 17.0426 1.46043 16.9001Z" fill="url(#paint26_linear_122_27610)"/>
</g>
<defs>
<linearGradient id="paint0_linear_122_27610" x1="29.4508" y1="25.161" x2="29.3966" y2="24.3468" gradientUnits="userSpaceOnUse">
<stop stop-color="#B58E69"/>
<stop offset="1" stop-color="#8E6C4D"/>
</linearGradient>
<linearGradient id="paint1_linear_122_27610" x1="59.9646" y1="22.2191" x2="59.9367" y2="21.4633" gradientUnits="userSpaceOnUse">
<stop stop-color="#B58E69"/>
<stop offset="1" stop-color="#8E6C4D"/>
</linearGradient>
<linearGradient id="paint2_linear_122_27610" x1="40.6333" y1="22.2412" x2="40.671" y2="21.4936" gradientUnits="userSpaceOnUse">
<stop stop-color="#B58E69"/>
<stop offset="1" stop-color="#8E6C4D"/>
</linearGradient>
<linearGradient id="paint3_linear_122_27610" x1="20.36" y1="26.8085" x2="20.294" y2="25.6459" gradientUnits="userSpaceOnUse">
<stop stop-color="#B58E69"/>
<stop offset="1" stop-color="#8E6C4D"/>
</linearGradient>
<linearGradient id="paint4_linear_122_27610" x1="42.1505" y1="22.1574" x2="42.1736" y2="21.4069" gradientUnits="userSpaceOnUse">
<stop stop-color="#B58E69"/>
<stop offset="1" stop-color="#8E6C4D"/>
</linearGradient>
<linearGradient id="paint5_linear_122_27610" x1="56.1048" y1="22.9769" x2="56.0169" y2="21.7265" gradientUnits="userSpaceOnUse">
<stop stop-color="#B58E69"/>
<stop offset="1" stop-color="#8E6C4D"/>
</linearGradient>
<linearGradient id="paint6_linear_122_27610" x1="33.722" y1="25.1382" x2="33.7274" y2="24.3851" gradientUnits="userSpaceOnUse">
<stop stop-color="#B58E69"/>
<stop offset="1" stop-color="#8E6C4D"/>
</linearGradient>
<linearGradient id="paint7_linear_122_27610" x1="13.7576" y1="29.2933" x2="13.2878" y2="20.2981" gradientUnits="userSpaceOnUse">
<stop stop-color="#B58E69"/>
<stop offset="1" stop-color="#8E6C4D"/>
</linearGradient>
<linearGradient id="paint8_linear_122_27610" x1="14.7327" y1="25.2897" x2="14.7914" y2="24.5472" gradientUnits="userSpaceOnUse">
<stop stop-color="#B58E69"/>
<stop offset="1" stop-color="#8E6C4D"/>
</linearGradient>
<linearGradient id="paint9_linear_122_27610" x1="37.8966" y1="27.3415" x2="37.8138" y2="25.9269" gradientUnits="userSpaceOnUse">
<stop stop-color="#B58E69"/>
<stop offset="1" stop-color="#8E6C4D"/>
</linearGradient>
<linearGradient id="paint10_linear_122_27610" x1="33.5642" y1="27.2728" x2="33.5097" y2="26.0286" gradientUnits="userSpaceOnUse">
<stop stop-color="#B58E69"/>
<stop offset="1" stop-color="#8E6C4D"/>
</linearGradient>
<linearGradient id="paint11_linear_122_27610" x1="40.9461" y1="26.5199" x2="41.0079" y2="25.7782" gradientUnits="userSpaceOnUse">
<stop stop-color="#B58E69"/>
<stop offset="1" stop-color="#8E6C4D"/>
</linearGradient>
<linearGradient id="paint12_linear_122_27610" x1="23.7862" y1="26.6735" x2="23.7968" y2="25.8094" gradientUnits="userSpaceOnUse">
<stop stop-color="#B58E69"/>
<stop offset="1" stop-color="#8E6C4D"/>
</linearGradient>
<linearGradient id="paint13_linear_122_27610" x1="32.6623" y1="14.6979" x2="32.6894" y2="13.9481" gradientUnits="userSpaceOnUse">
<stop stop-color="#B58E69"/>
<stop offset="1" stop-color="#8E6C4D"/>
</linearGradient>
<linearGradient id="paint14_linear_122_27610" x1="39.0504" y1="14.7505" x2="39.081" y2="14.0014" gradientUnits="userSpaceOnUse">
<stop stop-color="#B58E69"/>
<stop offset="1" stop-color="#8E6C4D"/>
</linearGradient>
<linearGradient id="paint15_linear_122_27610" x1="59.1536" y1="12.6025" x2="59.1378" y2="11.8473" gradientUnits="userSpaceOnUse">
<stop stop-color="#B58E69"/>
<stop offset="1" stop-color="#8E6C4D"/>
</linearGradient>
<linearGradient id="paint16_linear_122_27610" x1="59.6738" y1="40.5791" x2="57.4885" y2="7.5943" gradientUnits="userSpaceOnUse">
<stop stop-color="#B58E69"/>
<stop offset="1" stop-color="#8E6C4D"/>
</linearGradient>
<linearGradient id="paint17_linear_122_27610" x1="20.1893" y1="13.6101" x2="20.1564" y2="12.8541" gradientUnits="userSpaceOnUse">
<stop stop-color="#B58E69"/>
<stop offset="1" stop-color="#8E6C4D"/>
</linearGradient>
<linearGradient id="paint18_linear_122_27610" x1="5.43257" y1="19.1987" x2="5.3916" y2="18.2073" gradientUnits="userSpaceOnUse">
<stop stop-color="#B58E69"/>
<stop offset="1" stop-color="#8E6C4D"/>
</linearGradient>
<linearGradient id="paint19_linear_122_27610" x1="12.2716" y1="12.7538" x2="12.2401" y2="11.9978" gradientUnits="userSpaceOnUse">
<stop stop-color="#B58E69"/>
<stop offset="1" stop-color="#8E6C4D"/>
</linearGradient>
<linearGradient id="paint20_linear_122_27610" x1="2.53757" y1="16.6058" x2="2.59936" y2="15.8642" gradientUnits="userSpaceOnUse">
<stop stop-color="#B58E69"/>
<stop offset="1" stop-color="#8E6C4D"/>
</linearGradient>
<linearGradient id="paint21_linear_122_27610" x1="8.49018" y1="12.4986" x2="8.45709" y2="11.7426" gradientUnits="userSpaceOnUse">
<stop stop-color="#B58E69"/>
<stop offset="1" stop-color="#8E6C4D"/>
</linearGradient>
<linearGradient id="paint22_linear_122_27610" x1="6.32785" y1="13.7069" x2="6.43779" y2="12.7256" gradientUnits="userSpaceOnUse">
<stop stop-color="#B58E69"/>
<stop offset="1" stop-color="#8E6C4D"/>
</linearGradient>
<linearGradient id="paint23_linear_122_27610" x1="10.2946" y1="14.0399" x2="10.2857" y2="13.2852" gradientUnits="userSpaceOnUse">
<stop stop-color="#B58E69"/>
<stop offset="1" stop-color="#8E6C4D"/>
</linearGradient>
<linearGradient id="paint24_linear_122_27610" x1="15.638" y1="13.1523" x2="15.5942" y2="12.3962" gradientUnits="userSpaceOnUse">
<stop stop-color="#B58E69"/>
<stop offset="1" stop-color="#8E6C4D"/>
</linearGradient>
<linearGradient id="paint25_linear_122_27610" x1="17.6778" y1="13.3605" x2="17.6579" y2="12.6051" gradientUnits="userSpaceOnUse">
<stop stop-color="#B58E69"/>
<stop offset="1" stop-color="#8E6C4D"/>
</linearGradient>
<linearGradient id="paint26_linear_122_27610" x1="1.05552" y1="17.3265" x2="1.10044" y2="16.2514" gradientUnits="userSpaceOnUse">
<stop stop-color="#B58E69"/>
<stop offset="1" stop-color="#8E6C4D"/>
</linearGradient>
</defs>
</svg>
