<svg width="16" height="16" viewBox="0 0 16 16" fill="none" xmlns="http://www.w3.org/2000/svg">
<path id="Vector" d="M9.38994 1.21028L10.7999 4.03028C10.9899 4.42028 11.4999 4.79028 11.9299 4.87028L14.4799 5.29028C16.1099 5.56028 16.4899 6.74028 15.3199 7.92028L13.3299 9.91028C12.9999 10.2403 12.8099 10.8903 12.9199 11.3603L13.4899 13.8203C13.9399 15.7603 12.8999 16.5203 11.1899 15.5003L8.79994 14.0803C8.36994 13.8203 7.64994 13.8203 7.21994 14.0803L4.82994 15.5003C3.11994 16.5103 2.07994 15.7603 2.52994 13.8203L3.09994 11.3603C3.18994 10.8803 2.99994 10.2303 2.66994 9.90028L0.679942 7.91028C-0.490058 6.74028 -0.110058 5.56028 1.51994 5.28028L4.06994 4.86028C4.49994 4.79028 5.00994 4.41028 5.19994 4.02028L6.60994 1.20028C7.37994 -0.319724 8.61994 -0.319723 9.38994 1.21028Z" fill="white"/>
</svg>
