<svg width="128" height="94" viewBox="0 0 128 94" fill="none" xmlns="http://www.w3.org/2000/svg">
<g id="Frame" clip-path="url(#clip0_122_5222)">
<g id="Group">
<path id="Vector" d="M128 47C128 48.6686 126.748 49.9201 125.078 49.9201C123.409 49.9201 122.157 48.6686 122.157 47C122.157 45.3313 123.409 44.0798 125.078 44.0798C126.748 44.0798 128 45.3313 128 47Z" fill="url(#paint0_linear_122_5222)"/>
<path id="Vector_2" d="M117.287 40.8817C118.824 40.8817 120.07 39.6366 120.07 38.1006C120.07 36.5647 118.824 35.3196 117.287 35.3196C115.75 35.3196 114.504 36.5647 114.504 38.1006C114.504 39.6366 115.75 40.8817 117.287 40.8817Z" fill="url(#paint1_linear_122_5222)"/>
<path id="Vector_3" d="M120.07 47.0001C120.07 48.5296 118.817 49.7811 117.287 49.7811C115.757 49.7811 114.504 48.5296 114.504 47.0001C114.504 45.4705 115.757 44.219 117.287 44.219C118.817 44.219 120.07 45.4705 120.07 47.0001Z" fill="url(#paint2_linear_122_5222)"/>
<path id="Vector_4" d="M120.07 55.8994C120.07 57.4289 118.817 58.6804 117.287 58.6804C115.757 58.6804 114.504 57.4289 114.504 55.8994C114.504 54.3698 115.757 53.1183 117.287 53.1183C118.817 53.1183 120.07 54.3698 120.07 55.8994Z" fill="url(#paint3_linear_122_5222)"/>
<path id="Vector_5" d="M112.139 29.0622C112.139 30.5918 110.887 31.7042 109.496 31.7042C107.965 31.7042 106.852 30.4527 106.852 29.0622C106.852 27.5326 108.104 26.4202 109.496 26.4202C111.026 26.4202 112.139 27.6716 112.139 29.0622Z" fill="url(#paint4_linear_122_5222)"/>
<path id="Vector_6" d="M112.139 38.1006C112.139 39.6302 110.887 40.7426 109.496 40.7426C107.965 40.7426 106.852 39.4911 106.852 38.1006C106.852 36.571 108.104 35.4586 109.496 35.4586C111.026 35.3195 112.139 36.571 112.139 38.1006Z" fill="url(#paint5_linear_122_5222)"/>
<path id="Vector_7" d="M112.139 47C112.139 48.5296 110.887 49.6421 109.496 49.6421C107.965 49.6421 106.852 48.3906 106.852 47C106.852 45.4705 108.104 44.358 109.496 44.358C111.026 44.358 112.139 45.4705 112.139 47Z" fill="url(#paint6_linear_122_5222)"/>
<path id="Vector_8" d="M112.139 55.8995C112.139 57.429 110.887 58.5415 109.496 58.5415C107.965 58.5415 106.852 57.29 106.852 55.8995C106.852 54.3699 108.104 53.2574 109.496 53.2574C111.026 53.2574 112.139 54.5089 112.139 55.8995Z" fill="url(#paint7_linear_122_5222)"/>
<path id="Vector_9" d="M112.139 64.9379C112.139 66.4674 110.887 67.5799 109.496 67.5799C107.965 67.5799 106.852 66.3284 106.852 64.9379C106.852 63.5473 108.104 62.2959 109.496 62.2959C111.026 62.1568 112.139 63.4083 112.139 64.9379Z" fill="url(#paint8_linear_122_5222)"/>
<path id="Vector_10" d="M104.209 20.1627C104.209 21.5533 103.096 22.6657 101.704 22.6657C100.313 22.6657 99.2 21.5533 99.2 20.1627C99.2 18.7722 100.313 17.6598 101.704 17.6598C103.096 17.6598 104.209 18.7722 104.209 20.1627Z" fill="url(#paint9_linear_122_5222)"/>
<path id="Vector_11" d="M104.209 29.0622C104.209 30.4527 103.096 31.5651 101.704 31.5651C100.313 31.5651 99.2 30.4527 99.2 29.0622C99.2 27.6716 100.313 26.5592 101.704 26.5592C103.096 26.5592 104.209 27.6716 104.209 29.0622Z" fill="url(#paint10_linear_122_5222)"/>
<path id="Vector_12" d="M104.209 38.1006C104.209 39.4912 103.096 40.6036 101.704 40.6036C100.313 40.6036 99.2 39.4912 99.2 38.1006C99.2 36.7101 100.313 35.5977 101.704 35.5977C103.096 35.4586 104.209 36.571 104.209 38.1006Z" fill="url(#paint11_linear_122_5222)"/>
<path id="Vector_13" d="M104.209 47C104.209 48.3906 103.096 49.503 101.704 49.503C100.313 49.503 99.2 48.3906 99.2 47C99.2 45.6095 100.313 44.4971 101.704 44.4971C103.096 44.4971 104.209 45.6095 104.209 47Z" fill="url(#paint12_linear_122_5222)"/>
<path id="Vector_14" d="M104.209 55.8994C104.209 57.29 103.096 58.4024 101.704 58.4024C100.313 58.4024 99.2 57.29 99.2 55.8994C99.2 54.5089 100.313 53.3965 101.704 53.3965C103.096 53.3965 104.209 54.5089 104.209 55.8994Z" fill="url(#paint13_linear_122_5222)"/>
<path id="Vector_15" d="M104.209 64.9379C104.209 66.3284 103.096 67.4408 101.704 67.4408C100.313 67.4408 99.2 66.3284 99.2 64.9379C99.2 63.5473 100.313 62.4349 101.704 62.4349C103.096 62.2959 104.209 63.5473 104.209 64.9379Z" fill="url(#paint14_linear_122_5222)"/>
<path id="Vector_16" d="M104.209 73.8373C104.209 75.2278 103.096 76.3403 101.704 76.3403C100.313 76.3403 99.2 75.2278 99.2 73.8373C99.2 72.4468 100.313 71.3344 101.704 71.3344C103.096 71.3344 104.209 72.4468 104.209 73.8373Z" fill="url(#paint15_linear_122_5222)"/>
<path id="Vector_17" d="M96.4174 11.1243C96.4174 12.3758 95.3043 13.4882 94.0522 13.4882C92.8 13.4882 91.687 12.3758 91.687 11.1243C91.687 9.8728 92.8 8.76038 94.0522 8.76038C95.3043 8.76038 96.4174 9.8728 96.4174 11.1243Z" fill="url(#paint16_linear_122_5222)"/>
<path id="Vector_18" d="M96.4174 20.1627C96.4174 21.4142 95.3043 22.5266 94.0522 22.5266C92.8 22.5266 91.687 21.4142 91.687 20.1627C91.687 18.9113 92.8 17.7988 94.0522 17.7988C95.3043 17.7988 96.4174 18.7722 96.4174 20.1627Z" fill="url(#paint17_linear_122_5222)"/>
<path id="Vector_19" d="M96.4174 29.0621C96.4174 30.3136 95.3043 31.4261 94.0522 31.4261C92.8 31.4261 91.687 30.3136 91.687 29.0621C91.687 27.8107 92.8 26.6982 94.0522 26.6982C95.3043 26.6982 96.4174 27.8107 96.4174 29.0621Z" fill="url(#paint18_linear_122_5222)"/>
<path id="Vector_20" d="M96.4174 38.1006C96.4174 39.3521 95.3043 40.4645 94.0522 40.4645C92.8 40.4645 91.687 39.3521 91.687 38.1006C91.687 36.8492 92.8 35.7367 94.0522 35.7367C95.3043 35.5977 96.4174 36.7101 96.4174 38.1006Z" fill="url(#paint19_linear_122_5222)"/>
<path id="Vector_21" d="M96.4174 47C96.4174 48.2515 95.3043 49.3639 94.0522 49.3639C92.8 49.3639 91.687 48.2515 91.687 47C91.687 45.7485 92.8 44.6361 94.0522 44.6361C95.3043 44.6361 96.4174 45.6095 96.4174 47Z" fill="url(#paint20_linear_122_5222)"/>
<path id="Vector_22" d="M96.4174 55.8994C96.4174 57.1509 95.3043 58.2633 94.0522 58.2633C92.8 58.2633 91.687 57.1509 91.687 55.8994C91.687 54.6479 92.8 53.5355 94.0522 53.5355C95.3043 53.5355 96.4174 54.6479 96.4174 55.8994Z" fill="url(#paint21_linear_122_5222)"/>
<path id="Vector_23" d="M96.4174 64.9379C96.4174 66.1894 95.3043 67.3018 94.0522 67.3018C92.8 67.3018 91.687 66.1894 91.687 64.9379C91.687 63.6864 92.8 62.574 94.0522 62.574C95.3043 62.435 96.4174 63.5474 96.4174 64.9379Z" fill="url(#paint22_linear_122_5222)"/>
<path id="Vector_24" d="M96.4174 73.8373C96.4174 75.0888 95.3043 76.2012 94.0522 76.2012C92.8 76.2012 91.687 75.0888 91.687 73.8373C91.687 72.5858 92.8 71.4734 94.0522 71.4734C95.3043 71.4734 96.4174 72.4468 96.4174 73.8373Z" fill="url(#paint23_linear_122_5222)"/>
<path id="Vector_25" d="M96.4174 82.7367C96.4174 83.9882 95.3043 85.1006 94.0522 85.1006C92.8 85.1006 91.687 83.9882 91.687 82.7367C91.687 81.4852 92.8 80.3728 94.0522 80.3728C95.3043 80.3728 96.4174 81.4852 96.4174 82.7367Z" fill="url(#paint24_linear_122_5222)"/>
<path id="Vector_26" d="M88.4869 2.22485C88.4869 3.47633 87.513 4.4497 86.2609 4.4497C85.0087 4.4497 84.0348 3.47633 84.0348 2.22485C83.8956 0.973373 85.0087 0 86.2609 0C87.3739 0 88.4869 0.973373 88.4869 2.22485Z" fill="url(#paint25_linear_122_5222)"/>
<path id="Vector_27" d="M88.487 11.1243C88.487 12.3757 87.513 13.3491 86.2609 13.3491C85.0087 13.3491 84.0348 12.3757 84.0348 11.1243C84.0348 9.87279 85.0087 8.89941 86.2609 8.89941C87.3739 8.89941 88.487 10.0118 88.487 11.1243Z" fill="url(#paint26_linear_122_5222)"/>
<path id="Vector_28" d="M88.487 20.1627C88.487 21.4142 87.513 22.3876 86.2609 22.3876C85.0087 22.3876 84.0348 21.4142 84.0348 20.1627C84.0348 18.9112 85.0087 17.9379 86.2609 17.9379C87.3739 17.9379 88.487 18.9112 88.487 20.1627Z" fill="url(#paint27_linear_122_5222)"/>
<path id="Vector_29" d="M88.4869 29.0621C88.4869 30.3136 87.513 31.287 86.2609 31.287C85.0087 31.287 84.0348 30.3136 84.0348 29.0621C83.8956 27.8107 85.0087 26.8373 86.2609 26.8373C87.3739 26.8373 88.4869 27.8107 88.4869 29.0621Z" fill="url(#paint28_linear_122_5222)"/>
<path id="Vector_30" d="M88.487 38.1006C88.487 39.3521 87.513 40.3255 86.2609 40.3255C85.0087 40.3255 84.0348 39.3521 84.0348 38.1006C84.0348 36.8491 85.0087 35.7367 86.2609 35.7367C87.3739 35.7367 88.487 36.8491 88.487 38.1006Z" fill="url(#paint29_linear_122_5222)"/>
<path id="Vector_31" d="M88.487 47C88.487 48.2515 87.513 49.2248 86.2609 49.2248C85.0087 49.2248 84.0348 48.2515 84.0348 47C84.0348 45.7485 85.0087 44.7751 86.2609 44.7751C87.3739 44.7751 88.487 45.7485 88.487 47Z" fill="url(#paint30_linear_122_5222)"/>
<path id="Vector_32" d="M88.487 55.8994C88.487 57.1509 87.513 58.1243 86.2609 58.1243C85.0087 58.1243 84.0348 57.1509 84.0348 55.8994C84.0348 54.6479 85.0087 53.6746 86.2609 53.6746C87.3739 53.6746 88.487 54.6479 88.487 55.8994Z" fill="url(#paint31_linear_122_5222)"/>
<path id="Vector_33" d="M88.487 64.9379C88.487 66.1894 87.513 67.1627 86.2609 67.1627C85.0087 67.1627 84.0348 66.1894 84.0348 64.9379C84.0348 63.6864 85.0087 62.574 86.2609 62.574C87.3739 62.574 88.487 63.6864 88.487 64.9379Z" fill="url(#paint32_linear_122_5222)"/>
<path id="Vector_34" d="M88.487 73.8373C88.487 75.0888 87.513 76.0621 86.2609 76.0621C85.0087 76.0621 84.0348 75.0888 84.0348 73.8373C84.0348 72.5858 85.0087 71.6124 86.2609 71.6124C87.3739 71.6124 88.487 72.5858 88.487 73.8373Z" fill="url(#paint33_linear_122_5222)"/>
<path id="Vector_35" d="M88.487 82.7367C88.487 83.9882 87.513 84.9615 86.2609 84.9615C85.0087 84.9615 84.0348 83.9882 84.0348 82.7367C84.0348 81.4852 85.0087 80.5118 86.2609 80.5118C87.3739 80.5118 88.487 81.4852 88.487 82.7367Z" fill="url(#paint34_linear_122_5222)"/>
<path id="Vector_36" d="M88.487 91.7752C88.487 93.0266 87.513 94 86.2609 94C85.0087 94 84.0348 93.0266 84.0348 91.7752C84.0348 90.5237 85.0087 89.4113 86.2609 89.4113C87.3739 89.4113 88.487 90.5237 88.487 91.7752Z" fill="url(#paint35_linear_122_5222)"/>
<path id="Vector_37" d="M80.5565 29.0621C80.5565 30.1745 79.5826 31.1479 78.4696 31.1479C77.3565 31.1479 76.3826 30.3136 76.3826 29.0621C76.3826 27.8106 77.3565 26.9763 78.4696 26.9763C79.5826 26.9763 80.5565 27.9497 80.5565 29.0621Z" fill="url(#paint36_linear_122_5222)"/>
<path id="Vector_38" d="M80.5565 38.1006C80.5565 39.213 79.5826 40.1864 78.4696 40.1864C77.3565 40.1864 76.3826 39.213 76.3826 38.1006C76.3826 36.9881 77.3565 36.0148 78.4696 36.0148C79.5826 36.0148 80.5565 36.8491 80.5565 38.1006Z" fill="url(#paint37_linear_122_5222)"/>
<path id="Vector_39" d="M80.5565 47C80.5565 48.1124 79.5826 49.0858 78.4696 49.0858C77.3565 49.0858 76.3826 48.1124 76.3826 47C76.3826 45.8876 77.3565 44.9142 78.4696 44.9142C79.5826 44.9142 80.5565 45.8876 80.5565 47Z" fill="url(#paint38_linear_122_5222)"/>
<path id="Vector_40" d="M80.5565 55.8994C80.5565 57.0118 79.5826 57.9852 78.4696 57.9852C77.3565 57.9852 76.3826 57.1509 76.3826 55.8994C76.3826 54.6479 77.3565 53.8136 78.4696 53.8136C79.5826 53.8136 80.5565 54.787 80.5565 55.8994Z" fill="url(#paint39_linear_122_5222)"/>
<path id="Vector_41" d="M80.5565 64.9379C80.5565 66.0503 79.5826 67.0237 78.4696 67.0237C77.3565 67.0237 76.3826 66.0503 76.3826 64.9379C76.3826 63.8254 77.3565 62.8521 78.4696 62.8521C79.5826 62.8521 80.5565 63.6864 80.5565 64.9379Z" fill="url(#paint40_linear_122_5222)"/>
<path id="Vector_42" d="M72.6261 29.0621C72.6261 30.1745 71.7913 31.0088 70.6783 31.0088C69.5652 31.0088 68.7304 30.1745 68.7304 29.0621C68.7304 27.9497 69.5652 27.1154 70.6783 27.1154C71.7913 27.1154 72.6261 27.9497 72.6261 29.0621Z" fill="url(#paint41_linear_122_5222)"/>
<path id="Vector_43" d="M72.6261 38.1005C72.6261 39.213 71.7913 40.0473 70.6783 40.0473C69.5652 40.0473 68.7304 39.0739 68.7304 38.1005C68.7304 36.9881 69.5652 36.1538 70.6783 36.1538C71.7913 36.0147 72.6261 36.9881 72.6261 38.1005Z" fill="url(#paint42_linear_122_5222)"/>
<path id="Vector_44" d="M72.6261 47C72.6261 48.1124 71.7913 48.9467 70.6783 48.9467C69.5652 48.9467 68.7304 48.1124 68.7304 47C68.7304 45.8875 69.5652 45.0532 70.6783 45.0532C71.7913 45.0532 72.6261 45.8875 72.6261 47Z" fill="url(#paint43_linear_122_5222)"/>
<path id="Vector_45" d="M72.6261 55.8994C72.6261 57.0118 71.7913 57.8461 70.6783 57.8461C69.5652 57.8461 68.7304 57.0118 68.7304 55.8994C68.7304 54.787 69.5652 53.9526 70.6783 53.9526C71.7913 53.9526 72.6261 54.787 72.6261 55.8994Z" fill="url(#paint44_linear_122_5222)"/>
<path id="Vector_46" d="M72.6261 64.9379C72.6261 66.0503 71.7913 66.8846 70.6783 66.8846C69.5652 66.8846 68.7304 65.9112 68.7304 64.9379C68.7304 63.9645 69.5652 62.8521 70.6783 62.8521C71.7913 62.8521 72.6261 63.8254 72.6261 64.9379Z" fill="url(#paint45_linear_122_5222)"/>
<path id="Vector_47" d="M64.6957 29.0621C64.6957 30.0355 63.8609 30.8698 62.887 30.8698C61.913 30.8698 61.0783 30.0355 61.0783 29.0621C61.0783 28.0887 61.913 27.2544 62.887 27.2544C63.8609 27.2544 64.6957 28.0887 64.6957 29.0621Z" fill="url(#paint46_linear_122_5222)"/>
<path id="Vector_48" d="M62.887 39.9082C63.8859 39.9082 64.6957 39.0989 64.6957 38.1005C64.6957 37.1022 63.8859 36.2928 62.887 36.2928C61.888 36.2928 61.0783 37.1022 61.0783 38.1005C61.0783 39.0989 61.888 39.9082 62.887 39.9082Z" fill="url(#paint47_linear_122_5222)"/>
<path id="Vector_49" d="M64.6957 47C64.6957 47.9733 63.8609 48.8076 62.887 48.8076C61.913 48.8076 61.0783 47.9733 61.0783 47C61.0783 46.0266 61.913 45.1923 62.887 45.1923C63.8609 45.1923 64.6957 46.0266 64.6957 47Z" fill="url(#paint48_linear_122_5222)"/>
<path id="Vector_50" d="M64.6957 55.8994C64.6957 56.8727 63.8609 57.7071 62.887 57.7071C61.913 57.7071 61.0783 56.8727 61.0783 55.8994C61.0783 54.926 61.913 54.0917 62.887 54.0917C63.8609 54.0917 64.6957 54.926 64.6957 55.8994Z" fill="url(#paint49_linear_122_5222)"/>
<path id="Vector_51" d="M62.887 66.7455C63.8859 66.7455 64.6957 65.9362 64.6957 64.9378C64.6957 63.9395 63.8859 63.1301 62.887 63.1301C61.888 63.1301 61.0783 63.9395 61.0783 64.9378C61.0783 65.9362 61.888 66.7455 62.887 66.7455Z" fill="url(#paint50_linear_122_5222)"/>
<path id="Vector_52" d="M56.7652 29.0621C56.7652 30.0354 56.0696 30.7307 55.0957 30.7307C54.1217 30.7307 53.4261 30.0354 53.4261 29.0621C53.4261 28.0887 54.1217 27.3934 55.0957 27.3934C56.0696 27.3934 56.7652 28.0887 56.7652 29.0621Z" fill="url(#paint51_linear_122_5222)"/>
<path id="Vector_53" d="M56.7652 38.1006C56.7652 39.074 56.0696 39.7692 55.0957 39.7692C54.1217 39.7692 53.4261 39.074 53.4261 38.1006C53.4261 37.1272 54.1217 36.432 55.0957 36.432C56.0696 36.2929 56.7652 37.1272 56.7652 38.1006Z" fill="url(#paint52_linear_122_5222)"/>
<path id="Vector_54" d="M56.7652 46.9999C56.7652 47.9733 56.0696 48.6686 55.0957 48.6686C54.1217 48.6686 53.4261 47.9733 53.4261 46.9999C53.4261 46.0266 54.1217 45.3313 55.0957 45.3313C56.0696 45.3313 56.7652 46.0266 56.7652 46.9999Z" fill="url(#paint53_linear_122_5222)"/>
<path id="Vector_55" d="M56.7652 55.8994C56.7652 56.8727 56.0696 57.568 55.0957 57.568C54.1217 57.568 53.4261 56.8727 53.4261 55.8994C53.4261 54.926 54.1217 54.2307 55.0957 54.2307C56.0696 54.2307 56.7652 55.065 56.7652 55.8994Z" fill="url(#paint54_linear_122_5222)"/>
<path id="Vector_56" d="M56.7652 64.9379C56.7652 65.9113 56.0696 66.6065 55.0957 66.6065C54.1217 66.6065 53.4261 65.9113 53.4261 64.9379C53.4261 63.9645 54.1217 63.2692 55.0957 63.2692C56.0696 63.1302 56.7652 63.9645 56.7652 64.9379Z" fill="url(#paint55_linear_122_5222)"/>
<path id="Vector_57" d="M48.8348 29.0622C48.8348 29.8965 48.1391 30.5918 47.3043 30.5918C46.4696 30.5918 45.7739 29.8965 45.7739 29.0622C45.7739 28.2279 46.4696 27.5326 47.3043 27.5326C48.1391 27.5326 48.8348 28.2279 48.8348 29.0622Z" fill="url(#paint56_linear_122_5222)"/>
<path id="Vector_58" d="M48.8348 38.1006C48.8348 38.935 48.1391 39.6302 47.3043 39.6302C46.4696 39.6302 45.7739 38.935 45.7739 38.1006C45.7739 37.2663 46.4696 36.432 47.3043 36.432C48.1391 36.432 48.8348 37.1273 48.8348 38.1006Z" fill="url(#paint57_linear_122_5222)"/>
<path id="Vector_59" d="M48.8348 47C48.8348 47.8344 48.1391 48.5296 47.3043 48.5296C46.4696 48.5296 45.7739 47.8344 45.7739 47C45.7739 46.1657 46.4696 45.4705 47.3043 45.4705C48.1391 45.4705 48.8348 46.1657 48.8348 47Z" fill="url(#paint58_linear_122_5222)"/>
<path id="Vector_60" d="M48.8348 55.8995C48.8348 56.7338 48.1391 57.429 47.3043 57.429C46.4696 57.429 45.7739 56.7338 45.7739 55.8995C45.7739 55.0651 46.4696 54.3699 47.3043 54.3699C48.1391 54.3699 48.8348 55.0651 48.8348 55.8995Z" fill="url(#paint59_linear_122_5222)"/>
<path id="Vector_61" d="M48.8348 64.9379C48.8348 65.7722 48.1391 66.4675 47.3043 66.4675C46.4696 66.4675 45.7739 65.7722 45.7739 64.9379C45.7739 64.1036 46.4696 63.4083 47.3043 63.4083C48.1391 63.4083 48.8348 63.9645 48.8348 64.9379Z" fill="url(#paint60_linear_122_5222)"/>
<path id="Vector_62" d="M40.9043 29.0622C40.9043 29.8965 40.2087 30.4527 39.513 30.4527C38.6783 30.4527 38.1217 29.7574 38.1217 29.0622C38.1217 28.3669 38.8174 27.6716 39.513 27.6716C40.3478 27.6716 40.9043 28.3669 40.9043 29.0622Z" fill="url(#paint61_linear_122_5222)"/>
<path id="Vector_63" d="M40.9043 38.1006C40.9043 38.9349 40.2087 39.4911 39.513 39.4911C38.6783 39.4911 38.1217 38.7959 38.1217 38.1006C38.1217 37.2663 38.8174 36.7101 39.513 36.7101C40.3478 36.571 40.9043 37.2663 40.9043 38.1006Z" fill="url(#paint62_linear_122_5222)"/>
<path id="Vector_64" d="M40.9043 47C40.9043 47.8344 40.2087 48.3906 39.513 48.3906C38.6783 48.3906 38.1217 47.6953 38.1217 47C38.1217 46.1657 38.8174 45.6095 39.513 45.6095C40.3478 45.6095 40.9043 46.1657 40.9043 47Z" fill="url(#paint63_linear_122_5222)"/>
<path id="Vector_65" d="M40.9043 55.8994C40.9043 56.7338 40.2087 57.29 39.513 57.29C38.6783 57.29 38.1217 56.5947 38.1217 55.8994C38.1217 55.0651 38.8174 54.5089 39.513 54.5089C40.3478 54.5089 40.9043 55.2042 40.9043 55.8994Z" fill="url(#paint64_linear_122_5222)"/>
<path id="Vector_66" d="M40.9043 64.9379C40.9043 65.7722 40.2087 66.3284 39.513 66.3284C38.6783 66.3284 38.1217 65.6331 38.1217 64.9379C38.1217 64.2426 38.8174 63.5473 39.513 63.5473C40.3478 63.4083 40.9043 64.1036 40.9043 64.9379Z" fill="url(#paint65_linear_122_5222)"/>
<path id="Vector_67" d="M31.8609 30.3136C32.5524 30.3136 33.1131 29.7533 33.1131 29.0621C33.1131 28.371 32.5524 27.8107 31.8609 27.8107C31.1693 27.8107 30.6087 28.371 30.6087 29.0621C30.6087 29.7533 31.1693 30.3136 31.8609 30.3136Z" fill="url(#paint66_linear_122_5222)"/>
<path id="Vector_68" d="M31.8609 39.3521C32.5524 39.3521 33.1131 38.7918 33.1131 38.1006C33.1131 37.4094 32.5524 36.8491 31.8609 36.8491C31.1693 36.8491 30.6087 37.4094 30.6087 38.1006C30.6087 38.7918 31.1693 39.3521 31.8609 39.3521Z" fill="url(#paint67_linear_122_5222)"/>
<path id="Vector_69" d="M33.1131 47C33.1131 47.6953 32.5565 48.2515 31.8609 48.2515C31.1652 48.2515 30.4696 47.6953 30.4696 47C30.4696 46.3048 31.0261 45.7485 31.7217 45.7485C32.4174 45.7485 33.1131 46.3048 33.1131 47Z" fill="url(#paint68_linear_122_5222)"/>
<path id="Vector_70" d="M31.8609 57.1509C32.5524 57.1509 33.1131 56.5906 33.1131 55.8994C33.1131 55.2083 32.5524 54.6479 31.8609 54.6479C31.1693 54.6479 30.6087 55.2083 30.6087 55.8994C30.6087 56.5906 31.1693 57.1509 31.8609 57.1509Z" fill="url(#paint69_linear_122_5222)"/>
<path id="Vector_71" d="M31.8609 66.1894C32.5524 66.1894 33.1131 65.6291 33.1131 64.9379C33.1131 64.2467 32.5524 63.6864 31.8609 63.6864C31.1693 63.6864 30.6087 64.2467 30.6087 64.9379C30.6087 65.6291 31.1693 66.1894 31.8609 66.1894Z" fill="url(#paint70_linear_122_5222)"/>
<path id="Vector_72" d="M25.1826 29.0621C25.1826 29.6183 24.6261 30.1746 24.0696 30.1746C23.5131 30.1746 22.9565 29.7574 22.9565 29.0621C22.9565 28.5059 23.5131 27.9497 24.0696 27.9497C24.6261 27.9497 25.1826 28.5059 25.1826 29.0621Z" fill="url(#paint71_linear_122_5222)"/>
<path id="Vector_73" d="M25.1826 38.1006C25.1826 38.6568 24.6261 39.213 24.0696 39.213C23.5131 39.213 22.9565 38.6568 22.9565 38.1006C22.9565 37.5444 23.5131 36.9882 24.0696 36.9882C24.6261 36.9882 25.1826 37.4053 25.1826 38.1006Z" fill="url(#paint72_linear_122_5222)"/>
<path id="Vector_74" d="M25.1826 47C25.1826 47.5562 24.6261 48.1124 24.0696 48.1124C23.5131 48.1124 22.9565 47.5562 22.9565 47C22.9565 46.4438 23.3739 45.8876 24.0696 45.8876C24.7652 45.8876 25.1826 46.3047 25.1826 47Z" fill="url(#paint73_linear_122_5222)"/>
<path id="Vector_75" d="M25.1826 55.8994C25.1826 56.4556 24.6261 57.0118 24.0696 57.0118C23.5131 57.0118 22.9565 56.5947 22.9565 55.8994C22.9565 55.2041 23.5131 54.787 24.0696 54.787C24.6261 54.787 25.1826 55.3432 25.1826 55.8994Z" fill="url(#paint74_linear_122_5222)"/>
<path id="Vector_76" d="M25.1826 64.9379C25.1826 65.4941 24.6261 66.0503 24.0696 66.0503C23.5131 66.0503 22.9565 65.4941 22.9565 64.9379C22.9565 64.3817 23.5131 63.8254 24.0696 63.8254C24.6261 63.8254 25.1826 64.2426 25.1826 64.9379Z" fill="url(#paint75_linear_122_5222)"/>
<path id="Vector_77" d="M17.2522 29.0621C17.2522 29.6183 16.8348 30.0355 16.2783 30.0355C15.7217 30.0355 15.3044 29.6183 15.3044 29.0621C15.3044 28.5059 15.7217 28.0887 16.2783 28.0887C16.8348 28.0887 17.2522 28.5059 17.2522 29.0621Z" fill="url(#paint76_linear_122_5222)"/>
<path id="Vector_78" d="M17.2522 38.1006C17.2522 38.6568 16.8348 39.0739 16.2783 39.0739C15.7217 39.0739 15.3044 38.6568 15.3044 38.1006C15.3044 37.5444 15.7217 37.1272 16.2783 37.1272C16.8348 36.9881 17.2522 37.5444 17.2522 38.1006Z" fill="url(#paint77_linear_122_5222)"/>
<path id="Vector_79" d="M17.2522 47C17.2522 47.5562 16.8348 47.9734 16.2783 47.9734C15.7217 47.9734 15.3044 47.5562 15.3044 47C15.3044 46.4438 15.7217 46.0266 16.2783 46.0266C16.8348 46.0266 17.2522 46.4438 17.2522 47Z" fill="url(#paint78_linear_122_5222)"/>
<path id="Vector_80" d="M17.2522 55.8994C17.2522 56.4556 16.8348 56.8728 16.2783 56.8728C15.7217 56.8728 15.3044 56.4556 15.3044 55.8994C15.3044 55.3432 15.7217 54.926 16.2783 54.926C16.8348 54.926 17.2522 55.3432 17.2522 55.8994Z" fill="url(#paint79_linear_122_5222)"/>
<path id="Vector_81" d="M17.2522 64.9379C17.2522 65.4941 16.8348 65.9112 16.2783 65.9112C15.7217 65.9112 15.3044 65.355 15.3044 64.9379C15.3044 64.3816 15.7217 63.9645 16.2783 63.9645C16.8348 63.8254 17.2522 64.3816 17.2522 64.9379Z" fill="url(#paint80_linear_122_5222)"/>
<path id="Vector_82" d="M9.32174 29.0621C9.32174 29.4793 8.90435 29.8964 8.48696 29.8964C8.06957 29.8964 7.65218 29.6183 7.65218 29.0621C7.65218 28.5059 8.06957 28.2278 8.48696 28.2278C8.90435 28.2278 9.32174 28.6449 9.32174 29.0621Z" fill="url(#paint81_linear_122_5222)"/>
<path id="Vector_83" d="M9.32174 38.1006C9.32174 38.5177 8.90435 38.9349 8.48696 38.9349C8.06957 38.9349 7.65218 38.5177 7.65218 38.1006C7.65218 37.6834 8.06957 37.2662 8.48696 37.2662C8.90435 37.2662 9.32174 37.5443 9.32174 38.1006Z" fill="url(#paint82_linear_122_5222)"/>
<path id="Vector_84" d="M9.32174 47C9.32174 47.4171 8.90435 47.8343 8.48696 47.8343C8.06957 47.8343 7.65218 47.4171 7.65218 47C7.65218 46.5828 8.06957 46.1656 8.48696 46.1656C8.90435 46.1656 9.32174 46.5828 9.32174 47Z" fill="url(#paint83_linear_122_5222)"/>
<path id="Vector_85" d="M9.32174 55.8994C9.32174 56.3165 8.90435 56.7337 8.48696 56.7337C8.06957 56.7337 7.65218 56.4556 7.65218 55.8994C7.65218 55.3432 8.06957 55.0651 8.48696 55.0651C8.90435 55.0651 9.32174 55.4822 9.32174 55.8994Z" fill="url(#paint84_linear_122_5222)"/>
<path id="Vector_86" d="M9.32174 64.9378C9.32174 65.355 8.90435 65.7722 8.48696 65.7722C8.06957 65.7722 7.65218 65.355 7.65218 64.9378C7.65218 64.5207 8.06957 64.1035 8.48696 64.1035C8.90435 64.1035 9.32174 64.3816 9.32174 64.9378Z" fill="url(#paint85_linear_122_5222)"/>
<path id="Vector_87" d="M1.3913 29.0621C1.3913 29.4792 1.11304 29.7574 0.695652 29.7574C0.278261 29.7574 0 29.4792 0 29.0621C0 28.6449 0.278261 28.3668 0.695652 28.3668C1.11304 28.3668 1.3913 28.6449 1.3913 29.0621Z" fill="url(#paint86_linear_122_5222)"/>
<path id="Vector_88" d="M1.3913 38.1006C1.3913 38.5178 1.11304 38.7959 0.695652 38.7959C0.278261 38.7959 0 38.3787 0 38.1006C0 37.6834 0.278261 37.4053 0.695652 37.4053C1.11304 37.2663 1.3913 37.6834 1.3913 38.1006Z" fill="url(#paint87_linear_122_5222)"/>
<path id="Vector_89" d="M1.3913 47C1.3913 47.4171 1.11304 47.6952 0.695652 47.6952C0.278261 47.6952 0 47.4171 0 47C0 46.5828 0.278261 46.3047 0.695652 46.3047C1.11304 46.3047 1.3913 46.5828 1.3913 47Z" fill="url(#paint88_linear_122_5222)"/>
<path id="Vector_90" d="M1.3913 55.8994C1.3913 56.3165 1.11304 56.5946 0.695652 56.5946C0.278261 56.5946 0 56.3165 0 55.8994C0 55.4822 0.278261 55.2041 0.695652 55.2041C1.11304 55.2041 1.3913 55.4822 1.3913 55.8994Z" fill="url(#paint89_linear_122_5222)"/>
<path id="Vector_91" d="M1.3913 64.9378C1.3913 65.355 1.11304 65.6331 0.695652 65.6331C0.278261 65.6331 0 65.2159 0 64.9378C0 64.5207 0.278261 64.2426 0.695652 64.2426C1.11304 64.2426 1.3913 64.5207 1.3913 64.9378Z" fill="url(#paint90_linear_122_5222)"/>
</g>
</g>
<defs>
<linearGradient id="paint0_linear_122_5222" x1="125.142" y1="41.2613" x2="123.251" y2="49.501" gradientUnits="userSpaceOnUse">
<stop stop-color="#B58E69"/>
<stop offset="1" stop-color="#8E6C4D"/>
</linearGradient>
<linearGradient id="paint1_linear_122_5222" x1="117.348" y1="32.6352" x2="115.547" y2="40.4826" gradientUnits="userSpaceOnUse">
<stop stop-color="#B58E69"/>
<stop offset="1" stop-color="#8E6C4D"/>
</linearGradient>
<linearGradient id="paint2_linear_122_5222" x1="117.348" y1="41.5347" x2="115.547" y2="49.382" gradientUnits="userSpaceOnUse">
<stop stop-color="#B58E69"/>
<stop offset="1" stop-color="#8E6C4D"/>
</linearGradient>
<linearGradient id="paint3_linear_122_5222" x1="117.348" y1="50.434" x2="115.547" y2="58.2813" gradientUnits="userSpaceOnUse">
<stop stop-color="#B58E69"/>
<stop offset="1" stop-color="#8E6C4D"/>
</linearGradient>
<linearGradient id="paint4_linear_122_5222" x1="109.553" y1="23.8701" x2="107.843" y2="31.325" gradientUnits="userSpaceOnUse">
<stop stop-color="#B58E69"/>
<stop offset="1" stop-color="#8E6C4D"/>
</linearGradient>
<linearGradient id="paint5_linear_122_5222" x1="109.553" y1="32.8928" x2="107.836" y2="40.3611" gradientUnits="userSpaceOnUse">
<stop stop-color="#B58E69"/>
<stop offset="1" stop-color="#8E6C4D"/>
</linearGradient>
<linearGradient id="paint6_linear_122_5222" x1="109.553" y1="41.8079" x2="107.843" y2="49.2629" gradientUnits="userSpaceOnUse">
<stop stop-color="#B58E69"/>
<stop offset="1" stop-color="#8E6C4D"/>
</linearGradient>
<linearGradient id="paint7_linear_122_5222" x1="109.553" y1="50.7073" x2="107.843" y2="58.1623" gradientUnits="userSpaceOnUse">
<stop stop-color="#B58E69"/>
<stop offset="1" stop-color="#8E6C4D"/>
</linearGradient>
<linearGradient id="paint8_linear_122_5222" x1="109.553" y1="59.7301" x2="107.836" y2="67.1984" gradientUnits="userSpaceOnUse">
<stop stop-color="#B58E69"/>
<stop offset="1" stop-color="#8E6C4D"/>
</linearGradient>
<linearGradient id="paint9_linear_122_5222" x1="101.759" y1="15.2439" x2="100.139" y2="22.3065" gradientUnits="userSpaceOnUse">
<stop stop-color="#B58E69"/>
<stop offset="1" stop-color="#8E6C4D"/>
</linearGradient>
<linearGradient id="paint10_linear_122_5222" x1="101.759" y1="24.1433" x2="100.139" y2="31.2059" gradientUnits="userSpaceOnUse">
<stop stop-color="#B58E69"/>
<stop offset="1" stop-color="#8E6C4D"/>
</linearGradient>
<linearGradient id="paint11_linear_122_5222" x1="101.759" y1="33.1644" x2="100.131" y2="40.2418" gradientUnits="userSpaceOnUse">
<stop stop-color="#B58E69"/>
<stop offset="1" stop-color="#8E6C4D"/>
</linearGradient>
<linearGradient id="paint12_linear_122_5222" x1="101.759" y1="42.0812" x2="100.139" y2="49.1437" gradientUnits="userSpaceOnUse">
<stop stop-color="#B58E69"/>
<stop offset="1" stop-color="#8E6C4D"/>
</linearGradient>
<linearGradient id="paint13_linear_122_5222" x1="101.759" y1="50.9806" x2="100.139" y2="58.0432" gradientUnits="userSpaceOnUse">
<stop stop-color="#B58E69"/>
<stop offset="1" stop-color="#8E6C4D"/>
</linearGradient>
<linearGradient id="paint14_linear_122_5222" x1="101.759" y1="60.0033" x2="100.132" y2="67.0793" gradientUnits="userSpaceOnUse">
<stop stop-color="#B58E69"/>
<stop offset="1" stop-color="#8E6C4D"/>
</linearGradient>
<linearGradient id="paint15_linear_122_5222" x1="101.759" y1="68.9185" x2="100.139" y2="75.981" gradientUnits="userSpaceOnUse">
<stop stop-color="#B58E69"/>
<stop offset="1" stop-color="#8E6C4D"/>
</linearGradient>
<linearGradient id="paint16_linear_122_5222" x1="94.1037" y1="6.47869" x2="92.5733" y2="13.1489" gradientUnits="userSpaceOnUse">
<stop stop-color="#B58E69"/>
<stop offset="1" stop-color="#8E6C4D"/>
</linearGradient>
<linearGradient id="paint17_linear_122_5222" x1="94.1037" y1="15.5171" x2="92.5733" y2="22.1874" gradientUnits="userSpaceOnUse">
<stop stop-color="#B58E69"/>
<stop offset="1" stop-color="#8E6C4D"/>
</linearGradient>
<linearGradient id="paint18_linear_122_5222" x1="94.1037" y1="24.4166" x2="92.5733" y2="31.0868" gradientUnits="userSpaceOnUse">
<stop stop-color="#B58E69"/>
<stop offset="1" stop-color="#8E6C4D"/>
</linearGradient>
<linearGradient id="paint19_linear_122_5222" x1="94.1037" y1="33.4376" x2="92.5661" y2="40.1228" gradientUnits="userSpaceOnUse">
<stop stop-color="#B58E69"/>
<stop offset="1" stop-color="#8E6C4D"/>
</linearGradient>
<linearGradient id="paint20_linear_122_5222" x1="94.1037" y1="42.3544" x2="92.5733" y2="49.0246" gradientUnits="userSpaceOnUse">
<stop stop-color="#B58E69"/>
<stop offset="1" stop-color="#8E6C4D"/>
</linearGradient>
<linearGradient id="paint21_linear_122_5222" x1="94.1037" y1="51.2538" x2="92.5733" y2="57.924" gradientUnits="userSpaceOnUse">
<stop stop-color="#B58E69"/>
<stop offset="1" stop-color="#8E6C4D"/>
</linearGradient>
<linearGradient id="paint22_linear_122_5222" x1="94.1037" y1="60.2749" x2="92.5661" y2="66.96" gradientUnits="userSpaceOnUse">
<stop stop-color="#B58E69"/>
<stop offset="1" stop-color="#8E6C4D"/>
</linearGradient>
<linearGradient id="paint23_linear_122_5222" x1="94.1037" y1="69.1917" x2="92.5733" y2="75.8619" gradientUnits="userSpaceOnUse">
<stop stop-color="#B58E69"/>
<stop offset="1" stop-color="#8E6C4D"/>
</linearGradient>
<linearGradient id="paint24_linear_122_5222" x1="94.1037" y1="78.0911" x2="92.5733" y2="84.7613" gradientUnits="userSpaceOnUse">
<stop stop-color="#B58E69"/>
<stop offset="1" stop-color="#8E6C4D"/>
</linearGradient>
<linearGradient id="paint25_linear_122_5222" x1="86.3036" y1="-2.14747" x2="84.8667" y2="4.13203" gradientUnits="userSpaceOnUse">
<stop stop-color="#B58E69"/>
<stop offset="1" stop-color="#8E6C4D"/>
</linearGradient>
<linearGradient id="paint26_linear_122_5222" x1="86.3093" y1="6.75195" x2="84.869" y2="13.0298" gradientUnits="userSpaceOnUse">
<stop stop-color="#B58E69"/>
<stop offset="1" stop-color="#8E6C4D"/>
</linearGradient>
<linearGradient id="paint27_linear_122_5222" x1="86.3093" y1="15.7904" x2="84.869" y2="22.0682" gradientUnits="userSpaceOnUse">
<stop stop-color="#B58E69"/>
<stop offset="1" stop-color="#8E6C4D"/>
</linearGradient>
<linearGradient id="paint28_linear_122_5222" x1="86.3036" y1="24.6898" x2="84.8667" y2="30.9693" gradientUnits="userSpaceOnUse">
<stop stop-color="#B58E69"/>
<stop offset="1" stop-color="#8E6C4D"/>
</linearGradient>
<linearGradient id="paint29_linear_122_5222" x1="86.3093" y1="33.5221" x2="84.7825" y2="39.9757" gradientUnits="userSpaceOnUse">
<stop stop-color="#B58E69"/>
<stop offset="1" stop-color="#8E6C4D"/>
</linearGradient>
<linearGradient id="paint30_linear_122_5222" x1="86.3093" y1="42.6277" x2="84.869" y2="48.9055" gradientUnits="userSpaceOnUse">
<stop stop-color="#B58E69"/>
<stop offset="1" stop-color="#8E6C4D"/>
</linearGradient>
<linearGradient id="paint31_linear_122_5222" x1="86.3093" y1="51.5271" x2="84.869" y2="57.8049" gradientUnits="userSpaceOnUse">
<stop stop-color="#B58E69"/>
<stop offset="1" stop-color="#8E6C4D"/>
</linearGradient>
<linearGradient id="paint32_linear_122_5222" x1="86.3093" y1="60.3594" x2="84.7825" y2="66.8129" gradientUnits="userSpaceOnUse">
<stop stop-color="#B58E69"/>
<stop offset="1" stop-color="#8E6C4D"/>
</linearGradient>
<linearGradient id="paint33_linear_122_5222" x1="86.3093" y1="69.465" x2="84.869" y2="75.7428" gradientUnits="userSpaceOnUse">
<stop stop-color="#B58E69"/>
<stop offset="1" stop-color="#8E6C4D"/>
</linearGradient>
<linearGradient id="paint34_linear_122_5222" x1="86.3093" y1="78.3644" x2="84.869" y2="84.6422" gradientUnits="userSpaceOnUse">
<stop stop-color="#B58E69"/>
<stop offset="1" stop-color="#8E6C4D"/>
</linearGradient>
<linearGradient id="paint35_linear_122_5222" x1="86.3093" y1="87.1967" x2="84.7825" y2="93.6502" gradientUnits="userSpaceOnUse">
<stop stop-color="#B58E69"/>
<stop offset="1" stop-color="#8E6C4D"/>
</linearGradient>
<linearGradient id="paint36_linear_122_5222" x1="78.515" y1="24.9631" x2="77.1647" y2="30.8485" gradientUnits="userSpaceOnUse">
<stop stop-color="#B58E69"/>
<stop offset="1" stop-color="#8E6C4D"/>
</linearGradient>
<linearGradient id="paint37_linear_122_5222" x1="78.515" y1="34.0015" x2="77.1647" y2="39.887" gradientUnits="userSpaceOnUse">
<stop stop-color="#B58E69"/>
<stop offset="1" stop-color="#8E6C4D"/>
</linearGradient>
<linearGradient id="paint38_linear_122_5222" x1="78.515" y1="42.9009" x2="77.1647" y2="48.7864" gradientUnits="userSpaceOnUse">
<stop stop-color="#B58E69"/>
<stop offset="1" stop-color="#8E6C4D"/>
</linearGradient>
<linearGradient id="paint39_linear_122_5222" x1="78.515" y1="51.8003" x2="77.1647" y2="57.6858" gradientUnits="userSpaceOnUse">
<stop stop-color="#B58E69"/>
<stop offset="1" stop-color="#8E6C4D"/>
</linearGradient>
<linearGradient id="paint40_linear_122_5222" x1="78.515" y1="60.8388" x2="77.1647" y2="66.7243" gradientUnits="userSpaceOnUse">
<stop stop-color="#B58E69"/>
<stop offset="1" stop-color="#8E6C4D"/>
</linearGradient>
<linearGradient id="paint41_linear_122_5222" x1="70.7207" y1="25.2363" x2="69.4604" y2="30.7294" gradientUnits="userSpaceOnUse">
<stop stop-color="#B58E69"/>
<stop offset="1" stop-color="#8E6C4D"/>
</linearGradient>
<linearGradient id="paint42_linear_122_5222" x1="70.7207" y1="34.2551" x2="69.4522" y2="39.765" gradientUnits="userSpaceOnUse">
<stop stop-color="#B58E69"/>
<stop offset="1" stop-color="#8E6C4D"/>
</linearGradient>
<linearGradient id="paint43_linear_122_5222" x1="70.7207" y1="43.1742" x2="69.4604" y2="48.6673" gradientUnits="userSpaceOnUse">
<stop stop-color="#B58E69"/>
<stop offset="1" stop-color="#8E6C4D"/>
</linearGradient>
<linearGradient id="paint44_linear_122_5222" x1="70.7207" y1="52.0736" x2="69.4604" y2="57.5667" gradientUnits="userSpaceOnUse">
<stop stop-color="#B58E69"/>
<stop offset="1" stop-color="#8E6C4D"/>
</linearGradient>
<linearGradient id="paint45_linear_122_5222" x1="70.7207" y1="60.9059" x2="69.3737" y2="66.5746" gradientUnits="userSpaceOnUse">
<stop stop-color="#B58E69"/>
<stop offset="1" stop-color="#8E6C4D"/>
</linearGradient>
<linearGradient id="paint46_linear_122_5222" x1="62.9263" y1="25.5096" x2="61.7561" y2="30.6103" gradientUnits="userSpaceOnUse">
<stop stop-color="#B58E69"/>
<stop offset="1" stop-color="#8E6C4D"/>
</linearGradient>
<linearGradient id="paint47_linear_122_5222" x1="62.9263" y1="34.548" x2="61.7561" y2="39.6488" gradientUnits="userSpaceOnUse">
<stop stop-color="#B58E69"/>
<stop offset="1" stop-color="#8E6C4D"/>
</linearGradient>
<linearGradient id="paint48_linear_122_5222" x1="62.9263" y1="43.4474" x2="61.7561" y2="48.5482" gradientUnits="userSpaceOnUse">
<stop stop-color="#B58E69"/>
<stop offset="1" stop-color="#8E6C4D"/>
</linearGradient>
<linearGradient id="paint49_linear_122_5222" x1="62.9263" y1="52.3469" x2="61.7561" y2="57.4476" gradientUnits="userSpaceOnUse">
<stop stop-color="#B58E69"/>
<stop offset="1" stop-color="#8E6C4D"/>
</linearGradient>
<linearGradient id="paint50_linear_122_5222" x1="62.9263" y1="61.3853" x2="61.7561" y2="66.4861" gradientUnits="userSpaceOnUse">
<stop stop-color="#B58E69"/>
<stop offset="1" stop-color="#8E6C4D"/>
</linearGradient>
<linearGradient id="paint51_linear_122_5222" x1="55.132" y1="25.7828" x2="54.0518" y2="30.4912" gradientUnits="userSpaceOnUse">
<stop stop-color="#B58E69"/>
<stop offset="1" stop-color="#8E6C4D"/>
</linearGradient>
<linearGradient id="paint52_linear_122_5222" x1="55.132" y1="34.7988" x2="54.0424" y2="39.5265" gradientUnits="userSpaceOnUse">
<stop stop-color="#B58E69"/>
<stop offset="1" stop-color="#8E6C4D"/>
</linearGradient>
<linearGradient id="paint53_linear_122_5222" x1="55.132" y1="43.7207" x2="54.0518" y2="48.4291" gradientUnits="userSpaceOnUse">
<stop stop-color="#B58E69"/>
<stop offset="1" stop-color="#8E6C4D"/>
</linearGradient>
<linearGradient id="paint54_linear_122_5222" x1="55.132" y1="52.6201" x2="54.0518" y2="57.3285" gradientUnits="userSpaceOnUse">
<stop stop-color="#B58E69"/>
<stop offset="1" stop-color="#8E6C4D"/>
</linearGradient>
<linearGradient id="paint55_linear_122_5222" x1="55.132" y1="61.6361" x2="54.0424" y2="66.3638" gradientUnits="userSpaceOnUse">
<stop stop-color="#B58E69"/>
<stop offset="1" stop-color="#8E6C4D"/>
</linearGradient>
<linearGradient id="paint56_linear_122_5222" x1="47.3377" y1="26.0562" x2="46.3475" y2="30.3722" gradientUnits="userSpaceOnUse">
<stop stop-color="#B58E69"/>
<stop offset="1" stop-color="#8E6C4D"/>
</linearGradient>
<linearGradient id="paint57_linear_122_5222" x1="47.3377" y1="34.8885" x2="46.2604" y2="39.3798" gradientUnits="userSpaceOnUse">
<stop stop-color="#B58E69"/>
<stop offset="1" stop-color="#8E6C4D"/>
</linearGradient>
<linearGradient id="paint58_linear_122_5222" x1="47.3377" y1="43.9941" x2="46.3475" y2="48.3101" gradientUnits="userSpaceOnUse">
<stop stop-color="#B58E69"/>
<stop offset="1" stop-color="#8E6C4D"/>
</linearGradient>
<linearGradient id="paint59_linear_122_5222" x1="47.3377" y1="52.8935" x2="46.3475" y2="57.2095" gradientUnits="userSpaceOnUse">
<stop stop-color="#B58E69"/>
<stop offset="1" stop-color="#8E6C4D"/>
</linearGradient>
<linearGradient id="paint60_linear_122_5222" x1="47.3377" y1="61.9319" x2="46.3475" y2="66.248" gradientUnits="userSpaceOnUse">
<stop stop-color="#B58E69"/>
<stop offset="1" stop-color="#8E6C4D"/>
</linearGradient>
<linearGradient id="paint61_linear_122_5222" x1="39.5433" y1="26.3295" x2="38.6431" y2="30.2531" gradientUnits="userSpaceOnUse">
<stop stop-color="#B58E69"/>
<stop offset="1" stop-color="#8E6C4D"/>
</linearGradient>
<linearGradient id="paint62_linear_122_5222" x1="39.5433" y1="35.3415" x2="38.6322" y2="39.2877" gradientUnits="userSpaceOnUse">
<stop stop-color="#B58E69"/>
<stop offset="1" stop-color="#8E6C4D"/>
</linearGradient>
<linearGradient id="paint63_linear_122_5222" x1="39.5433" y1="44.2673" x2="38.6431" y2="48.191" gradientUnits="userSpaceOnUse">
<stop stop-color="#B58E69"/>
<stop offset="1" stop-color="#8E6C4D"/>
</linearGradient>
<linearGradient id="paint64_linear_122_5222" x1="39.5433" y1="53.1667" x2="38.6431" y2="57.0904" gradientUnits="userSpaceOnUse">
<stop stop-color="#B58E69"/>
<stop offset="1" stop-color="#8E6C4D"/>
</linearGradient>
<linearGradient id="paint65_linear_122_5222" x1="39.5433" y1="62.1788" x2="38.6322" y2="66.125" gradientUnits="userSpaceOnUse">
<stop stop-color="#B58E69"/>
<stop offset="1" stop-color="#8E6C4D"/>
</linearGradient>
<linearGradient id="paint66_linear_122_5222" x1="31.8881" y1="26.6027" x2="31.078" y2="30.134" gradientUnits="userSpaceOnUse">
<stop stop-color="#B58E69"/>
<stop offset="1" stop-color="#8E6C4D"/>
</linearGradient>
<linearGradient id="paint67_linear_122_5222" x1="31.8881" y1="35.6412" x2="31.078" y2="39.1725" gradientUnits="userSpaceOnUse">
<stop stop-color="#B58E69"/>
<stop offset="1" stop-color="#8E6C4D"/>
</linearGradient>
<linearGradient id="paint68_linear_122_5222" x1="31.8201" y1="44.5406" x2="31.0486" y2="48.0901" gradientUnits="userSpaceOnUse">
<stop stop-color="#B58E69"/>
<stop offset="1" stop-color="#8E6C4D"/>
</linearGradient>
<linearGradient id="paint69_linear_122_5222" x1="31.8881" y1="53.44" x2="31.078" y2="56.9713" gradientUnits="userSpaceOnUse">
<stop stop-color="#B58E69"/>
<stop offset="1" stop-color="#8E6C4D"/>
</linearGradient>
<linearGradient id="paint70_linear_122_5222" x1="31.8881" y1="62.4784" x2="31.078" y2="66.0097" gradientUnits="userSpaceOnUse">
<stop stop-color="#B58E69"/>
<stop offset="1" stop-color="#8E6C4D"/>
</linearGradient>
<linearGradient id="paint71_linear_122_5222" x1="24.0938" y1="26.876" x2="23.3736" y2="30.0149" gradientUnits="userSpaceOnUse">
<stop stop-color="#B58E69"/>
<stop offset="1" stop-color="#8E6C4D"/>
</linearGradient>
<linearGradient id="paint72_linear_122_5222" x1="24.0938" y1="35.9144" x2="23.3737" y2="39.0533" gradientUnits="userSpaceOnUse">
<stop stop-color="#B58E69"/>
<stop offset="1" stop-color="#8E6C4D"/>
</linearGradient>
<linearGradient id="paint73_linear_122_5222" x1="24.0938" y1="44.8138" x2="23.3736" y2="47.9528" gradientUnits="userSpaceOnUse">
<stop stop-color="#B58E69"/>
<stop offset="1" stop-color="#8E6C4D"/>
</linearGradient>
<linearGradient id="paint74_linear_122_5222" x1="24.0938" y1="53.7133" x2="23.3737" y2="56.8522" gradientUnits="userSpaceOnUse">
<stop stop-color="#B58E69"/>
<stop offset="1" stop-color="#8E6C4D"/>
</linearGradient>
<linearGradient id="paint75_linear_122_5222" x1="24.0938" y1="62.7517" x2="23.3737" y2="65.8906" gradientUnits="userSpaceOnUse">
<stop stop-color="#B58E69"/>
<stop offset="1" stop-color="#8E6C4D"/>
</linearGradient>
<linearGradient id="paint76_linear_122_5222" x1="16.2995" y1="27.1492" x2="15.6693" y2="29.8958" gradientUnits="userSpaceOnUse">
<stop stop-color="#B58E69"/>
<stop offset="1" stop-color="#8E6C4D"/>
</linearGradient>
<linearGradient id="paint77_linear_122_5222" x1="16.2995" y1="36.1556" x2="15.656" y2="38.9296" gradientUnits="userSpaceOnUse">
<stop stop-color="#B58E69"/>
<stop offset="1" stop-color="#8E6C4D"/>
</linearGradient>
<linearGradient id="paint78_linear_122_5222" x1="16.2995" y1="45.0871" x2="15.6693" y2="47.8337" gradientUnits="userSpaceOnUse">
<stop stop-color="#B58E69"/>
<stop offset="1" stop-color="#8E6C4D"/>
</linearGradient>
<linearGradient id="paint79_linear_122_5222" x1="16.2995" y1="53.9865" x2="15.6693" y2="56.7331" gradientUnits="userSpaceOnUse">
<stop stop-color="#B58E69"/>
<stop offset="1" stop-color="#8E6C4D"/>
</linearGradient>
<linearGradient id="paint80_linear_122_5222" x1="16.2995" y1="62.9929" x2="15.656" y2="65.7669" gradientUnits="userSpaceOnUse">
<stop stop-color="#B58E69"/>
<stop offset="1" stop-color="#8E6C4D"/>
</linearGradient>
<linearGradient id="paint81_linear_122_5222" x1="8.50513" y1="27.4225" x2="7.96502" y2="29.7767" gradientUnits="userSpaceOnUse">
<stop stop-color="#B58E69"/>
<stop offset="1" stop-color="#8E6C4D"/>
</linearGradient>
<linearGradient id="paint82_linear_122_5222" x1="8.50513" y1="36.4609" x2="7.96502" y2="38.8151" gradientUnits="userSpaceOnUse">
<stop stop-color="#B58E69"/>
<stop offset="1" stop-color="#8E6C4D"/>
</linearGradient>
<linearGradient id="paint83_linear_122_5222" x1="8.50513" y1="45.3603" x2="7.96502" y2="47.7145" gradientUnits="userSpaceOnUse">
<stop stop-color="#B58E69"/>
<stop offset="1" stop-color="#8E6C4D"/>
</linearGradient>
<linearGradient id="paint84_linear_122_5222" x1="8.50513" y1="54.2598" x2="7.96502" y2="56.614" gradientUnits="userSpaceOnUse">
<stop stop-color="#B58E69"/>
<stop offset="1" stop-color="#8E6C4D"/>
</linearGradient>
<linearGradient id="paint85_linear_122_5222" x1="8.50513" y1="63.2982" x2="7.96502" y2="65.6524" gradientUnits="userSpaceOnUse">
<stop stop-color="#B58E69"/>
<stop offset="1" stop-color="#8E6C4D"/>
</linearGradient>
<linearGradient id="paint86_linear_122_5222" x1="0.710799" y1="27.6957" x2="0.2607" y2="29.6576" gradientUnits="userSpaceOnUse">
<stop stop-color="#B58E69"/>
<stop offset="1" stop-color="#8E6C4D"/>
</linearGradient>
<linearGradient id="paint87_linear_122_5222" x1="0.710799" y1="36.6938" x2="0.243797" y2="38.6902" gradientUnits="userSpaceOnUse">
<stop stop-color="#B58E69"/>
<stop offset="1" stop-color="#8E6C4D"/>
</linearGradient>
<linearGradient id="paint88_linear_122_5222" x1="0.710799" y1="45.6336" x2="0.2607" y2="47.5954" gradientUnits="userSpaceOnUse">
<stop stop-color="#B58E69"/>
<stop offset="1" stop-color="#8E6C4D"/>
</linearGradient>
<linearGradient id="paint89_linear_122_5222" x1="0.710799" y1="54.533" x2="0.2607" y2="56.4948" gradientUnits="userSpaceOnUse">
<stop stop-color="#B58E69"/>
<stop offset="1" stop-color="#8E6C4D"/>
</linearGradient>
<linearGradient id="paint90_linear_122_5222" x1="0.710799" y1="63.5715" x2="0.260702" y2="65.5333" gradientUnits="userSpaceOnUse">
<stop stop-color="#B58E69"/>
<stop offset="1" stop-color="#8E6C4D"/>
</linearGradient>
<clipPath id="clip0_122_5222">
<rect width="128" height="94" fill="white"/>
</clipPath>
</defs>
</svg>
