<svg width="116" height="85" viewBox="0 0 116 85" fill="none" xmlns="http://www.w3.org/2000/svg">
<g id="Frame" clip-path="url(#clip0_122_5057)">
<g id="Group">
<path id="Vector" d="M0.000540733 42.5C0.000540733 40.9911 1.25054 39.8594 2.62554 39.8594C4.12554 39.8594 5.25054 40.9911 5.25054 42.5C5.25054 44.0088 4.12554 45.1405 2.62554 45.1405C1.12554 45.1405 0.000540733 44.0088 0.000540733 42.5Z" fill="url(#paint0_linear_122_5057)"/>
<path id="Vector_2" d="M7.12627 50.5473C7.12627 49.1642 8.25127 48.0325 9.62627 48.0325C11.0013 48.0325 12.1263 49.1642 12.1263 50.5473C12.1263 51.9305 11.0013 53.0621 9.62627 53.0621C8.25127 53.1879 7.12627 52.0562 7.12627 50.5473Z" fill="url(#paint1_linear_122_5057)"/>
<path id="Vector_3" d="M7.12627 42.5C7.12627 41.1168 8.25127 39.9852 9.62627 39.9852C11.0013 39.9852 12.1263 41.1168 12.1263 42.5C12.1263 43.8831 11.0013 45.0148 9.62627 45.0148C8.25127 45.0148 7.12627 43.8831 7.12627 42.5Z" fill="url(#paint2_linear_122_5057)"/>
<path id="Vector_4" d="M7.12627 34.4526C7.12627 33.0695 8.25127 31.9378 9.62627 31.9378C11.0013 31.9378 12.1263 33.0695 12.1263 34.4526C12.1263 35.8357 11.0013 36.9674 9.62627 36.9674C8.25127 36.9674 7.12627 35.8357 7.12627 34.4526Z" fill="url(#paint3_linear_122_5057)"/>
<path id="Vector_5" d="M14.252 58.7204C14.252 57.3373 15.377 56.3314 16.627 56.3314C18.002 56.3314 19.002 57.463 19.002 58.7204C19.002 60.1036 17.877 61.1095 16.627 61.1095C15.252 61.1095 14.252 59.9778 14.252 58.7204Z" fill="url(#paint4_linear_122_5057)"/>
<path id="Vector_6" d="M14.252 50.5473C14.252 49.1642 15.377 48.1583 16.627 48.1583C18.002 48.1583 19.002 49.2899 19.002 50.5473C19.002 51.9304 17.877 52.9364 16.627 52.9364C15.252 53.0621 14.252 51.9304 14.252 50.5473Z" fill="url(#paint5_linear_122_5057)"/>
<path id="Vector_7" d="M14.252 42.5C14.252 41.1168 15.377 40.1109 16.627 40.1109C18.002 40.1109 19.002 41.2426 19.002 42.5C19.002 43.8831 17.877 44.889 16.627 44.889C15.252 44.889 14.252 43.8831 14.252 42.5Z" fill="url(#paint6_linear_122_5057)"/>
<path id="Vector_8" d="M14.252 34.4526C14.252 33.0695 15.377 32.0636 16.627 32.0636C18.002 32.0636 19.002 33.1952 19.002 34.4526C19.002 35.8358 17.877 36.8417 16.627 36.8417C15.252 36.8417 14.252 35.71 14.252 34.4526Z" fill="url(#paint7_linear_122_5057)"/>
<path id="Vector_9" d="M14.252 26.2796C14.252 24.8965 15.377 23.8906 16.627 23.8906C18.002 23.8906 19.002 25.0222 19.002 26.2796C19.002 27.6627 17.877 28.6687 16.627 28.6687C15.252 28.7944 14.252 27.6627 14.252 26.2796Z" fill="url(#paint8_linear_122_5057)"/>
<path id="Vector_10" d="M21.3777 66.7677C21.3777 65.5103 22.3777 64.5044 23.6277 64.5044C24.8777 64.5044 25.8777 65.5103 25.8777 66.7677C25.8777 68.0251 24.8777 69.031 23.6277 69.031C22.3777 69.031 21.3777 68.0251 21.3777 66.7677Z" fill="url(#paint9_linear_122_5057)"/>
<path id="Vector_11" d="M21.3777 58.7205C21.3777 57.4631 22.3777 56.4571 23.6277 56.4571C24.8777 56.4571 25.8777 57.4631 25.8777 58.7205C25.8777 59.9778 24.8777 60.9838 23.6277 60.9838C22.3777 60.9838 21.3777 59.9778 21.3777 58.7205Z" fill="url(#paint10_linear_122_5057)"/>
<path id="Vector_12" d="M21.3777 50.5474C21.3777 49.29 22.3777 48.284 23.6277 48.284C24.8777 48.284 25.8777 49.29 25.8777 50.5474C25.8777 51.8048 24.8777 52.8107 23.6277 52.8107C22.3777 52.9364 21.3777 51.9305 21.3777 50.5474Z" fill="url(#paint11_linear_122_5057)"/>
<path id="Vector_13" d="M21.3777 42.5C21.3777 41.2426 22.3777 40.2367 23.6277 40.2367C24.8777 40.2367 25.8777 41.2426 25.8777 42.5C25.8777 43.7574 24.8777 44.7633 23.6277 44.7633C22.3777 44.7633 21.3777 43.7574 21.3777 42.5Z" fill="url(#paint12_linear_122_5057)"/>
<path id="Vector_14" d="M21.3777 34.4526C21.3777 33.1952 22.3777 32.1893 23.6277 32.1893C24.8777 32.1893 25.8777 33.1952 25.8777 34.4526C25.8777 35.71 24.8777 36.7159 23.6277 36.7159C22.3777 36.7159 21.3777 35.71 21.3777 34.4526Z" fill="url(#paint13_linear_122_5057)"/>
<path id="Vector_15" d="M21.3777 26.2796C21.3777 25.0222 22.3777 24.0163 23.6277 24.0163C24.8777 24.0163 25.8777 25.0222 25.8777 26.2796C25.8777 27.537 24.8777 28.5429 23.6277 28.5429C22.3777 28.6687 21.3777 27.537 21.3777 26.2796Z" fill="url(#paint14_linear_122_5057)"/>
<path id="Vector_16" d="M21.3777 18.2323C21.3777 16.9749 22.3777 15.969 23.6277 15.969C24.8777 15.969 25.8777 16.9749 25.8777 18.2323C25.8777 19.4897 24.8777 20.4956 23.6277 20.4956C22.3777 20.4956 21.3777 19.4897 21.3777 18.2323Z" fill="url(#paint15_linear_122_5057)"/>
<path id="Vector_17" d="M30.6285 72.6775C29.4549 72.6775 28.5035 73.6345 28.5035 74.8151C28.5035 75.9956 29.4549 76.9526 30.6285 76.9526C31.8021 76.9526 32.7535 75.9956 32.7535 74.8151C32.7535 73.6345 31.8021 72.6775 30.6285 72.6775Z" fill="url(#paint16_linear_122_5057)"/>
<path id="Vector_18" d="M28.3785 66.7677C28.3785 65.636 29.3785 64.6301 30.5035 64.6301C31.6285 64.6301 32.7535 65.636 32.7535 66.7677C32.7535 67.8994 31.7535 68.9053 30.6285 68.9053C29.5035 68.9053 28.3785 68.0251 28.3785 66.7677Z" fill="url(#paint17_linear_122_5057)"/>
<path id="Vector_19" d="M28.3785 58.7205C28.3785 57.5888 29.3785 56.5829 30.5035 56.5829C31.6285 56.5829 32.7535 57.4631 32.7535 58.7205C32.7535 59.8521 31.7535 60.858 30.6285 60.858C29.5035 60.858 28.3785 59.8521 28.3785 58.7205Z" fill="url(#paint18_linear_122_5057)"/>
<path id="Vector_20" d="M30.6285 48.4098C29.4549 48.4098 28.5035 49.3668 28.5035 50.5474C28.5035 51.7279 29.4549 52.6849 30.6285 52.6849C31.8021 52.6849 32.7535 51.7279 32.7535 50.5474C32.7535 49.3668 31.8021 48.4098 30.6285 48.4098Z" fill="url(#paint19_linear_122_5057)"/>
<path id="Vector_21" d="M28.3785 42.5C28.3785 41.3683 29.3785 40.3624 30.5035 40.3624C31.6285 40.3624 32.7535 41.3683 32.7535 42.5C32.7535 43.6317 31.7535 44.6376 30.6285 44.6376C29.5035 44.6376 28.3785 43.7574 28.3785 42.5Z" fill="url(#paint20_linear_122_5057)"/>
<path id="Vector_22" d="M30.6285 32.3151C29.4549 32.3151 28.5035 33.2721 28.5035 34.4526C28.5035 35.6332 29.4549 36.5902 30.6285 36.5902C31.8021 36.5902 32.7535 35.6332 32.7535 34.4526C32.7535 33.2721 31.8021 32.3151 30.6285 32.3151Z" fill="url(#paint21_linear_122_5057)"/>
<path id="Vector_23" d="M30.6285 24.142C29.4549 24.142 28.5035 25.099 28.5035 26.2795C28.5035 27.4601 29.4549 28.4171 30.6285 28.4171C31.8021 28.4171 32.7535 27.4601 32.7535 26.2795C32.7535 25.099 31.8021 24.142 30.6285 24.142Z" fill="url(#paint22_linear_122_5057)"/>
<path id="Vector_24" d="M28.3785 18.2323C28.3785 17.1006 29.3785 16.0947 30.5035 16.0947C31.6285 16.0947 32.7535 17.1006 32.7535 18.2323C32.7535 19.364 31.7535 20.3699 30.6285 20.3699C29.5035 20.3699 28.3785 19.4897 28.3785 18.2323Z" fill="url(#paint23_linear_122_5057)"/>
<path id="Vector_25" d="M30.6285 8.04737C29.4549 8.04737 28.5035 9.00439 28.5035 10.1849C28.5035 11.3655 29.4549 12.3225 30.6285 12.3225C31.8021 12.3225 32.7535 11.3655 32.7535 10.1849C32.7535 9.00439 31.8021 8.04737 30.6285 8.04737Z" fill="url(#paint24_linear_122_5057)"/>
<path id="Vector_26" d="M37.5042 80.9763C36.3996 80.9763 35.5042 81.8771 35.5042 82.9882C35.5042 84.0993 36.3996 85 37.5042 85C38.6088 85 39.5042 84.0993 39.5042 82.9882C39.5042 81.8771 38.6088 80.9763 37.5042 80.9763Z" fill="url(#paint25_linear_122_5057)"/>
<path id="Vector_27" d="M35.5042 74.815C35.5042 73.6834 36.3792 72.8032 37.5042 72.8032C38.6292 72.8032 39.5042 73.6834 39.5042 74.815C39.5042 75.9467 38.6292 76.8269 37.5042 76.8269C36.5042 76.9526 35.5042 75.9467 35.5042 74.815Z" fill="url(#paint26_linear_122_5057)"/>
<path id="Vector_28" d="M37.5042 64.7559C36.3996 64.7559 35.5042 65.6566 35.5042 66.7677C35.5042 67.8788 36.3996 68.7795 37.5042 68.7795C38.6088 68.7795 39.5042 67.8788 39.5042 66.7677C39.5042 65.6566 38.6088 64.7559 37.5042 64.7559Z" fill="url(#paint27_linear_122_5057)"/>
<path id="Vector_29" d="M37.5042 56.7086C36.3996 56.7086 35.5042 57.6094 35.5042 58.7205C35.5042 59.8316 36.3996 60.7323 37.5042 60.7323C38.6088 60.7323 39.5042 59.8316 39.5042 58.7205C39.5042 57.6094 38.6088 56.7086 37.5042 56.7086Z" fill="url(#paint28_linear_122_5057)"/>
<path id="Vector_30" d="M37.5042 48.5355C36.3996 48.5355 35.5042 49.4363 35.5042 50.5474C35.5042 51.6585 36.3996 52.5592 37.5042 52.5592C38.6088 52.5592 39.5042 51.6585 39.5042 50.5474C39.5042 49.4363 38.6088 48.5355 37.5042 48.5355Z" fill="url(#paint29_linear_122_5057)"/>
<path id="Vector_31" d="M35.5042 42.5C35.5042 41.3683 36.3792 40.4882 37.5042 40.4882C38.6292 40.4882 39.5042 41.3683 39.5042 42.5C39.5042 43.6317 38.6292 44.5118 37.5042 44.5118C36.5042 44.5118 35.5042 43.6317 35.5042 42.5Z" fill="url(#paint30_linear_122_5057)"/>
<path id="Vector_32" d="M37.5042 32.4408C36.3996 32.4408 35.5042 33.3415 35.5042 34.4526C35.5042 35.5637 36.3996 36.4645 37.5042 36.4645C38.6088 36.4645 39.5042 35.5637 39.5042 34.4526C39.5042 33.3415 38.6088 32.4408 37.5042 32.4408Z" fill="url(#paint31_linear_122_5057)"/>
<path id="Vector_33" d="M37.5042 24.2677C36.3996 24.2677 35.5042 25.1684 35.5042 26.2795C35.5042 27.3907 36.3996 28.2914 37.5042 28.2914C38.6088 28.2914 39.5042 27.3907 39.5042 26.2795C39.5042 25.1684 38.6088 24.2677 37.5042 24.2677Z" fill="url(#paint32_linear_122_5057)"/>
<path id="Vector_34" d="M37.5042 16.2205C36.3996 16.2205 35.5042 17.1212 35.5042 18.2323C35.5042 19.3434 36.3996 20.2441 37.5042 20.2441C38.6088 20.2441 39.5042 19.3434 39.5042 18.2323C39.5042 17.1212 38.6088 16.2205 37.5042 16.2205Z" fill="url(#paint33_linear_122_5057)"/>
<path id="Vector_35" d="M37.5042 8.17311C36.3996 8.17311 35.5042 9.07384 35.5042 10.1849C35.5042 11.2961 36.3996 12.1968 37.5042 12.1968C38.6088 12.1968 39.5042 11.2961 39.5042 10.1849C39.5042 9.07384 38.6088 8.17311 37.5042 8.17311Z" fill="url(#paint34_linear_122_5057)"/>
<path id="Vector_36" d="M35.5042 2.01181C35.5042 0.880155 36.3792 -2.6226e-05 37.5042 -2.6226e-05C38.6292 -2.6226e-05 39.5042 0.880155 39.5042 2.01181C39.5042 3.14347 38.6292 4.02364 37.5042 4.02364C36.5042 4.14938 35.5042 3.14347 35.5042 2.01181Z" fill="url(#paint35_linear_122_5057)"/>
<path id="Vector_37" d="M42.6299 82.9882C42.6299 81.9823 43.5049 81.1021 44.5049 81.1021C45.5049 81.1021 46.3799 81.8565 46.3799 82.9882C46.3799 84.1198 45.5049 84.8743 44.5049 84.8743C43.5049 84.8743 42.6299 83.9941 42.6299 82.9882Z" fill="url(#paint36_linear_122_5057)"/>
<path id="Vector_38" d="M42.6299 74.8151C42.6299 73.8092 43.5049 72.929 44.5049 72.929C45.5049 72.929 46.3799 73.8092 46.3799 74.8151C46.3799 75.821 45.5049 76.7012 44.5049 76.7012C43.5049 76.7012 42.6299 75.9467 42.6299 74.8151Z" fill="url(#paint37_linear_122_5057)"/>
<path id="Vector_39" d="M44.5049 64.8816C43.4694 64.8816 42.6299 65.7261 42.6299 66.7677C42.6299 67.8094 43.4694 68.6538 44.5049 68.6538C45.5405 68.6538 46.3799 67.8094 46.3799 66.7677C46.3799 65.7261 45.5405 64.8816 44.5049 64.8816Z" fill="url(#paint38_linear_122_5057)"/>
<path id="Vector_40" d="M44.5049 56.8344C43.4694 56.8344 42.6299 57.6788 42.6299 58.7205C42.6299 59.7621 43.4694 60.6066 44.5049 60.6066C45.5405 60.6066 46.3799 59.7621 46.3799 58.7205C46.3799 57.6788 45.5405 56.8344 44.5049 56.8344Z" fill="url(#paint39_linear_122_5057)"/>
<path id="Vector_41" d="M44.5049 48.6613C43.4694 48.6613 42.6299 49.5057 42.6299 50.5474C42.6299 51.589 43.4694 52.4335 44.5049 52.4335C45.5405 52.4335 46.3799 51.589 46.3799 50.5474C46.3799 49.5057 45.5405 48.6613 44.5049 48.6613Z" fill="url(#paint40_linear_122_5057)"/>
<path id="Vector_42" d="M44.5049 40.6139C43.4694 40.6139 42.6299 41.4584 42.6299 42.5C42.6299 43.5417 43.4694 44.3861 44.5049 44.3861C45.5405 44.3861 46.3799 43.5417 46.3799 42.5C46.3799 41.4584 45.5405 40.6139 44.5049 40.6139Z" fill="url(#paint41_linear_122_5057)"/>
<path id="Vector_43" d="M44.5049 32.5666C43.4694 32.5666 42.6299 33.411 42.6299 34.4526C42.6299 35.4943 43.4694 36.3387 44.5049 36.3387C45.5405 36.3387 46.3799 35.4943 46.3799 34.4526C46.3799 33.411 45.5405 32.5666 44.5049 32.5666Z" fill="url(#paint42_linear_122_5057)"/>
<path id="Vector_44" d="M44.5049 24.3935C43.4694 24.3935 42.6299 25.2379 42.6299 26.2796C42.6299 27.3212 43.4694 28.1656 44.5049 28.1656C45.5405 28.1656 46.3799 27.3212 46.3799 26.2796C46.3799 25.2379 45.5405 24.3935 44.5049 24.3935Z" fill="url(#paint43_linear_122_5057)"/>
<path id="Vector_45" d="M44.5049 16.3462C43.4694 16.3462 42.6299 17.1907 42.6299 18.2323C42.6299 19.274 43.4694 20.1184 44.5049 20.1184C45.5405 20.1184 46.3799 19.274 46.3799 18.2323C46.3799 17.1907 45.5405 16.3462 44.5049 16.3462Z" fill="url(#paint44_linear_122_5057)"/>
<path id="Vector_46" d="M44.5049 8.29886C43.4694 8.29886 42.6299 9.14329 42.6299 10.185C42.6299 11.2266 43.4694 12.071 44.5049 12.071C45.5405 12.071 46.3799 11.2266 46.3799 10.185C46.3799 9.14329 45.5405 8.29886 44.5049 8.29886Z" fill="url(#paint45_linear_122_5057)"/>
<path id="Vector_47" d="M44.5049 0.125758C43.4694 0.125758 42.6299 0.970192 42.6299 2.01185C42.6299 3.05351 43.4694 3.89795 44.5049 3.89795C45.5405 3.89795 46.3799 3.05351 46.3799 2.01185C46.3799 0.970192 45.5405 0.125758 44.5049 0.125758Z" fill="url(#paint46_linear_122_5057)"/>
<path id="Vector_48" d="M51.5057 81.2278C50.5392 81.2278 49.7557 82.016 49.7557 82.9882C49.7557 83.9604 50.5392 84.7485 51.5057 84.7485C52.4722 84.7485 53.2557 83.9604 53.2557 82.9882C53.2557 82.016 52.4722 81.2278 51.5057 81.2278Z" fill="url(#paint47_linear_122_5057)"/>
<path id="Vector_49" d="M49.7557 74.8151C49.7557 73.8092 50.5057 73.0547 51.5057 73.0547C52.5057 73.0547 53.2557 73.9349 53.2557 74.8151C53.2557 75.821 52.5057 76.5754 51.5057 76.5754C50.5057 76.5754 49.7557 75.821 49.7557 74.8151Z" fill="url(#paint48_linear_122_5057)"/>
<path id="Vector_50" d="M49.7557 66.7677C49.7557 65.7618 50.5057 65.0074 51.5057 65.0074C52.5057 65.0074 53.2557 65.7618 53.2557 66.7677C53.2557 67.7736 52.5057 68.5281 51.5057 68.5281C50.5057 68.5281 49.7557 67.7736 49.7557 66.7677Z" fill="url(#paint49_linear_122_5057)"/>
<path id="Vector_51" d="M49.7557 58.7204C49.7557 57.7144 50.5057 56.96 51.5057 56.96C52.5057 56.96 53.2557 57.7144 53.2557 58.7204C53.2557 59.7263 52.5057 60.4807 51.5057 60.4807C50.5057 60.4807 49.7557 59.7263 49.7557 58.7204Z" fill="url(#paint50_linear_122_5057)"/>
<path id="Vector_52" d="M51.5057 48.787C50.5392 48.787 49.7557 49.5752 49.7557 50.5474C49.7557 51.5196 50.5392 52.3077 51.5057 52.3077C52.4722 52.3077 53.2557 51.5196 53.2557 50.5474C53.2557 49.5752 52.4722 48.787 51.5057 48.787Z" fill="url(#paint51_linear_122_5057)"/>
<path id="Vector_53" d="M49.7557 42.5C49.7557 41.4941 50.5057 40.7397 51.5057 40.7397C52.5057 40.7397 53.2557 41.4941 53.2557 42.5C53.2557 43.5059 52.5057 44.2604 51.5057 44.2604C50.5057 44.2604 49.7557 43.5059 49.7557 42.5Z" fill="url(#paint52_linear_122_5057)"/>
<path id="Vector_54" d="M51.5057 32.6923C50.5392 32.6923 49.7557 33.4804 49.7557 34.4527C49.7557 35.4249 50.5392 36.213 51.5057 36.213C52.4722 36.213 53.2557 35.4249 53.2557 34.4527C53.2557 33.4804 52.4722 32.6923 51.5057 32.6923Z" fill="url(#paint53_linear_122_5057)"/>
<path id="Vector_55" d="M51.5057 24.5192C50.5392 24.5192 49.7557 25.3073 49.7557 26.2796C49.7557 27.2518 50.5392 28.0399 51.5057 28.0399C52.4722 28.0399 53.2557 27.2518 53.2557 26.2796C53.2557 25.3073 52.4722 24.5192 51.5057 24.5192Z" fill="url(#paint54_linear_122_5057)"/>
<path id="Vector_56" d="M49.7557 18.2322C49.7557 17.2263 50.5057 16.4718 51.5057 16.4718C52.5057 16.4718 53.2557 17.2263 53.2557 18.2322C53.2557 19.2381 52.5057 19.9926 51.5057 19.9926C50.5057 19.9926 49.7557 19.2381 49.7557 18.2322Z" fill="url(#paint55_linear_122_5057)"/>
<path id="Vector_57" d="M51.5057 8.4246C50.5392 8.4246 49.7557 9.21274 49.7557 10.185C49.7557 11.1572 50.5392 11.9453 51.5057 11.9453C52.4722 11.9453 53.2557 11.1572 53.2557 10.185C53.2557 9.21274 52.4722 8.4246 51.5057 8.4246Z" fill="url(#paint56_linear_122_5057)"/>
<path id="Vector_58" d="M49.7557 2.01186C49.7557 1.00595 50.5057 0.25151 51.5057 0.25151C52.5057 0.25151 53.2557 1.13169 53.2557 2.01186C53.2557 3.01778 52.5057 3.77222 51.5057 3.77222C50.5057 3.77222 49.7557 3.01778 49.7557 2.01186Z" fill="url(#paint57_linear_122_5057)"/>
<path id="Vector_59" d="M56.8814 82.9882C56.8814 82.108 57.6314 81.3536 58.5064 81.3536C59.3814 81.3536 60.1314 82.108 60.1314 82.9882C60.1314 83.8684 59.3814 84.6228 58.5064 84.6228C57.6314 84.6228 56.8814 83.8684 56.8814 82.9882Z" fill="url(#paint58_linear_122_5057)"/>
<path id="Vector_60" d="M56.8814 74.8151C56.8814 73.9349 57.6314 73.1804 58.5064 73.1804C59.3814 73.1804 60.1314 73.9349 60.1314 74.8151C60.1314 75.6952 59.3814 76.4497 58.5064 76.4497C57.6314 76.5754 56.8814 75.821 56.8814 74.8151Z" fill="url(#paint59_linear_122_5057)"/>
<path id="Vector_61" d="M56.8814 66.7677C56.8814 65.8876 57.6314 65.1331 58.5064 65.1331C59.3814 65.1331 60.1314 65.8876 60.1314 66.7677C60.1314 67.6479 59.3814 68.4023 58.5064 68.4023C57.6314 68.4023 56.8814 67.6479 56.8814 66.7677Z" fill="url(#paint60_linear_122_5057)"/>
<path id="Vector_62" d="M56.8814 58.7204C56.8814 57.8402 57.6314 57.0857 58.5064 57.0857C59.3814 57.0857 60.1314 57.8402 60.1314 58.7204C60.1314 59.6005 59.3814 60.355 58.5064 60.355C57.6314 60.355 56.8814 59.6005 56.8814 58.7204Z" fill="url(#paint61_linear_122_5057)"/>
<path id="Vector_63" d="M56.8814 50.5474C56.8814 49.6672 57.6314 48.9128 58.5064 48.9128C59.3814 48.9128 60.1314 49.6672 60.1314 50.5474C60.1314 51.4276 59.3814 52.3077 58.5064 52.3077C57.6314 52.3077 56.8814 51.5533 56.8814 50.5474Z" fill="url(#paint62_linear_122_5057)"/>
<path id="Vector_64" d="M56.8814 42.5C56.8814 41.6198 57.6314 40.8654 58.5064 40.8654C59.3814 40.8654 60.1314 41.6198 60.1314 42.5C60.1314 43.3802 59.3814 44.1346 58.5064 44.1346C57.6314 44.1346 56.8814 43.3802 56.8814 42.5Z" fill="url(#paint63_linear_122_5057)"/>
<path id="Vector_65" d="M56.8814 34.4527C56.8814 33.5725 57.6314 32.818 58.5064 32.818C59.3814 32.818 60.1314 33.5725 60.1314 34.4527C60.1314 35.3328 59.3814 36.0873 58.5064 36.0873C57.6314 36.0873 56.8814 35.3328 56.8814 34.4527Z" fill="url(#paint64_linear_122_5057)"/>
<path id="Vector_66" d="M56.8814 26.2797C56.8814 25.3995 57.6314 24.645 58.5064 24.645C59.3814 24.645 60.1314 25.3995 60.1314 26.2797C60.1314 27.1598 59.3814 27.9143 58.5064 27.9143C57.6314 28.04 56.8814 27.2856 56.8814 26.2797Z" fill="url(#paint65_linear_122_5057)"/>
<path id="Vector_67" d="M56.8814 18.2322C56.8814 17.352 57.6314 16.5976 58.5064 16.5976C59.3814 16.5976 60.1314 17.352 60.1314 18.2322C60.1314 19.1124 59.3814 19.8668 58.5064 19.8668C57.6314 19.8668 56.8814 19.1124 56.8814 18.2322Z" fill="url(#paint66_linear_122_5057)"/>
<path id="Vector_68" d="M56.8814 10.185C56.8814 9.30479 57.6314 8.55035 58.5064 8.55035C59.3814 8.55035 60.1314 9.30479 60.1314 10.185C60.1314 11.0651 59.3814 11.8196 58.5064 11.8196C57.6314 11.8196 56.8814 11.0651 56.8814 10.185Z" fill="url(#paint67_linear_122_5057)"/>
<path id="Vector_69" d="M56.8814 2.01183C56.8814 1.13165 57.6314 0.377213 58.5064 0.377213C59.3814 0.377213 60.1314 1.13165 60.1314 2.01183C60.1314 2.89201 59.3814 3.64645 58.5064 3.64645C57.6314 3.77219 56.8814 3.01775 56.8814 2.01183Z" fill="url(#paint68_linear_122_5057)"/>
<path id="Vector_70" d="M64.0071 82.9882C64.0071 82.108 64.6321 81.4793 65.5071 81.4793C66.3821 81.4793 67.0071 82.108 67.0071 82.9882C67.0071 83.8684 66.3821 84.4971 65.5071 84.4971C64.6321 84.4971 64.0071 83.8684 64.0071 82.9882Z" fill="url(#paint69_linear_122_5057)"/>
<path id="Vector_71" d="M64.0071 74.8151C64.0071 73.935 64.6321 73.3063 65.5071 73.3063C66.3821 73.3063 67.0071 73.935 67.0071 74.8151C67.0071 75.6953 66.3821 76.324 65.5071 76.324C64.6321 76.4497 64.0071 75.6953 64.0071 74.8151Z" fill="url(#paint70_linear_122_5057)"/>
<path id="Vector_72" d="M64.0071 66.7677C64.0071 65.8876 64.6321 65.2589 65.5071 65.2589C66.3821 65.2589 67.0071 65.8876 67.0071 66.7677C67.0071 67.6479 66.3821 68.2766 65.5071 68.2766C64.6321 68.2766 64.0071 67.6479 64.0071 66.7677Z" fill="url(#paint71_linear_122_5057)"/>
<path id="Vector_73" d="M64.0071 58.7204C64.0071 57.8402 64.6321 57.2115 65.5071 57.2115C66.3821 57.2115 67.0071 57.8402 67.0071 58.7204C67.0071 59.6006 66.3821 60.2292 65.5071 60.2292C64.6321 60.2292 64.0071 59.4748 64.0071 58.7204Z" fill="url(#paint72_linear_122_5057)"/>
<path id="Vector_74" d="M64.0071 50.5473C64.0071 49.6671 64.6321 49.0384 65.5071 49.0384C66.3821 49.0384 67.0071 49.6671 67.0071 50.5473C67.0071 51.4275 66.3821 52.0562 65.5071 52.0562C64.6321 52.1819 64.0071 51.4275 64.0071 50.5473Z" fill="url(#paint73_linear_122_5057)"/>
<path id="Vector_75" d="M64.0071 42.5C64.0071 41.6199 64.6321 40.9912 65.5071 40.9912C66.3821 40.9912 67.0071 41.6199 67.0071 42.5C67.0071 43.3802 66.3821 44.0089 65.5071 44.0089C64.6321 44.0089 64.0071 43.3802 64.0071 42.5Z" fill="url(#paint74_linear_122_5057)"/>
<path id="Vector_76" d="M64.0071 34.4527C64.0071 33.5725 64.6321 32.9438 65.5071 32.9438C66.3821 32.9438 67.0071 33.5725 67.0071 34.4527C67.0071 35.3329 66.3821 35.9615 65.5071 35.9615C64.6321 35.9615 64.0071 35.2071 64.0071 34.4527Z" fill="url(#paint75_linear_122_5057)"/>
<path id="Vector_77" d="M64.0071 26.2796C64.0071 25.3994 64.6321 24.7707 65.5071 24.7707C66.3821 24.7707 67.0071 25.3994 67.0071 26.2796C67.0071 27.1598 66.3821 27.7885 65.5071 27.7885C64.6321 27.9142 64.0071 27.1598 64.0071 26.2796Z" fill="url(#paint76_linear_122_5057)"/>
<path id="Vector_78" d="M64.0071 18.2322C64.0071 17.352 64.6321 16.7233 65.5071 16.7233C66.3821 16.7233 67.0071 17.352 67.0071 18.2322C67.0071 19.1124 66.3821 19.7411 65.5071 19.7411C64.6321 19.7411 64.0071 19.1124 64.0071 18.2322Z" fill="url(#paint77_linear_122_5057)"/>
<path id="Vector_79" d="M64.0071 10.185C64.0071 9.3048 64.6321 8.67609 65.5071 8.67609C66.3821 8.67609 67.0071 9.3048 67.0071 10.185C67.0071 11.0652 66.3821 11.6938 65.5071 11.6938C64.6321 11.6938 64.0071 10.9394 64.0071 10.185Z" fill="url(#paint78_linear_122_5057)"/>
<path id="Vector_80" d="M64.0071 2.01179C64.0071 1.13161 64.6321 0.502915 65.5071 0.502915C66.3821 0.502915 67.0071 1.13161 67.0071 2.01179C67.0071 2.89197 66.3821 3.52066 65.5071 3.52066C64.6321 3.6464 64.0071 2.89197 64.0071 2.01179Z" fill="url(#paint79_linear_122_5057)"/>
<path id="Vector_81" d="M71.1329 82.9882C71.1329 82.2338 71.7579 81.6051 72.5079 81.6051C73.2579 81.6051 73.8829 82.2338 73.8829 82.9882C73.8829 83.7426 73.2579 84.3713 72.5079 84.3713C71.7579 84.3713 71.1329 83.7426 71.1329 82.9882Z" fill="url(#paint80_linear_122_5057)"/>
<path id="Vector_82" d="M71.1329 74.8151C71.1329 74.0607 71.7579 73.432 72.5079 73.432C73.2579 73.432 73.8829 74.0607 73.8829 74.8151C73.8829 75.5695 73.2579 76.324 72.5079 76.324C71.7579 76.324 71.1329 75.6953 71.1329 74.8151Z" fill="url(#paint81_linear_122_5057)"/>
<path id="Vector_83" d="M71.1329 66.7677C71.1329 66.0133 71.7579 65.3846 72.5079 65.3846C73.2579 65.3846 73.8829 66.0133 73.8829 66.7677C73.8829 67.5222 73.2579 68.1509 72.5079 68.1509C71.7579 68.1509 71.1329 67.5222 71.1329 66.7677Z" fill="url(#paint82_linear_122_5057)"/>
<path id="Vector_84" d="M71.1329 58.7204C71.1329 57.9659 71.7579 57.3372 72.5079 57.3372C73.2579 57.3372 73.8829 57.9659 73.8829 58.7204C73.8829 59.4748 73.2579 60.1035 72.5079 60.1035C71.7579 60.1035 71.1329 59.4748 71.1329 58.7204Z" fill="url(#paint83_linear_122_5057)"/>
<path id="Vector_85" d="M71.1329 50.5474C71.1329 49.7929 71.7579 49.1642 72.5079 49.1642C73.2579 49.1642 73.8829 49.7929 73.8829 50.5474C73.8829 51.3018 73.2579 51.9305 72.5079 51.9305C71.7579 52.0563 71.1329 51.4276 71.1329 50.5474Z" fill="url(#paint84_linear_122_5057)"/>
<path id="Vector_86" d="M71.1329 42.5C71.1329 41.7456 71.7579 41.1169 72.5079 41.1169C73.2579 41.1169 73.8829 41.7456 73.8829 42.5C73.8829 43.2545 73.2579 43.8832 72.5079 43.8832C71.7579 43.8832 71.1329 43.2545 71.1329 42.5Z" fill="url(#paint85_linear_122_5057)"/>
<path id="Vector_87" d="M71.1329 34.4527C71.1329 33.6982 71.7579 33.0695 72.5079 33.0695C73.2579 33.0695 73.8829 33.6982 73.8829 34.4527C73.8829 35.2071 73.2579 35.8358 72.5079 35.8358C71.7579 35.8358 71.1329 35.2071 71.1329 34.4527Z" fill="url(#paint86_linear_122_5057)"/>
<path id="Vector_88" d="M71.1329 26.2796C71.1329 25.5251 71.7579 24.8964 72.5079 24.8964C73.2579 24.8964 73.8829 25.5251 73.8829 26.2796C73.8829 27.034 73.2579 27.6627 72.5079 27.6627C71.7579 27.7884 71.1329 27.1597 71.1329 26.2796Z" fill="url(#paint87_linear_122_5057)"/>
<path id="Vector_89" d="M71.1329 18.2322C71.1329 17.4778 71.7579 16.8491 72.5079 16.8491C73.2579 16.8491 73.8829 17.4778 73.8829 18.2322C73.8829 18.9867 73.2579 19.6154 72.5079 19.6154C71.7579 19.6154 71.1329 18.9867 71.1329 18.2322Z" fill="url(#paint88_linear_122_5057)"/>
<path id="Vector_90" d="M71.1329 10.1849C71.1329 9.43042 71.7579 8.80172 72.5079 8.80172C73.2579 8.80172 73.8829 9.43042 73.8829 10.1849C73.8829 10.9393 73.2579 11.568 72.5079 11.568C71.7579 11.568 71.1329 10.9393 71.1329 10.1849Z" fill="url(#paint89_linear_122_5057)"/>
<path id="Vector_91" d="M71.1329 2.01188C71.1329 1.25744 71.7579 0.628744 72.5079 0.628744C73.2579 0.628744 73.8829 1.25744 73.8829 2.01188C73.8829 2.76632 73.2579 3.39502 72.5079 3.39502C71.7579 3.39502 71.1329 2.89206 71.1329 2.01188Z" fill="url(#paint90_linear_122_5057)"/>
<path id="Vector_92" d="M79.5086 81.7308C78.8183 81.7308 78.2586 82.2938 78.2586 82.9882C78.2586 83.6827 78.8183 84.2456 79.5086 84.2456C80.199 84.2456 80.7586 83.6827 80.7586 82.9882C80.7586 82.2938 80.199 81.7308 79.5086 81.7308Z" fill="url(#paint91_linear_122_5057)"/>
<path id="Vector_93" d="M79.5086 73.5577C78.8183 73.5577 78.2586 74.1207 78.2586 74.8151C78.2586 75.5096 78.8183 76.0725 79.5086 76.0725C80.199 76.0725 80.7586 75.5096 80.7586 74.8151C80.7586 74.1207 80.199 73.5577 79.5086 73.5577Z" fill="url(#paint92_linear_122_5057)"/>
<path id="Vector_94" d="M78.2586 66.7677C78.2586 66.0133 78.8836 65.5104 79.5086 65.5104C80.2586 65.5104 80.7586 66.1391 80.7586 66.7677C80.7586 67.5222 80.1336 68.0251 79.5086 68.0251C78.7586 68.0251 78.2586 67.5222 78.2586 66.7677Z" fill="url(#paint93_linear_122_5057)"/>
<path id="Vector_95" d="M79.5086 57.463C78.8183 57.463 78.2586 58.0259 78.2586 58.7204C78.2586 59.4148 78.8183 59.9778 79.5086 59.9778C80.199 59.9778 80.7586 59.4148 80.7586 58.7204C80.7586 58.0259 80.199 57.463 79.5086 57.463Z" fill="url(#paint94_linear_122_5057)"/>
<path id="Vector_96" d="M78.2586 50.5473C78.2586 49.7929 78.8836 49.2899 79.5086 49.2899C80.2586 49.2899 80.7586 49.9186 80.7586 50.5473C80.7586 51.3017 80.1336 51.8047 79.5086 51.8047C78.7586 51.9304 78.2586 51.3017 78.2586 50.5473Z" fill="url(#paint95_linear_122_5057)"/>
<path id="Vector_97" d="M78.2586 42.5C78.2586 41.7456 78.8836 41.2427 79.5086 41.2427C80.2586 41.2427 80.7586 41.8713 80.7586 42.5C80.7586 43.2545 80.1336 43.7574 79.5086 43.7574C78.7586 43.7574 78.2586 43.2545 78.2586 42.5Z" fill="url(#paint96_linear_122_5057)"/>
<path id="Vector_98" d="M79.5086 33.1953C78.8183 33.1953 78.2586 33.7582 78.2586 34.4527C78.2586 35.1471 78.8183 35.7101 79.5086 35.7101C80.199 35.7101 80.7586 35.1471 80.7586 34.4527C80.7586 33.7582 80.199 33.1953 79.5086 33.1953Z" fill="url(#paint97_linear_122_5057)"/>
<path id="Vector_99" d="M78.2586 26.2796C78.2586 25.5252 78.8836 25.0222 79.5086 25.0222C80.2586 25.0222 80.7586 25.6509 80.7586 26.2796C80.7586 27.034 80.1336 27.537 79.5086 27.537C78.7586 27.6627 78.2586 27.034 78.2586 26.2796Z" fill="url(#paint98_linear_122_5057)"/>
<path id="Vector_100" d="M78.2586 18.2322C78.2586 17.4778 78.8836 16.9748 79.5086 16.9748C80.2586 16.9748 80.7586 17.6035 80.7586 18.2322C80.7586 18.9867 80.1336 19.4896 79.5086 19.4896C78.7586 19.4896 78.2586 18.9867 78.2586 18.2322Z" fill="url(#paint99_linear_122_5057)"/>
<path id="Vector_101" d="M79.5086 8.92746C78.8183 8.92746 78.2586 9.49042 78.2586 10.1849C78.2586 10.8793 78.8183 11.4423 79.5086 11.4423C80.199 11.4423 80.7586 10.8793 80.7586 10.1849C80.7586 9.49042 80.199 8.92746 79.5086 8.92746Z" fill="url(#paint100_linear_122_5057)"/>
<path id="Vector_102" d="M78.2586 2.01189C78.2586 1.25745 78.8836 0.754497 79.5086 0.754497C80.2586 0.754497 80.7586 1.38319 80.7586 2.01189C80.7586 2.76633 80.1336 3.26929 79.5086 3.26929C78.7586 3.26929 78.2586 2.76633 78.2586 2.01189Z" fill="url(#paint101_linear_122_5057)"/>
<path id="Vector_103" d="M85.2593 82.9882C85.2593 82.3595 85.7593 81.8566 86.3843 81.8566C87.0093 81.8566 87.5093 82.3595 87.5093 82.9882C87.5093 83.6169 87.0093 84.1199 86.3843 84.1199C85.7593 84.1199 85.2593 83.6169 85.2593 82.9882Z" fill="url(#paint102_linear_122_5057)"/>
<path id="Vector_104" d="M85.2593 74.815C85.2593 74.1863 85.7593 73.6834 86.3843 73.6834C87.0093 73.6834 87.5093 74.1863 87.5093 74.815C87.5093 75.4437 87.0093 75.9467 86.3843 75.9467C85.7593 76.0724 85.2593 75.5695 85.2593 74.815Z" fill="url(#paint103_linear_122_5057)"/>
<path id="Vector_105" d="M85.2593 66.7678C85.2593 66.1391 85.7593 65.6361 86.3843 65.6361C87.0093 65.6361 87.5093 66.1391 87.5093 66.7678C87.5093 67.3965 87.0093 67.8994 86.3843 67.8994C85.7593 67.8994 85.2593 67.3965 85.2593 66.7678Z" fill="url(#paint104_linear_122_5057)"/>
<path id="Vector_106" d="M85.2593 58.7204C85.2593 58.0917 85.7593 57.5887 86.3843 57.5887C87.0093 57.5887 87.5093 58.0917 87.5093 58.7204C87.6343 59.3491 87.1343 59.8521 86.3843 59.8521C85.7593 59.8521 85.2593 59.3491 85.2593 58.7204Z" fill="url(#paint105_linear_122_5057)"/>
<path id="Vector_107" d="M85.2593 50.5474C85.2593 49.9187 85.7593 49.4157 86.3843 49.4157C87.0093 49.4157 87.5093 49.9187 87.5093 50.5474C87.5093 51.176 87.0093 51.679 86.3843 51.679C85.7593 51.8047 85.2593 51.176 85.2593 50.5474Z" fill="url(#paint106_linear_122_5057)"/>
<path id="Vector_108" d="M85.2593 42.5001C85.2593 41.8714 85.7593 41.3684 86.3843 41.3684C87.0093 41.3684 87.5093 41.8714 87.5093 42.5001C87.5093 43.1288 87.0093 43.6317 86.3843 43.6317C85.7593 43.6317 85.2593 43.1288 85.2593 42.5001Z" fill="url(#paint107_linear_122_5057)"/>
<path id="Vector_109" d="M85.2593 34.4527C85.2593 33.824 85.7593 33.321 86.3843 33.321C87.0093 33.321 87.5093 33.824 87.5093 34.4527C87.5093 35.0814 87.0093 35.5844 86.3843 35.5844C85.7593 35.5844 85.2593 35.0814 85.2593 34.4527Z" fill="url(#paint108_linear_122_5057)"/>
<path id="Vector_110" d="M85.2593 26.2795C85.2593 25.6508 85.7593 25.1479 86.3843 25.1479C87.0093 25.1479 87.5093 25.6508 87.5093 26.2795C87.5093 26.9082 87.0093 27.4112 86.3843 27.4112C85.7593 27.5369 85.2593 26.9082 85.2593 26.2795Z" fill="url(#paint109_linear_122_5057)"/>
<path id="Vector_111" d="M85.2593 18.2322C85.2593 17.6035 85.7593 17.1006 86.3843 17.1006C87.0093 17.1006 87.5093 17.6035 87.5093 18.2322C87.5093 18.8609 87.0093 19.3639 86.3843 19.3639C85.7593 19.3639 85.2593 18.8609 85.2593 18.2322Z" fill="url(#paint110_linear_122_5057)"/>
<path id="Vector_112" d="M85.2593 10.1849C85.2593 9.55618 85.7593 9.05322 86.3843 9.05322C87.1343 9.05322 87.6343 9.55618 87.6343 10.1849C87.6343 10.8136 87.1343 11.3165 86.5093 11.3165C85.7593 11.3165 85.2593 10.8136 85.2593 10.1849Z" fill="url(#paint111_linear_122_5057)"/>
<path id="Vector_113" d="M85.2593 2.0119C85.2593 1.3832 85.7593 0.880243 86.3843 0.880243C87.0093 0.880243 87.5093 1.3832 87.5093 2.0119C87.5093 2.6406 87.0093 3.14355 86.3843 3.14355C85.7593 3.14355 85.2593 2.6406 85.2593 2.0119Z" fill="url(#paint112_linear_122_5057)"/>
<path id="Vector_114" d="M92.3851 82.9882C92.3851 82.4853 92.8851 81.9823 93.3851 81.9823C93.8851 81.9823 94.3851 82.3595 94.3851 82.9882C94.3851 83.4912 93.8851 83.9941 93.3851 83.9941C92.8851 83.9941 92.3851 83.4912 92.3851 82.9882Z" fill="url(#paint113_linear_122_5057)"/>
<path id="Vector_115" d="M92.3851 74.8151C92.3851 74.3122 92.8851 73.8092 93.3851 73.8092C93.8851 73.8092 94.3851 74.3122 94.3851 74.8151C94.3851 75.3181 93.8851 75.821 93.3851 75.821C92.8851 75.821 92.3851 75.4438 92.3851 74.8151Z" fill="url(#paint114_linear_122_5057)"/>
<path id="Vector_116" d="M92.3851 66.7678C92.3851 66.2648 92.8851 65.7618 93.3851 65.7618C93.8851 65.7618 94.3851 66.2648 94.3851 66.7678C94.3851 67.2707 93.8851 67.7737 93.3851 67.7737C92.8851 67.7737 92.3851 67.3965 92.3851 66.7678Z" fill="url(#paint115_linear_122_5057)"/>
<path id="Vector_117" d="M92.3851 58.7204C92.3851 58.2174 92.8851 57.7145 93.3851 57.7145C93.8851 57.7145 94.3851 58.0917 94.3851 58.7204C94.3851 59.2234 93.8851 59.7263 93.3851 59.7263C92.8851 59.7263 92.3851 59.2234 92.3851 58.7204Z" fill="url(#paint116_linear_122_5057)"/>
<path id="Vector_118" d="M92.3851 50.5473C92.3851 50.0443 92.8851 49.5414 93.3851 49.5414C93.8851 49.5414 94.3851 50.0443 94.3851 50.5473C94.3851 51.0503 93.8851 51.5532 93.3851 51.5532C92.8851 51.5532 92.3851 51.176 92.3851 50.5473Z" fill="url(#paint117_linear_122_5057)"/>
<path id="Vector_119" d="M92.3851 42.4999C92.3851 41.997 92.8851 41.494 93.3851 41.494C93.8851 41.494 94.3851 41.997 94.3851 42.4999C94.3851 43.0029 94.0101 43.5059 93.3851 43.5059C92.7601 43.5059 92.3851 43.1286 92.3851 42.4999Z" fill="url(#paint118_linear_122_5057)"/>
<path id="Vector_120" d="M92.3851 34.4527C92.3851 33.9497 92.8851 33.4468 93.3851 33.4468C93.8851 33.4468 94.3851 33.824 94.3851 34.4527C94.3851 34.9557 93.8851 35.4586 93.3851 35.4586C92.8851 35.4586 92.3851 34.9557 92.3851 34.4527Z" fill="url(#paint119_linear_122_5057)"/>
<path id="Vector_121" d="M92.3851 26.2796C92.3851 25.7766 92.8851 25.2737 93.3851 25.2737C93.8851 25.2737 94.3851 25.7766 94.3851 26.2796C94.3851 26.7826 93.8851 27.2855 93.3851 27.2855C92.8851 27.2855 92.3851 26.9083 92.3851 26.2796Z" fill="url(#paint120_linear_122_5057)"/>
<path id="Vector_122" d="M92.3851 18.2322C92.3851 17.7293 92.8851 17.2263 93.3851 17.2263C93.8851 17.2263 94.3851 17.7293 94.3851 18.2322C94.3851 18.7352 93.8851 19.2382 93.3851 19.2382C92.8851 19.2382 92.3851 18.8609 92.3851 18.2322Z" fill="url(#paint121_linear_122_5057)"/>
<path id="Vector_123" d="M92.3851 10.1849C92.3851 9.68192 92.8851 9.17896 93.3851 9.17896C93.8851 9.17896 94.3851 9.55618 94.3851 10.1849C94.3851 10.8136 93.8851 11.1908 93.3851 11.1908C92.8851 11.1908 92.3851 10.6878 92.3851 10.1849Z" fill="url(#paint122_linear_122_5057)"/>
<path id="Vector_124" d="M92.3851 2.01178C92.3851 1.50883 92.8851 1.00587 93.3851 1.00587C93.8851 1.00587 94.3851 1.50883 94.3851 2.01178C94.3851 2.51474 93.8851 3.0177 93.3851 3.0177C92.8851 3.0177 92.3851 2.64048 92.3851 2.01178Z" fill="url(#paint123_linear_122_5057)"/>
<path id="Vector_125" d="M99.5108 82.9881C99.5108 82.4852 99.8858 82.1079 100.386 82.1079C100.886 82.1079 101.261 82.4852 101.261 82.9881C101.261 83.4911 100.886 83.8683 100.386 83.8683C99.8858 83.8683 99.5108 83.4911 99.5108 82.9881Z" fill="url(#paint124_linear_122_5057)"/>
<path id="Vector_126" d="M99.5108 74.8151C99.5108 74.3122 99.8858 73.9349 100.386 73.9349C100.886 73.9349 101.261 74.3122 101.261 74.8151C101.261 75.3181 100.886 75.6953 100.386 75.6953C99.8858 75.821 99.5108 75.3181 99.5108 74.8151Z" fill="url(#paint125_linear_122_5057)"/>
<path id="Vector_127" d="M99.5108 66.7678C99.5108 66.2648 99.8858 65.8876 100.386 65.8876C100.886 65.8876 101.261 66.2648 101.261 66.7678C101.261 67.2707 100.886 67.6479 100.386 67.6479C99.8858 67.6479 99.5108 67.2707 99.5108 66.7678Z" fill="url(#paint126_linear_122_5057)"/>
<path id="Vector_128" d="M99.5108 58.7204C99.5108 58.2175 99.8858 57.8402 100.386 57.8402C100.886 57.8402 101.261 58.2175 101.261 58.7204C101.261 59.2234 100.886 59.6006 100.386 59.6006C99.8858 59.6006 99.5108 59.2234 99.5108 58.7204Z" fill="url(#paint127_linear_122_5057)"/>
<path id="Vector_129" d="M99.5108 50.5473C99.5108 50.0443 99.8858 49.6671 100.386 49.6671C100.886 49.6671 101.261 50.0443 101.261 50.5473C101.261 51.0503 100.886 51.4275 100.386 51.4275C99.8858 51.5532 99.5108 51.0503 99.5108 50.5473Z" fill="url(#paint128_linear_122_5057)"/>
<path id="Vector_130" d="M99.5108 42.4999C99.5108 41.997 99.8858 41.6198 100.386 41.6198C100.886 41.6198 101.261 41.997 101.261 42.4999C101.261 43.0029 100.886 43.3801 100.386 43.3801C99.8858 43.3801 99.5108 43.0029 99.5108 42.4999Z" fill="url(#paint129_linear_122_5057)"/>
<path id="Vector_131" d="M99.5108 34.4527C99.5108 33.9498 99.8858 33.5725 100.386 33.5725C100.886 33.5725 101.261 33.9498 101.261 34.4527C101.261 34.9557 100.886 35.3329 100.386 35.3329C99.8858 35.3329 99.5108 34.9557 99.5108 34.4527Z" fill="url(#paint130_linear_122_5057)"/>
<path id="Vector_132" d="M99.5108 26.2796C99.5108 25.7767 99.8858 25.3994 100.386 25.3994C100.886 25.3994 101.261 25.9024 101.261 26.2796C101.261 26.7826 100.886 27.1598 100.386 27.1598C99.8858 27.1598 99.5108 26.7826 99.5108 26.2796Z" fill="url(#paint131_linear_122_5057)"/>
<path id="Vector_133" d="M99.5108 18.2322C99.5108 17.7293 99.8858 17.3521 100.386 17.3521C100.886 17.3521 101.261 17.7293 101.261 18.2322C101.261 18.7352 100.886 19.1124 100.386 19.1124C99.8858 19.1124 99.5108 18.7352 99.5108 18.2322Z" fill="url(#paint132_linear_122_5057)"/>
<path id="Vector_134" d="M99.5108 10.1849C99.5108 9.68193 99.8858 9.30471 100.386 9.30471C100.886 9.30471 101.261 9.68193 101.261 10.1849C101.261 10.6878 100.886 11.0651 100.386 11.0651C99.8858 11.0651 99.5108 10.6878 99.5108 10.1849Z" fill="url(#paint133_linear_122_5057)"/>
<path id="Vector_135" d="M99.5108 2.01179C99.5108 1.50884 99.8858 1.13161 100.386 1.13161C100.886 1.13161 101.261 1.50884 101.261 2.01179C101.261 2.51475 100.886 2.89197 100.386 2.89197C99.8858 2.89197 99.5108 2.51475 99.5108 2.01179Z" fill="url(#paint134_linear_122_5057)"/>
<path id="Vector_136" d="M106.637 82.9881C106.637 82.6109 107.012 82.2337 107.387 82.2337C107.762 82.2337 108.137 82.6109 108.137 82.9881C108.137 83.3653 107.762 83.7426 107.387 83.7426C107.012 83.7426 106.637 83.3653 106.637 82.9881Z" fill="url(#paint135_linear_122_5057)"/>
<path id="Vector_137" d="M106.637 74.8151C106.637 74.4378 107.012 74.0606 107.387 74.0606C107.762 74.0606 108.137 74.4378 108.137 74.8151C108.137 75.1923 107.762 75.5695 107.387 75.5695C107.012 75.6952 106.637 75.318 106.637 74.8151Z" fill="url(#paint136_linear_122_5057)"/>
<path id="Vector_138" d="M106.637 66.7678C106.637 66.3906 107.012 66.0133 107.387 66.0133C107.762 66.0133 108.137 66.3906 108.137 66.7678C108.137 67.145 107.762 67.5222 107.387 67.5222C107.012 67.5222 106.637 67.2707 106.637 66.7678Z" fill="url(#paint137_linear_122_5057)"/>
<path id="Vector_139" d="M106.637 58.7204C106.637 58.3432 107.012 57.966 107.387 57.966C107.762 57.966 108.137 58.3432 108.137 58.7204C108.137 59.0976 107.762 59.4749 107.387 59.4749C107.012 59.4749 106.637 59.0976 106.637 58.7204Z" fill="url(#paint138_linear_122_5057)"/>
<path id="Vector_140" d="M106.637 50.5474C106.637 50.1701 107.012 49.7929 107.387 49.7929C107.762 49.7929 108.137 50.1701 108.137 50.5474C108.137 50.9246 107.762 51.3018 107.387 51.3018C107.012 51.4275 106.637 51.0503 106.637 50.5474Z" fill="url(#paint139_linear_122_5057)"/>
<path id="Vector_141" d="M106.637 42.5C106.637 42.1227 107.012 41.7455 107.387 41.7455C107.762 41.7455 108.137 42.1227 108.137 42.5C108.137 42.8772 107.762 43.2544 107.387 43.2544C107.012 43.2544 106.637 42.8772 106.637 42.5Z" fill="url(#paint140_linear_122_5057)"/>
<path id="Vector_142" d="M106.637 34.4527C106.637 34.0755 107.012 33.6983 107.387 33.6983C107.762 33.6983 108.137 34.0755 108.137 34.4527C108.137 34.8299 107.762 35.2072 107.387 35.2072C107.012 35.2072 106.637 34.8299 106.637 34.4527Z" fill="url(#paint141_linear_122_5057)"/>
<path id="Vector_143" d="M106.637 26.2796C106.637 25.9024 107.012 25.5252 107.387 25.5252C107.762 25.5252 108.137 25.9024 108.137 26.2796C108.137 26.6568 107.762 27.0341 107.387 27.0341C107.012 27.0341 106.637 26.7826 106.637 26.2796Z" fill="url(#paint142_linear_122_5057)"/>
<path id="Vector_144" d="M106.637 18.2323C106.637 17.855 107.012 17.4778 107.387 17.4778C107.762 17.4778 108.137 17.855 108.137 18.2323C108.137 18.6095 107.762 18.9867 107.387 18.9867C107.012 18.9867 106.637 18.6095 106.637 18.2323Z" fill="url(#paint143_linear_122_5057)"/>
<path id="Vector_145" d="M106.637 10.1849C106.637 9.80768 107.012 9.43045 107.387 9.43045C107.762 9.43045 108.137 9.80768 108.137 10.1849C108.137 10.5621 107.762 10.9393 107.387 10.9393C107.012 10.9393 106.637 10.5621 106.637 10.1849Z" fill="url(#paint144_linear_122_5057)"/>
<path id="Vector_146" d="M106.637 2.0118C106.637 1.63458 107.012 1.25736 107.387 1.25736C107.762 1.25736 108.137 1.63458 108.137 2.0118C108.137 2.38902 107.762 2.76624 107.387 2.76624C107.012 2.76624 106.637 2.51476 106.637 2.0118Z" fill="url(#paint145_linear_122_5057)"/>
<path id="Vector_147" d="M113.762 82.9881C113.762 82.6109 114.012 82.3594 114.387 82.3594C114.762 82.3594 115.012 82.6109 115.012 82.9881C115.012 83.3653 114.762 83.6168 114.387 83.6168C114.012 83.6168 113.762 83.3653 113.762 82.9881Z" fill="url(#paint146_linear_122_5057)"/>
<path id="Vector_148" d="M113.762 74.8151C113.762 74.4379 114.012 74.1864 114.387 74.1864C114.762 74.1864 115.012 74.5637 115.012 74.8151C115.012 75.0666 114.762 75.4438 114.387 75.4438C114.012 75.5696 113.762 75.1924 113.762 74.8151Z" fill="url(#paint147_linear_122_5057)"/>
<path id="Vector_149" d="M113.762 66.7678C113.762 66.3906 114.012 66.1391 114.387 66.1391C114.762 66.1391 115.012 66.3906 115.012 66.7678C115.012 67.145 114.762 67.3965 114.387 67.3965C114.012 67.3965 113.762 67.145 113.762 66.7678Z" fill="url(#paint148_linear_122_5057)"/>
<path id="Vector_150" d="M113.762 58.7204C113.762 58.3432 114.012 58.0917 114.387 58.0917C114.762 58.0917 115.012 58.3432 115.012 58.7204C115.012 59.0976 114.762 59.3491 114.387 59.3491C114.012 59.3491 113.762 59.0976 113.762 58.7204Z" fill="url(#paint149_linear_122_5057)"/>
<path id="Vector_151" d="M113.762 50.5473C113.762 50.1701 114.012 49.9186 114.387 49.9186C114.762 49.9186 115.012 50.2958 115.012 50.5473C115.012 50.7988 114.762 51.176 114.387 51.176C114.012 51.3018 113.762 50.9245 113.762 50.5473Z" fill="url(#paint150_linear_122_5057)"/>
<path id="Vector_152" d="M113.762 42.5C113.762 42.1227 114.012 41.8713 114.387 41.8713C114.762 41.8713 115.012 42.1227 115.012 42.5C115.012 42.8772 114.762 43.1287 114.387 43.1287C114.012 43.1287 113.762 42.8772 113.762 42.5Z" fill="url(#paint151_linear_122_5057)"/>
<path id="Vector_153" d="M113.762 34.4527C113.762 34.0755 114.012 33.824 114.387 33.824C114.762 33.824 115.012 34.0755 115.012 34.4527C115.012 34.8299 114.762 35.0814 114.387 35.0814C114.012 35.0814 113.762 34.8299 113.762 34.4527Z" fill="url(#paint152_linear_122_5057)"/>
<path id="Vector_154" d="M113.762 26.2796C113.762 25.9024 114.012 25.6509 114.387 25.6509C114.762 25.6509 115.012 26.0281 115.012 26.2796C115.012 26.6568 114.762 26.9083 114.387 26.9083C114.012 26.9083 113.762 26.6568 113.762 26.2796Z" fill="url(#paint153_linear_122_5057)"/>
<path id="Vector_155" d="M113.762 18.2323C113.762 17.855 114.012 17.6036 114.387 17.6036C114.762 17.6036 115.012 17.855 115.012 18.2323C115.012 18.6095 114.762 18.861 114.387 18.861C114.012 18.861 113.762 18.6095 113.762 18.2323Z" fill="url(#paint154_linear_122_5057)"/>
<path id="Vector_156" d="M113.762 10.1849C113.762 9.80769 114.012 9.5562 114.387 9.5562C114.762 9.5562 115.012 9.80769 115.012 10.1849C115.012 10.5621 114.762 10.8136 114.387 10.8136C114.012 10.8136 113.762 10.5621 113.762 10.1849Z" fill="url(#paint155_linear_122_5057)"/>
<path id="Vector_157" d="M113.762 2.01181C113.762 1.63459 114.012 1.38311 114.387 1.38311C114.762 1.38311 115.012 1.76033 115.012 2.01181C115.012 2.38903 114.762 2.6405 114.387 2.6405C114.012 2.6405 113.762 2.38903 113.762 2.01181Z" fill="url(#paint156_linear_122_5057)"/>
</g>
</g>
<defs>
<linearGradient id="paint0_linear_122_5057" x1="2.56839" y1="47.6892" x2="4.28775" y2="40.2433" gradientUnits="userSpaceOnUse">
<stop stop-color="#B58E69"/>
<stop offset="1" stop-color="#8E6C4D"/>
</linearGradient>
<linearGradient id="paint1_linear_122_5057" x1="9.57185" y1="55.5036" x2="11.2152" y2="48.4001" gradientUnits="userSpaceOnUse">
<stop stop-color="#B58E69"/>
<stop offset="1" stop-color="#8E6C4D"/>
</linearGradient>
<linearGradient id="paint2_linear_122_5057" x1="9.57185" y1="47.4421" x2="11.2093" y2="40.3507" gradientUnits="userSpaceOnUse">
<stop stop-color="#B58E69"/>
<stop offset="1" stop-color="#8E6C4D"/>
</linearGradient>
<linearGradient id="paint3_linear_122_5057" x1="9.57185" y1="39.3947" x2="11.2093" y2="32.3034" gradientUnits="userSpaceOnUse">
<stop stop-color="#B58E69"/>
<stop offset="1" stop-color="#8E6C4D"/>
</linearGradient>
<linearGradient id="paint4_linear_122_5057" x1="16.5753" y1="63.4155" x2="18.1309" y2="56.6787" gradientUnits="userSpaceOnUse">
<stop stop-color="#B58E69"/>
<stop offset="1" stop-color="#8E6C4D"/>
</linearGradient>
<linearGradient id="paint5_linear_122_5057" x1="16.5753" y1="55.2565" x2="18.1368" y2="48.5076" gradientUnits="userSpaceOnUse">
<stop stop-color="#B58E69"/>
<stop offset="1" stop-color="#8E6C4D"/>
</linearGradient>
<linearGradient id="paint6_linear_122_5057" x1="16.5753" y1="47.195" x2="18.1309" y2="40.4582" gradientUnits="userSpaceOnUse">
<stop stop-color="#B58E69"/>
<stop offset="1" stop-color="#8E6C4D"/>
</linearGradient>
<linearGradient id="paint7_linear_122_5057" x1="16.5753" y1="39.1476" x2="18.1309" y2="32.4108" gradientUnits="userSpaceOnUse">
<stop stop-color="#B58E69"/>
<stop offset="1" stop-color="#8E6C4D"/>
</linearGradient>
<linearGradient id="paint8_linear_122_5057" x1="16.5753" y1="30.9888" x2="18.1368" y2="24.2399" gradientUnits="userSpaceOnUse">
<stop stop-color="#B58E69"/>
<stop offset="1" stop-color="#8E6C4D"/>
</linearGradient>
<linearGradient id="paint9_linear_122_5057" x1="23.5787" y1="71.2156" x2="25.0525" y2="64.8334" gradientUnits="userSpaceOnUse">
<stop stop-color="#B58E69"/>
<stop offset="1" stop-color="#8E6C4D"/>
</linearGradient>
<linearGradient id="paint10_linear_122_5057" x1="23.5787" y1="63.1684" x2="25.0525" y2="56.7861" gradientUnits="userSpaceOnUse">
<stop stop-color="#B58E69"/>
<stop offset="1" stop-color="#8E6C4D"/>
</linearGradient>
<linearGradient id="paint11_linear_122_5057" x1="23.5787" y1="55.011" x2="25.0591" y2="48.6153" gradientUnits="userSpaceOnUse">
<stop stop-color="#B58E69"/>
<stop offset="1" stop-color="#8E6C4D"/>
</linearGradient>
<linearGradient id="paint12_linear_122_5057" x1="23.5787" y1="46.9479" x2="25.0525" y2="40.5657" gradientUnits="userSpaceOnUse">
<stop stop-color="#B58E69"/>
<stop offset="1" stop-color="#8E6C4D"/>
</linearGradient>
<linearGradient id="paint13_linear_122_5057" x1="23.5787" y1="38.9005" x2="25.0525" y2="32.5183" gradientUnits="userSpaceOnUse">
<stop stop-color="#B58E69"/>
<stop offset="1" stop-color="#8E6C4D"/>
</linearGradient>
<linearGradient id="paint14_linear_122_5057" x1="23.5787" y1="30.7417" x2="25.0584" y2="24.3473" gradientUnits="userSpaceOnUse">
<stop stop-color="#B58E69"/>
<stop offset="1" stop-color="#8E6C4D"/>
</linearGradient>
<linearGradient id="paint15_linear_122_5057" x1="23.5787" y1="22.6802" x2="25.0525" y2="16.298" gradientUnits="userSpaceOnUse">
<stop stop-color="#B58E69"/>
<stop offset="1" stop-color="#8E6C4D"/>
</linearGradient>
<linearGradient id="paint16_linear_122_5057" x1="30.5822" y1="79.0159" x2="31.9741" y2="72.9882" gradientUnits="userSpaceOnUse">
<stop stop-color="#B58E69"/>
<stop offset="1" stop-color="#8E6C4D"/>
</linearGradient>
<linearGradient id="paint17_linear_122_5057" x1="30.5184" y1="70.9685" x2="31.8743" y2="64.9236" gradientUnits="userSpaceOnUse">
<stop stop-color="#B58E69"/>
<stop offset="1" stop-color="#8E6C4D"/>
</linearGradient>
<linearGradient id="paint18_linear_122_5057" x1="30.5184" y1="62.9213" x2="31.8743" y2="56.8764" gradientUnits="userSpaceOnUse">
<stop stop-color="#B58E69"/>
<stop offset="1" stop-color="#8E6C4D"/>
</linearGradient>
<linearGradient id="paint19_linear_122_5057" x1="30.5822" y1="54.7482" x2="31.9741" y2="48.7205" gradientUnits="userSpaceOnUse">
<stop stop-color="#B58E69"/>
<stop offset="1" stop-color="#8E6C4D"/>
</linearGradient>
<linearGradient id="paint20_linear_122_5057" x1="30.5184" y1="46.7008" x2="31.8743" y2="40.6559" gradientUnits="userSpaceOnUse">
<stop stop-color="#B58E69"/>
<stop offset="1" stop-color="#8E6C4D"/>
</linearGradient>
<linearGradient id="paint21_linear_122_5057" x1="30.5822" y1="38.6534" x2="31.9741" y2="32.6258" gradientUnits="userSpaceOnUse">
<stop stop-color="#B58E69"/>
<stop offset="1" stop-color="#8E6C4D"/>
</linearGradient>
<linearGradient id="paint22_linear_122_5057" x1="30.5822" y1="30.4803" x2="31.9741" y2="24.4527" gradientUnits="userSpaceOnUse">
<stop stop-color="#B58E69"/>
<stop offset="1" stop-color="#8E6C4D"/>
</linearGradient>
<linearGradient id="paint23_linear_122_5057" x1="30.5184" y1="22.4331" x2="31.8743" y2="16.3882" gradientUnits="userSpaceOnUse">
<stop stop-color="#B58E69"/>
<stop offset="1" stop-color="#8E6C4D"/>
</linearGradient>
<linearGradient id="paint24_linear_122_5057" x1="30.5822" y1="14.3857" x2="31.9741" y2="8.35808" gradientUnits="userSpaceOnUse">
<stop stop-color="#B58E69"/>
<stop offset="1" stop-color="#8E6C4D"/>
</linearGradient>
<linearGradient id="paint25_linear_122_5057" x1="37.4606" y1="86.9419" x2="38.7706" y2="81.2688" gradientUnits="userSpaceOnUse">
<stop stop-color="#B58E69"/>
<stop offset="1" stop-color="#8E6C4D"/>
</linearGradient>
<linearGradient id="paint26_linear_122_5057" x1="37.4606" y1="78.7845" x2="38.7772" y2="73.0979" gradientUnits="userSpaceOnUse">
<stop stop-color="#B58E69"/>
<stop offset="1" stop-color="#8E6C4D"/>
</linearGradient>
<linearGradient id="paint27_linear_122_5057" x1="37.4606" y1="70.7214" x2="38.7706" y2="65.0483" gradientUnits="userSpaceOnUse">
<stop stop-color="#B58E69"/>
<stop offset="1" stop-color="#8E6C4D"/>
</linearGradient>
<linearGradient id="paint28_linear_122_5057" x1="37.4606" y1="62.6742" x2="38.7706" y2="57.0011" gradientUnits="userSpaceOnUse">
<stop stop-color="#B58E69"/>
<stop offset="1" stop-color="#8E6C4D"/>
</linearGradient>
<linearGradient id="paint29_linear_122_5057" x1="37.4606" y1="54.5011" x2="38.7706" y2="48.828" gradientUnits="userSpaceOnUse">
<stop stop-color="#B58E69"/>
<stop offset="1" stop-color="#8E6C4D"/>
</linearGradient>
<linearGradient id="paint30_linear_122_5057" x1="37.4606" y1="46.4537" x2="38.7706" y2="40.7806" gradientUnits="userSpaceOnUse">
<stop stop-color="#B58E69"/>
<stop offset="1" stop-color="#8E6C4D"/>
</linearGradient>
<linearGradient id="paint31_linear_122_5057" x1="37.4606" y1="38.4063" x2="38.7706" y2="32.7332" gradientUnits="userSpaceOnUse">
<stop stop-color="#B58E69"/>
<stop offset="1" stop-color="#8E6C4D"/>
</linearGradient>
<linearGradient id="paint32_linear_122_5057" x1="37.4606" y1="30.2332" x2="38.7706" y2="24.5602" gradientUnits="userSpaceOnUse">
<stop stop-color="#B58E69"/>
<stop offset="1" stop-color="#8E6C4D"/>
</linearGradient>
<linearGradient id="paint33_linear_122_5057" x1="37.4606" y1="22.186" x2="38.7706" y2="16.5129" gradientUnits="userSpaceOnUse">
<stop stop-color="#B58E69"/>
<stop offset="1" stop-color="#8E6C4D"/>
</linearGradient>
<linearGradient id="paint34_linear_122_5057" x1="37.4606" y1="14.1386" x2="38.7706" y2="8.46555" gradientUnits="userSpaceOnUse">
<stop stop-color="#B58E69"/>
<stop offset="1" stop-color="#8E6C4D"/>
</linearGradient>
<linearGradient id="paint35_linear_122_5057" x1="37.4606" y1="5.9813" x2="38.7772" y2="0.294715" gradientUnits="userSpaceOnUse">
<stop stop-color="#B58E69"/>
<stop offset="1" stop-color="#8E6C4D"/>
</linearGradient>
<linearGradient id="paint36_linear_122_5057" x1="44.4641" y1="86.6948" x2="45.6922" y2="81.3762" gradientUnits="userSpaceOnUse">
<stop stop-color="#B58E69"/>
<stop offset="1" stop-color="#8E6C4D"/>
</linearGradient>
<linearGradient id="paint37_linear_122_5057" x1="44.4641" y1="78.5217" x2="45.6922" y2="73.2031" gradientUnits="userSpaceOnUse">
<stop stop-color="#B58E69"/>
<stop offset="1" stop-color="#8E6C4D"/>
</linearGradient>
<linearGradient id="paint38_linear_122_5057" x1="44.4641" y1="70.4743" x2="45.6922" y2="65.1558" gradientUnits="userSpaceOnUse">
<stop stop-color="#B58E69"/>
<stop offset="1" stop-color="#8E6C4D"/>
</linearGradient>
<linearGradient id="paint39_linear_122_5057" x1="44.4641" y1="62.4271" x2="45.6922" y2="57.1085" gradientUnits="userSpaceOnUse">
<stop stop-color="#B58E69"/>
<stop offset="1" stop-color="#8E6C4D"/>
</linearGradient>
<linearGradient id="paint40_linear_122_5057" x1="44.4641" y1="54.254" x2="45.6922" y2="48.9354" gradientUnits="userSpaceOnUse">
<stop stop-color="#B58E69"/>
<stop offset="1" stop-color="#8E6C4D"/>
</linearGradient>
<linearGradient id="paint41_linear_122_5057" x1="44.4641" y1="46.2066" x2="45.6922" y2="40.8881" gradientUnits="userSpaceOnUse">
<stop stop-color="#B58E69"/>
<stop offset="1" stop-color="#8E6C4D"/>
</linearGradient>
<linearGradient id="paint42_linear_122_5057" x1="44.4641" y1="38.1592" x2="45.6922" y2="32.8407" gradientUnits="userSpaceOnUse">
<stop stop-color="#B58E69"/>
<stop offset="1" stop-color="#8E6C4D"/>
</linearGradient>
<linearGradient id="paint43_linear_122_5057" x1="44.4641" y1="29.9861" x2="45.6922" y2="24.6676" gradientUnits="userSpaceOnUse">
<stop stop-color="#B58E69"/>
<stop offset="1" stop-color="#8E6C4D"/>
</linearGradient>
<linearGradient id="paint44_linear_122_5057" x1="44.4641" y1="21.9389" x2="45.6922" y2="16.6204" gradientUnits="userSpaceOnUse">
<stop stop-color="#B58E69"/>
<stop offset="1" stop-color="#8E6C4D"/>
</linearGradient>
<linearGradient id="paint45_linear_122_5057" x1="44.4641" y1="13.8915" x2="45.6922" y2="8.57302" gradientUnits="userSpaceOnUse">
<stop stop-color="#B58E69"/>
<stop offset="1" stop-color="#8E6C4D"/>
</linearGradient>
<linearGradient id="paint46_linear_122_5057" x1="44.4641" y1="5.71844" x2="45.6922" y2="0.39992" gradientUnits="userSpaceOnUse">
<stop stop-color="#B58E69"/>
<stop offset="1" stop-color="#8E6C4D"/>
</linearGradient>
<linearGradient id="paint47_linear_122_5057" x1="51.4676" y1="86.4477" x2="52.6138" y2="81.4837" gradientUnits="userSpaceOnUse">
<stop stop-color="#B58E69"/>
<stop offset="1" stop-color="#8E6C4D"/>
</linearGradient>
<linearGradient id="paint48_linear_122_5057" x1="51.4676" y1="78.2746" x2="52.6138" y2="73.3106" gradientUnits="userSpaceOnUse">
<stop stop-color="#B58E69"/>
<stop offset="1" stop-color="#8E6C4D"/>
</linearGradient>
<linearGradient id="paint49_linear_122_5057" x1="51.4676" y1="70.2272" x2="52.6138" y2="65.2633" gradientUnits="userSpaceOnUse">
<stop stop-color="#B58E69"/>
<stop offset="1" stop-color="#8E6C4D"/>
</linearGradient>
<linearGradient id="paint50_linear_122_5057" x1="51.4676" y1="62.1798" x2="52.6138" y2="57.2159" gradientUnits="userSpaceOnUse">
<stop stop-color="#B58E69"/>
<stop offset="1" stop-color="#8E6C4D"/>
</linearGradient>
<linearGradient id="paint51_linear_122_5057" x1="51.4676" y1="54.0069" x2="52.6138" y2="49.0429" gradientUnits="userSpaceOnUse">
<stop stop-color="#B58E69"/>
<stop offset="1" stop-color="#8E6C4D"/>
</linearGradient>
<linearGradient id="paint52_linear_122_5057" x1="51.4676" y1="45.9595" x2="52.6138" y2="40.9956" gradientUnits="userSpaceOnUse">
<stop stop-color="#B58E69"/>
<stop offset="1" stop-color="#8E6C4D"/>
</linearGradient>
<linearGradient id="paint53_linear_122_5057" x1="51.4676" y1="37.9121" x2="52.6138" y2="32.9482" gradientUnits="userSpaceOnUse">
<stop stop-color="#B58E69"/>
<stop offset="1" stop-color="#8E6C4D"/>
</linearGradient>
<linearGradient id="paint54_linear_122_5057" x1="51.4676" y1="29.739" x2="52.6138" y2="24.7751" gradientUnits="userSpaceOnUse">
<stop stop-color="#B58E69"/>
<stop offset="1" stop-color="#8E6C4D"/>
</linearGradient>
<linearGradient id="paint55_linear_122_5057" x1="51.4676" y1="21.6917" x2="52.6138" y2="16.7277" gradientUnits="userSpaceOnUse">
<stop stop-color="#B58E69"/>
<stop offset="1" stop-color="#8E6C4D"/>
</linearGradient>
<linearGradient id="paint56_linear_122_5057" x1="51.4676" y1="13.6444" x2="52.6138" y2="8.68049" gradientUnits="userSpaceOnUse">
<stop stop-color="#B58E69"/>
<stop offset="1" stop-color="#8E6C4D"/>
</linearGradient>
<linearGradient id="paint57_linear_122_5057" x1="51.4676" y1="5.47134" x2="52.6138" y2="0.507394" gradientUnits="userSpaceOnUse">
<stop stop-color="#B58E69"/>
<stop offset="1" stop-color="#8E6C4D"/>
</linearGradient>
<linearGradient id="paint58_linear_122_5057" x1="58.471" y1="86.2006" x2="59.5354" y2="81.5912" gradientUnits="userSpaceOnUse">
<stop stop-color="#B58E69"/>
<stop offset="1" stop-color="#8E6C4D"/>
</linearGradient>
<linearGradient id="paint59_linear_122_5057" x1="58.471" y1="78.0478" x2="59.5439" y2="73.421" gradientUnits="userSpaceOnUse">
<stop stop-color="#B58E69"/>
<stop offset="1" stop-color="#8E6C4D"/>
</linearGradient>
<linearGradient id="paint60_linear_122_5057" x1="58.471" y1="69.9801" x2="59.5354" y2="65.3707" gradientUnits="userSpaceOnUse">
<stop stop-color="#B58E69"/>
<stop offset="1" stop-color="#8E6C4D"/>
</linearGradient>
<linearGradient id="paint61_linear_122_5057" x1="58.471" y1="61.9327" x2="59.5354" y2="57.3234" gradientUnits="userSpaceOnUse">
<stop stop-color="#B58E69"/>
<stop offset="1" stop-color="#8E6C4D"/>
</linearGradient>
<linearGradient id="paint62_linear_122_5057" x1="58.471" y1="53.9462" x2="59.6143" y2="49.1784" gradientUnits="userSpaceOnUse">
<stop stop-color="#B58E69"/>
<stop offset="1" stop-color="#8E6C4D"/>
</linearGradient>
<linearGradient id="paint63_linear_122_5057" x1="58.471" y1="45.7124" x2="59.5354" y2="41.103" gradientUnits="userSpaceOnUse">
<stop stop-color="#B58E69"/>
<stop offset="1" stop-color="#8E6C4D"/>
</linearGradient>
<linearGradient id="paint64_linear_122_5057" x1="58.471" y1="37.665" x2="59.5354" y2="33.0557" gradientUnits="userSpaceOnUse">
<stop stop-color="#B58E69"/>
<stop offset="1" stop-color="#8E6C4D"/>
</linearGradient>
<linearGradient id="paint65_linear_122_5057" x1="58.471" y1="29.5124" x2="59.5439" y2="24.8856" gradientUnits="userSpaceOnUse">
<stop stop-color="#B58E69"/>
<stop offset="1" stop-color="#8E6C4D"/>
</linearGradient>
<linearGradient id="paint66_linear_122_5057" x1="58.471" y1="21.4446" x2="59.5354" y2="16.8352" gradientUnits="userSpaceOnUse">
<stop stop-color="#B58E69"/>
<stop offset="1" stop-color="#8E6C4D"/>
</linearGradient>
<linearGradient id="paint67_linear_122_5057" x1="58.471" y1="13.3973" x2="59.5354" y2="8.78796" gradientUnits="userSpaceOnUse">
<stop stop-color="#B58E69"/>
<stop offset="1" stop-color="#8E6C4D"/>
</linearGradient>
<linearGradient id="paint68_linear_122_5057" x1="58.471" y1="5.24453" x2="59.5439" y2="0.617785" gradientUnits="userSpaceOnUse">
<stop stop-color="#B58E69"/>
<stop offset="1" stop-color="#8E6C4D"/>
</linearGradient>
<linearGradient id="paint69_linear_122_5057" x1="65.4745" y1="85.9535" x2="66.457" y2="81.6986" gradientUnits="userSpaceOnUse">
<stop stop-color="#B58E69"/>
<stop offset="1" stop-color="#8E6C4D"/>
</linearGradient>
<linearGradient id="paint70_linear_122_5057" x1="65.4745" y1="77.8008" x2="66.4655" y2="73.5286" gradientUnits="userSpaceOnUse">
<stop stop-color="#B58E69"/>
<stop offset="1" stop-color="#8E6C4D"/>
</linearGradient>
<linearGradient id="paint71_linear_122_5057" x1="65.4745" y1="69.733" x2="66.457" y2="65.4782" gradientUnits="userSpaceOnUse">
<stop stop-color="#B58E69"/>
<stop offset="1" stop-color="#8E6C4D"/>
</linearGradient>
<linearGradient id="paint72_linear_122_5057" x1="65.4745" y1="61.6856" x2="66.457" y2="57.4308" gradientUnits="userSpaceOnUse">
<stop stop-color="#B58E69"/>
<stop offset="1" stop-color="#8E6C4D"/>
</linearGradient>
<linearGradient id="paint73_linear_122_5057" x1="65.4745" y1="53.533" x2="66.4655" y2="49.2607" gradientUnits="userSpaceOnUse">
<stop stop-color="#B58E69"/>
<stop offset="1" stop-color="#8E6C4D"/>
</linearGradient>
<linearGradient id="paint74_linear_122_5057" x1="65.4745" y1="45.4653" x2="66.457" y2="41.2105" gradientUnits="userSpaceOnUse">
<stop stop-color="#B58E69"/>
<stop offset="1" stop-color="#8E6C4D"/>
</linearGradient>
<linearGradient id="paint75_linear_122_5057" x1="65.4745" y1="37.4179" x2="66.457" y2="33.1631" gradientUnits="userSpaceOnUse">
<stop stop-color="#B58E69"/>
<stop offset="1" stop-color="#8E6C4D"/>
</linearGradient>
<linearGradient id="paint76_linear_122_5057" x1="65.4745" y1="29.2653" x2="66.4655" y2="24.993" gradientUnits="userSpaceOnUse">
<stop stop-color="#B58E69"/>
<stop offset="1" stop-color="#8E6C4D"/>
</linearGradient>
<linearGradient id="paint77_linear_122_5057" x1="65.4745" y1="21.1975" x2="66.457" y2="16.9427" gradientUnits="userSpaceOnUse">
<stop stop-color="#B58E69"/>
<stop offset="1" stop-color="#8E6C4D"/>
</linearGradient>
<linearGradient id="paint78_linear_122_5057" x1="65.4745" y1="13.1502" x2="66.457" y2="8.89542" gradientUnits="userSpaceOnUse">
<stop stop-color="#B58E69"/>
<stop offset="1" stop-color="#8E6C4D"/>
</linearGradient>
<linearGradient id="paint79_linear_122_5057" x1="65.4745" y1="4.99746" x2="66.4655" y2="0.725221" gradientUnits="userSpaceOnUse">
<stop stop-color="#B58E69"/>
<stop offset="1" stop-color="#8E6C4D"/>
</linearGradient>
<linearGradient id="paint80_linear_122_5057" x1="72.4779" y1="85.7064" x2="73.3786" y2="81.8061" gradientUnits="userSpaceOnUse">
<stop stop-color="#B58E69"/>
<stop offset="1" stop-color="#8E6C4D"/>
</linearGradient>
<linearGradient id="paint81_linear_122_5057" x1="72.4779" y1="77.7197" x2="73.4577" y2="73.6613" gradientUnits="userSpaceOnUse">
<stop stop-color="#B58E69"/>
<stop offset="1" stop-color="#8E6C4D"/>
</linearGradient>
<linearGradient id="paint82_linear_122_5057" x1="72.4779" y1="69.4859" x2="73.3786" y2="65.5857" gradientUnits="userSpaceOnUse">
<stop stop-color="#B58E69"/>
<stop offset="1" stop-color="#8E6C4D"/>
</linearGradient>
<linearGradient id="paint83_linear_122_5057" x1="72.4779" y1="61.4385" x2="73.3786" y2="57.5383" gradientUnits="userSpaceOnUse">
<stop stop-color="#B58E69"/>
<stop offset="1" stop-color="#8E6C4D"/>
</linearGradient>
<linearGradient id="paint84_linear_122_5057" x1="72.4779" y1="53.2893" x2="73.3885" y2="49.3688" gradientUnits="userSpaceOnUse">
<stop stop-color="#B58E69"/>
<stop offset="1" stop-color="#8E6C4D"/>
</linearGradient>
<linearGradient id="paint85_linear_122_5057" x1="72.4779" y1="45.2182" x2="73.3786" y2="41.318" gradientUnits="userSpaceOnUse">
<stop stop-color="#B58E69"/>
<stop offset="1" stop-color="#8E6C4D"/>
</linearGradient>
<linearGradient id="paint86_linear_122_5057" x1="72.4779" y1="37.1708" x2="73.3786" y2="33.2706" gradientUnits="userSpaceOnUse">
<stop stop-color="#B58E69"/>
<stop offset="1" stop-color="#8E6C4D"/>
</linearGradient>
<linearGradient id="paint87_linear_122_5057" x1="72.4779" y1="29.0215" x2="73.3885" y2="25.1009" gradientUnits="userSpaceOnUse">
<stop stop-color="#B58E69"/>
<stop offset="1" stop-color="#8E6C4D"/>
</linearGradient>
<linearGradient id="paint88_linear_122_5057" x1="72.4779" y1="20.9504" x2="73.3786" y2="17.0501" gradientUnits="userSpaceOnUse">
<stop stop-color="#B58E69"/>
<stop offset="1" stop-color="#8E6C4D"/>
</linearGradient>
<linearGradient id="paint89_linear_122_5057" x1="72.4779" y1="12.903" x2="73.3786" y2="9.00277" gradientUnits="userSpaceOnUse">
<stop stop-color="#B58E69"/>
<stop offset="1" stop-color="#8E6C4D"/>
</linearGradient>
<linearGradient id="paint90_linear_122_5057" x1="72.4779" y1="4.73005" x2="73.3786" y2="0.829797" gradientUnits="userSpaceOnUse">
<stop stop-color="#B58E69"/>
<stop offset="1" stop-color="#8E6C4D"/>
</linearGradient>
<linearGradient id="paint91_linear_122_5057" x1="79.4814" y1="85.4593" x2="80.3001" y2="81.9136" gradientUnits="userSpaceOnUse">
<stop stop-color="#B58E69"/>
<stop offset="1" stop-color="#8E6C4D"/>
</linearGradient>
<linearGradient id="paint92_linear_122_5057" x1="79.4814" y1="77.2862" x2="80.3001" y2="73.7405" gradientUnits="userSpaceOnUse">
<stop stop-color="#B58E69"/>
<stop offset="1" stop-color="#8E6C4D"/>
</linearGradient>
<linearGradient id="paint93_linear_122_5057" x1="79.4814" y1="69.2388" x2="80.3001" y2="65.6931" gradientUnits="userSpaceOnUse">
<stop stop-color="#B58E69"/>
<stop offset="1" stop-color="#8E6C4D"/>
</linearGradient>
<linearGradient id="paint94_linear_122_5057" x1="79.4814" y1="61.1914" x2="80.3001" y2="57.6458" gradientUnits="userSpaceOnUse">
<stop stop-color="#B58E69"/>
<stop offset="1" stop-color="#8E6C4D"/>
</linearGradient>
<linearGradient id="paint95_linear_122_5057" x1="79.4814" y1="53.0422" x2="80.3101" y2="49.4762" gradientUnits="userSpaceOnUse">
<stop stop-color="#B58E69"/>
<stop offset="1" stop-color="#8E6C4D"/>
</linearGradient>
<linearGradient id="paint96_linear_122_5057" x1="79.4814" y1="44.9711" x2="80.3001" y2="41.4254" gradientUnits="userSpaceOnUse">
<stop stop-color="#B58E69"/>
<stop offset="1" stop-color="#8E6C4D"/>
</linearGradient>
<linearGradient id="paint97_linear_122_5057" x1="79.4814" y1="36.9237" x2="80.3001" y2="33.3781" gradientUnits="userSpaceOnUse">
<stop stop-color="#B58E69"/>
<stop offset="1" stop-color="#8E6C4D"/>
</linearGradient>
<linearGradient id="paint98_linear_122_5057" x1="79.4814" y1="28.7745" x2="80.3101" y2="25.2085" gradientUnits="userSpaceOnUse">
<stop stop-color="#B58E69"/>
<stop offset="1" stop-color="#8E6C4D"/>
</linearGradient>
<linearGradient id="paint99_linear_122_5057" x1="79.4814" y1="20.7033" x2="80.3001" y2="17.1576" gradientUnits="userSpaceOnUse">
<stop stop-color="#B58E69"/>
<stop offset="1" stop-color="#8E6C4D"/>
</linearGradient>
<linearGradient id="paint100_linear_122_5057" x1="79.4814" y1="12.6559" x2="80.3001" y2="9.11024" gradientUnits="userSpaceOnUse">
<stop stop-color="#B58E69"/>
<stop offset="1" stop-color="#8E6C4D"/>
</linearGradient>
<linearGradient id="paint101_linear_122_5057" x1="79.4814" y1="4.48295" x2="80.3001" y2="0.93727" gradientUnits="userSpaceOnUse">
<stop stop-color="#B58E69"/>
<stop offset="1" stop-color="#8E6C4D"/>
</linearGradient>
<linearGradient id="paint102_linear_122_5057" x1="86.3598" y1="85.2122" x2="87.0967" y2="82.0211" gradientUnits="userSpaceOnUse">
<stop stop-color="#B58E69"/>
<stop offset="1" stop-color="#8E6C4D"/>
</linearGradient>
<linearGradient id="paint103_linear_122_5057" x1="86.3598" y1="77.0675" x2="87.1086" y2="73.8521" gradientUnits="userSpaceOnUse">
<stop stop-color="#B58E69"/>
<stop offset="1" stop-color="#8E6C4D"/>
</linearGradient>
<linearGradient id="paint104_linear_122_5057" x1="86.3598" y1="68.9917" x2="87.0967" y2="65.8006" gradientUnits="userSpaceOnUse">
<stop stop-color="#B58E69"/>
<stop offset="1" stop-color="#8E6C4D"/>
</linearGradient>
<linearGradient id="paint105_linear_122_5057" x1="86.3692" y1="60.9443" x2="87.1005" y2="57.7505" gradientUnits="userSpaceOnUse">
<stop stop-color="#B58E69"/>
<stop offset="1" stop-color="#8E6C4D"/>
</linearGradient>
<linearGradient id="paint106_linear_122_5057" x1="86.3598" y1="52.7953" x2="87.1067" y2="49.5837" gradientUnits="userSpaceOnUse">
<stop stop-color="#B58E69"/>
<stop offset="1" stop-color="#8E6C4D"/>
</linearGradient>
<linearGradient id="paint107_linear_122_5057" x1="86.3598" y1="44.724" x2="87.0967" y2="41.5329" gradientUnits="userSpaceOnUse">
<stop stop-color="#B58E69"/>
<stop offset="1" stop-color="#8E6C4D"/>
</linearGradient>
<linearGradient id="paint108_linear_122_5057" x1="86.3598" y1="36.6766" x2="87.0967" y2="33.4855" gradientUnits="userSpaceOnUse">
<stop stop-color="#B58E69"/>
<stop offset="1" stop-color="#8E6C4D"/>
</linearGradient>
<linearGradient id="paint109_linear_122_5057" x1="86.3598" y1="28.5275" x2="87.1067" y2="25.3159" gradientUnits="userSpaceOnUse">
<stop stop-color="#B58E69"/>
<stop offset="1" stop-color="#8E6C4D"/>
</linearGradient>
<linearGradient id="paint110_linear_122_5057" x1="86.3598" y1="20.4562" x2="87.0967" y2="17.2651" gradientUnits="userSpaceOnUse">
<stop stop-color="#B58E69"/>
<stop offset="1" stop-color="#8E6C4D"/>
</linearGradient>
<linearGradient id="paint111_linear_122_5057" x1="86.421" y1="12.4088" x2="87.1227" y2="9.20107" gradientUnits="userSpaceOnUse">
<stop stop-color="#B58E69"/>
<stop offset="1" stop-color="#8E6C4D"/>
</linearGradient>
<linearGradient id="paint112_linear_122_5057" x1="86.3598" y1="4.23585" x2="87.0967" y2="1.04474" gradientUnits="userSpaceOnUse">
<stop stop-color="#B58E69"/>
<stop offset="1" stop-color="#8E6C4D"/>
</linearGradient>
<linearGradient id="paint113_linear_122_5057" x1="93.3633" y1="84.9651" x2="94.0183" y2="82.1285" gradientUnits="userSpaceOnUse">
<stop stop-color="#B58E69"/>
<stop offset="1" stop-color="#8E6C4D"/>
</linearGradient>
<linearGradient id="paint114_linear_122_5057" x1="93.3633" y1="76.792" x2="94.0183" y2="73.9554" gradientUnits="userSpaceOnUse">
<stop stop-color="#B58E69"/>
<stop offset="1" stop-color="#8E6C4D"/>
</linearGradient>
<linearGradient id="paint115_linear_122_5057" x1="93.3633" y1="68.7446" x2="94.0183" y2="65.9081" gradientUnits="userSpaceOnUse">
<stop stop-color="#B58E69"/>
<stop offset="1" stop-color="#8E6C4D"/>
</linearGradient>
<linearGradient id="paint116_linear_122_5057" x1="93.3633" y1="60.6972" x2="94.0183" y2="57.8607" gradientUnits="userSpaceOnUse">
<stop stop-color="#B58E69"/>
<stop offset="1" stop-color="#8E6C4D"/>
</linearGradient>
<linearGradient id="paint117_linear_122_5057" x1="93.3633" y1="52.5242" x2="94.0183" y2="49.6876" gradientUnits="userSpaceOnUse">
<stop stop-color="#B58E69"/>
<stop offset="1" stop-color="#8E6C4D"/>
</linearGradient>
<linearGradient id="paint118_linear_122_5057" x1="93.3633" y1="44.4768" x2="94.0183" y2="41.6402" gradientUnits="userSpaceOnUse">
<stop stop-color="#B58E69"/>
<stop offset="1" stop-color="#8E6C4D"/>
</linearGradient>
<linearGradient id="paint119_linear_122_5057" x1="93.3633" y1="36.4295" x2="94.0183" y2="33.593" gradientUnits="userSpaceOnUse">
<stop stop-color="#B58E69"/>
<stop offset="1" stop-color="#8E6C4D"/>
</linearGradient>
<linearGradient id="paint120_linear_122_5057" x1="93.3633" y1="28.2565" x2="94.0183" y2="25.4199" gradientUnits="userSpaceOnUse">
<stop stop-color="#B58E69"/>
<stop offset="1" stop-color="#8E6C4D"/>
</linearGradient>
<linearGradient id="paint121_linear_122_5057" x1="93.3633" y1="20.2091" x2="94.0183" y2="17.3725" gradientUnits="userSpaceOnUse">
<stop stop-color="#B58E69"/>
<stop offset="1" stop-color="#8E6C4D"/>
</linearGradient>
<linearGradient id="paint122_linear_122_5057" x1="93.3633" y1="12.1617" x2="94.0183" y2="9.32518" gradientUnits="userSpaceOnUse">
<stop stop-color="#B58E69"/>
<stop offset="1" stop-color="#8E6C4D"/>
</linearGradient>
<linearGradient id="paint123_linear_122_5057" x1="93.3633" y1="3.98863" x2="94.0183" y2="1.15209" gradientUnits="userSpaceOnUse">
<stop stop-color="#B58E69"/>
<stop offset="1" stop-color="#8E6C4D"/>
</linearGradient>
<linearGradient id="paint124_linear_122_5057" x1="100.367" y1="84.7178" x2="100.94" y2="82.2359" gradientUnits="userSpaceOnUse">
<stop stop-color="#B58E69"/>
<stop offset="1" stop-color="#8E6C4D"/>
</linearGradient>
<linearGradient id="paint125_linear_122_5057" x1="100.367" y1="76.5738" x2="100.952" y2="74.0671" gradientUnits="userSpaceOnUse">
<stop stop-color="#B58E69"/>
<stop offset="1" stop-color="#8E6C4D"/>
</linearGradient>
<linearGradient id="paint126_linear_122_5057" x1="100.367" y1="68.4975" x2="100.94" y2="66.0155" gradientUnits="userSpaceOnUse">
<stop stop-color="#B58E69"/>
<stop offset="1" stop-color="#8E6C4D"/>
</linearGradient>
<linearGradient id="paint127_linear_122_5057" x1="100.367" y1="60.4501" x2="100.94" y2="57.9682" gradientUnits="userSpaceOnUse">
<stop stop-color="#B58E69"/>
<stop offset="1" stop-color="#8E6C4D"/>
</linearGradient>
<linearGradient id="paint128_linear_122_5057" x1="100.367" y1="52.306" x2="100.952" y2="49.7993" gradientUnits="userSpaceOnUse">
<stop stop-color="#B58E69"/>
<stop offset="1" stop-color="#8E6C4D"/>
</linearGradient>
<linearGradient id="paint129_linear_122_5057" x1="100.367" y1="44.2297" x2="100.94" y2="41.7477" gradientUnits="userSpaceOnUse">
<stop stop-color="#B58E69"/>
<stop offset="1" stop-color="#8E6C4D"/>
</linearGradient>
<linearGradient id="paint130_linear_122_5057" x1="100.367" y1="36.1824" x2="100.94" y2="33.7005" gradientUnits="userSpaceOnUse">
<stop stop-color="#B58E69"/>
<stop offset="1" stop-color="#8E6C4D"/>
</linearGradient>
<linearGradient id="paint131_linear_122_5057" x1="100.367" y1="28.0094" x2="100.94" y2="25.5274" gradientUnits="userSpaceOnUse">
<stop stop-color="#B58E69"/>
<stop offset="1" stop-color="#8E6C4D"/>
</linearGradient>
<linearGradient id="paint132_linear_122_5057" x1="100.367" y1="19.962" x2="100.94" y2="17.48" gradientUnits="userSpaceOnUse">
<stop stop-color="#B58E69"/>
<stop offset="1" stop-color="#8E6C4D"/>
</linearGradient>
<linearGradient id="paint133_linear_122_5057" x1="100.367" y1="11.9146" x2="100.94" y2="9.43265" gradientUnits="userSpaceOnUse">
<stop stop-color="#B58E69"/>
<stop offset="1" stop-color="#8E6C4D"/>
</linearGradient>
<linearGradient id="paint134_linear_122_5057" x1="100.367" y1="3.74153" x2="100.94" y2="1.25956" gradientUnits="userSpaceOnUse">
<stop stop-color="#B58E69"/>
<stop offset="1" stop-color="#8E6C4D"/>
</linearGradient>
<linearGradient id="paint135_linear_122_5057" x1="107.37" y1="84.4708" x2="107.861" y2="82.3433" gradientUnits="userSpaceOnUse">
<stop stop-color="#B58E69"/>
<stop offset="1" stop-color="#8E6C4D"/>
</linearGradient>
<linearGradient id="paint136_linear_122_5057" x1="107.37" y1="76.3338" x2="107.877" y2="74.1756" gradientUnits="userSpaceOnUse">
<stop stop-color="#B58E69"/>
<stop offset="1" stop-color="#8E6C4D"/>
</linearGradient>
<linearGradient id="paint137_linear_122_5057" x1="107.37" y1="68.2504" x2="107.861" y2="66.123" gradientUnits="userSpaceOnUse">
<stop stop-color="#B58E69"/>
<stop offset="1" stop-color="#8E6C4D"/>
</linearGradient>
<linearGradient id="paint138_linear_122_5057" x1="107.37" y1="60.2031" x2="107.861" y2="58.0756" gradientUnits="userSpaceOnUse">
<stop stop-color="#B58E69"/>
<stop offset="1" stop-color="#8E6C4D"/>
</linearGradient>
<linearGradient id="paint139_linear_122_5057" x1="107.37" y1="52.0661" x2="107.877" y2="49.9079" gradientUnits="userSpaceOnUse">
<stop stop-color="#B58E69"/>
<stop offset="1" stop-color="#8E6C4D"/>
</linearGradient>
<linearGradient id="paint140_linear_122_5057" x1="107.37" y1="43.9826" x2="107.861" y2="41.8552" gradientUnits="userSpaceOnUse">
<stop stop-color="#B58E69"/>
<stop offset="1" stop-color="#8E6C4D"/>
</linearGradient>
<linearGradient id="paint141_linear_122_5057" x1="107.37" y1="35.9353" x2="107.861" y2="33.8079" gradientUnits="userSpaceOnUse">
<stop stop-color="#B58E69"/>
<stop offset="1" stop-color="#8E6C4D"/>
</linearGradient>
<linearGradient id="paint142_linear_122_5057" x1="107.37" y1="27.7623" x2="107.861" y2="25.6348" gradientUnits="userSpaceOnUse">
<stop stop-color="#B58E69"/>
<stop offset="1" stop-color="#8E6C4D"/>
</linearGradient>
<linearGradient id="paint143_linear_122_5057" x1="107.37" y1="19.7149" x2="107.861" y2="17.5875" gradientUnits="userSpaceOnUse">
<stop stop-color="#B58E69"/>
<stop offset="1" stop-color="#8E6C4D"/>
</linearGradient>
<linearGradient id="paint144_linear_122_5057" x1="107.37" y1="11.6675" x2="107.861" y2="9.54012" gradientUnits="userSpaceOnUse">
<stop stop-color="#B58E69"/>
<stop offset="1" stop-color="#8E6C4D"/>
</linearGradient>
<linearGradient id="paint145_linear_122_5057" x1="107.37" y1="3.49443" x2="107.861" y2="1.36703" gradientUnits="userSpaceOnUse">
<stop stop-color="#B58E69"/>
<stop offset="1" stop-color="#8E6C4D"/>
</linearGradient>
<linearGradient id="paint146_linear_122_5057" x1="114.374" y1="84.2237" x2="114.783" y2="82.4508" gradientUnits="userSpaceOnUse">
<stop stop-color="#B58E69"/>
<stop offset="1" stop-color="#8E6C4D"/>
</linearGradient>
<linearGradient id="paint147_linear_122_5057" x1="114.374" y1="76.0872" x2="114.798" y2="74.2832" gradientUnits="userSpaceOnUse">
<stop stop-color="#B58E69"/>
<stop offset="1" stop-color="#8E6C4D"/>
</linearGradient>
<linearGradient id="paint148_linear_122_5057" x1="114.374" y1="68.0033" x2="114.783" y2="66.2305" gradientUnits="userSpaceOnUse">
<stop stop-color="#B58E69"/>
<stop offset="1" stop-color="#8E6C4D"/>
</linearGradient>
<linearGradient id="paint149_linear_122_5057" x1="114.374" y1="59.956" x2="114.783" y2="58.1831" gradientUnits="userSpaceOnUse">
<stop stop-color="#B58E69"/>
<stop offset="1" stop-color="#8E6C4D"/>
</linearGradient>
<linearGradient id="paint150_linear_122_5057" x1="114.374" y1="51.8194" x2="114.798" y2="50.0154" gradientUnits="userSpaceOnUse">
<stop stop-color="#B58E69"/>
<stop offset="1" stop-color="#8E6C4D"/>
</linearGradient>
<linearGradient id="paint151_linear_122_5057" x1="114.374" y1="43.7355" x2="114.783" y2="41.9627" gradientUnits="userSpaceOnUse">
<stop stop-color="#B58E69"/>
<stop offset="1" stop-color="#8E6C4D"/>
</linearGradient>
<linearGradient id="paint152_linear_122_5057" x1="114.374" y1="35.6883" x2="114.783" y2="33.9154" gradientUnits="userSpaceOnUse">
<stop stop-color="#B58E69"/>
<stop offset="1" stop-color="#8E6C4D"/>
</linearGradient>
<linearGradient id="paint153_linear_122_5057" x1="114.374" y1="27.5152" x2="114.783" y2="25.7423" gradientUnits="userSpaceOnUse">
<stop stop-color="#B58E69"/>
<stop offset="1" stop-color="#8E6C4D"/>
</linearGradient>
<linearGradient id="paint154_linear_122_5057" x1="114.374" y1="19.4678" x2="114.783" y2="17.695" gradientUnits="userSpaceOnUse">
<stop stop-color="#B58E69"/>
<stop offset="1" stop-color="#8E6C4D"/>
</linearGradient>
<linearGradient id="paint155_linear_122_5057" x1="114.374" y1="11.4204" x2="114.783" y2="9.64759" gradientUnits="userSpaceOnUse">
<stop stop-color="#B58E69"/>
<stop offset="1" stop-color="#8E6C4D"/>
</linearGradient>
<linearGradient id="paint156_linear_122_5057" x1="114.374" y1="3.24733" x2="114.783" y2="1.47449" gradientUnits="userSpaceOnUse">
<stop stop-color="#B58E69"/>
<stop offset="1" stop-color="#8E6C4D"/>
</linearGradient>
<clipPath id="clip0_122_5057">
<rect width="115.012" height="85" fill="white" transform="matrix(-1 0 0 -1 115.012 85)"/>
</clipPath>
</defs>
</svg>
