<svg width="67" height="69" viewBox="0 0 67 69" fill="none" xmlns="http://www.w3.org/2000/svg">
<g id="Frame" clip-path="url(#clip0_122_24570)">
<g id="Group">
<path id="Vector" d="M32.6853 -3.7312L0 28.2702L1.62947 30L33.5479 1.26602L65.3705 30L67 28.2702L34.3147 -3.7312L33.5479 -4.5L32.6853 -3.7312Z" fill="url(#paint0_linear_122_24570)"/>
<path id="Vector_2" d="M32.6853 15.7688L0 47.8663L1.62947 49.5L33.5479 20.766L65.3705 49.5L67 47.8663L34.3147 15.7688L33.5479 15L32.6853 15.7688Z" fill="url(#paint1_linear_122_24570)"/>
<path id="Vector_3" d="M32.6853 35.2688L0 67.2702L1.62947 69L33.5479 40.266L65.3705 69L67 67.2702L34.3147 35.2688L33.5479 34.5L32.6853 35.2688Z" fill="url(#paint2_linear_122_24570)"/>
</g>
</g>
<defs>
<linearGradient id="paint0_linear_122_24570" x1="-32.3348" y1="12.3744" x2="50.6709" y2="49.3786" gradientUnits="userSpaceOnUse">
<stop stop-color="#E7E4E2"/>
<stop offset="1" stop-color="#D9D8D7"/>
</linearGradient>
<linearGradient id="paint1_linear_122_24570" x1="-32.3348" y1="31.8744" x2="50.6709" y2="68.8786" gradientUnits="userSpaceOnUse">
<stop stop-color="#E7E4E2"/>
<stop offset="1" stop-color="#D9D8D7"/>
</linearGradient>
<linearGradient id="paint2_linear_122_24570" x1="-32.3348" y1="51.3744" x2="50.6709" y2="88.3786" gradientUnits="userSpaceOnUse">
<stop stop-color="#E7E4E2"/>
<stop offset="1" stop-color="#D9D8D7"/>
</linearGradient>
<clipPath id="clip0_122_24570">
<rect width="69" height="67" fill="white" transform="matrix(0 -1 1 0 0 69)"/>
</clipPath>
</defs>
</svg>
